<?xml version="1.0" encoding="UTF-8"?><svg id="images" xmlns="http://www.w3.org/2000/svg" viewBox="0 0 340 340"><defs><style>.cls-1{fill:#1c1c1c;}</style></defs><g id="foreground"><g><path class="cls-1" d="M2.38,83.91v3H6.73v1.09H1.06v-8.99H6.69v1.1H2.38v2.7h3.73v1.09H2.38Z"/><path class="cls-1" d="M8.27,81.32h1.35l1.79,4.94,.1,.43,.1-.43,1.75-4.94h1.35l-2.67,6.68h-1.09l-2.69-6.68Z"/><path class="cls-1" d="M18.15,87.88c-.4-.16-.74-.39-1.03-.68-.29-.29-.51-.63-.67-1.02s-.24-.82-.24-1.28v-.25c0-.53,.08-1.01,.26-1.44s.4-.79,.69-1.08c.28-.3,.61-.52,.98-.69,.37-.16,.76-.24,1.17-.24,.48,0,.9,.08,1.27,.25s.67,.39,.92,.69c.25,.29,.43,.64,.55,1.04,.12,.4,.18,.84,.18,1.31v.57h-4.7v.04c.04,.31,.11,.57,.2,.8s.23,.42,.4,.59c.18,.18,.38,.32,.62,.43,.24,.1,.5,.15,.79,.15,.39,0,.74-.08,1.05-.23,.32-.15,.58-.37,.78-.63l.75,.65c-.22,.33-.56,.62-1.01,.88-.45,.26-1,.39-1.65,.39-.48,0-.92-.08-1.32-.24Zm.54-5.49c-.19,.08-.36,.2-.51,.35-.15,.15-.28,.34-.39,.56-.11,.22-.18,.47-.23,.75h3.37v-.08c0-.2-.04-.4-.11-.62-.08-.21-.18-.4-.31-.56-.13-.16-.3-.28-.5-.38-.2-.1-.44-.15-.71-.15-.22,0-.42,.04-.62,.12Z"/><path class="cls-1" d="M24.15,81.32h1.18l.09,.97c.09-.14,.2-.26,.31-.37,.11-.11,.23-.21,.35-.29,.2-.14,.41-.24,.65-.31,.23-.07,.48-.11,.74-.11,.35,0,.66,.05,.94,.15s.53,.25,.73,.46c.2,.21,.36,.48,.47,.81s.16,.72,.16,1.18v4.2h-1.31v-4.18c0-.29-.03-.53-.1-.73-.06-.2-.16-.35-.28-.47-.12-.12-.27-.21-.45-.26-.18-.05-.38-.08-.61-.08-.2,0-.38,.03-.55,.08-.17,.05-.32,.13-.46,.22-.12,.08-.22,.17-.32,.28s-.18,.22-.25,.35v4.78h-1.32v-6.68Z"/><path class="cls-1" d="M34.69,81.32h2.53v.99h-2.53v3.41c0,.25,.03,.47,.1,.63,.06,.17,.15,.3,.26,.4,.11,.1,.24,.17,.39,.22s.31,.06,.48,.06c.13,0,.26,0,.39-.02,.13-.01,.26-.03,.39-.05,.12-.02,.24-.04,.35-.06,.11-.02,.2-.04,.27-.06l.17,.92c-.1,.06-.22,.12-.37,.16-.14,.05-.3,.08-.47,.11-.16,.03-.34,.06-.52,.07s-.37,.02-.55,.02c-.32,0-.61-.04-.88-.13s-.5-.23-.7-.42c-.2-.19-.35-.43-.46-.73s-.16-.66-.16-1.08v-3.46h-1.69v-.99h1.69v-1.62h1.31v1.62Z"/><path class="cls-1" d="M43.89,85.87c-.05-.1-.14-.19-.26-.28-.13-.08-.29-.16-.5-.23s-.47-.14-.77-.2c-.39-.08-.74-.17-1.06-.29-.32-.11-.59-.25-.81-.41-.23-.16-.4-.34-.53-.55-.12-.21-.19-.45-.19-.73s.06-.53,.19-.77,.31-.45,.55-.63c.23-.18,.52-.32,.85-.43s.69-.16,1.09-.16c.43,0,.81,.05,1.15,.16,.34,.11,.63,.26,.87,.44,.24,.19,.42,.42,.55,.67,.13,.26,.19,.53,.19,.83h-1.31c0-.13-.03-.26-.1-.39s-.15-.24-.27-.34c-.12-.1-.28-.19-.46-.25-.18-.07-.39-.1-.63-.1s-.43,.02-.61,.07-.32,.12-.43,.2c-.12,.09-.2,.18-.26,.29-.06,.11-.09,.22-.09,.34s.02,.23,.07,.33c.05,.1,.13,.18,.25,.26,.12,.08,.27,.15,.47,.21,.2,.06,.45,.12,.75,.18,.41,.08,.78,.18,1.11,.29,.33,.11,.61,.24,.84,.4,.24,.16,.41,.35,.54,.56,.12,.22,.19,.47,.19,.76s-.07,.57-.2,.81c-.14,.25-.33,.46-.57,.63-.24,.17-.54,.31-.88,.4s-.72,.15-1.14,.15c-.46,0-.88-.06-1.24-.19-.36-.12-.67-.29-.92-.49-.25-.2-.44-.44-.57-.7-.13-.27-.19-.54-.19-.82h1.28c.02,.22,.08,.4,.18,.56,.1,.15,.23,.28,.39,.37,.16,.09,.33,.16,.52,.2,.19,.04,.38,.06,.57,.06,.28,0,.52-.03,.73-.1,.21-.06,.37-.15,.49-.26,.09-.07,.15-.16,.19-.25,.04-.09,.07-.19,.07-.3,0-.13-.03-.24-.08-.34Z"/><path class="cls-1" d="M54.91,83.26c.14-.41,.34-.77,.61-1.08,.26-.3,.58-.54,.96-.72,.38-.17,.81-.26,1.28-.26s.91,.09,1.29,.26,.71,.41,.97,.72c.26,.3,.46,.66,.6,1.08,.14,.41,.21,.86,.21,1.34v.14c0,.48-.07,.93-.21,1.34-.14,.41-.34,.77-.6,1.08-.27,.3-.59,.54-.97,.71-.38,.17-.81,.26-1.28,.26s-.91-.09-1.29-.26c-.38-.17-.7-.41-.97-.71-.27-.3-.47-.66-.61-1.08s-.21-.86-.21-1.34v-.14c0-.48,.07-.93,.21-1.34Zm1.21,2.37c.07,.28,.18,.53,.33,.74,.14,.22,.33,.39,.55,.51,.22,.12,.48,.19,.78,.19s.55-.06,.77-.19,.4-.29,.55-.51c.14-.21,.25-.46,.32-.74,.07-.28,.11-.58,.11-.9v-.14c0-.31-.04-.6-.11-.89-.07-.28-.18-.53-.32-.74-.15-.22-.33-.39-.55-.52-.22-.13-.48-.19-.78-.19s-.56,.06-.78,.19c-.22,.13-.4,.3-.54,.52-.15,.21-.26,.46-.33,.74-.07,.28-.11,.58-.11,.89v.14c0,.31,.04,.61,.11,.9Z"/><path class="cls-1" d="M62.25,81.32h1.35l1.79,4.94,.1,.43,.1-.43,1.75-4.94h1.35l-2.67,6.68h-1.09l-2.69-6.68Z"/><path class="cls-1" d="M72.13,87.88c-.4-.16-.74-.39-1.03-.68-.29-.29-.51-.63-.67-1.02s-.24-.82-.24-1.28v-.25c0-.53,.08-1.01,.26-1.44s.4-.79,.69-1.08c.28-.3,.61-.52,.98-.69,.37-.16,.76-.24,1.17-.24,.48,0,.9,.08,1.27,.25s.67,.39,.92,.69c.25,.29,.43,.64,.55,1.04,.12,.4,.18,.84,.18,1.31v.57h-4.7v.04c.04,.31,.11,.57,.2,.8s.23,.42,.4,.59c.18,.18,.38,.32,.62,.43,.24,.1,.5,.15,.79,.15,.39,0,.74-.08,1.05-.23,.32-.15,.58-.37,.78-.63l.75,.65c-.22,.33-.56,.62-1.01,.88-.45,.26-1,.39-1.65,.39-.48,0-.92-.08-1.32-.24Zm.54-5.49c-.19,.08-.36,.2-.51,.35-.15,.15-.28,.34-.39,.56-.11,.22-.18,.47-.23,.75h3.37v-.08c0-.2-.04-.4-.11-.62-.08-.21-.18-.4-.31-.56-.13-.16-.3-.28-.5-.38-.2-.1-.44-.15-.71-.15-.22,0-.42,.04-.62,.12Z"/><path class="cls-1" d="M83.3,81.25c.22,.03,.4,.07,.52,.11l-.19,1.29c-.22-.05-.44-.09-.65-.11-.21-.02-.42-.04-.64-.04-.26,0-.5,.03-.71,.09s-.4,.15-.56,.26c-.16,.11-.29,.25-.41,.4-.12,.16-.21,.34-.28,.54v4.2h-1.32v-6.68h1.23l.06,.91v.16c.28-.37,.6-.66,.98-.87,.38-.21,.81-.32,1.28-.32,.23,0,.45,.02,.68,.05Z"/><path class="cls-1" d="M96.38,81.32h2.53v.99h-2.53v3.41c0,.25,.03,.47,.1,.63,.06,.17,.15,.3,.26,.4,.11,.1,.24,.17,.39,.22s.31,.06,.48,.06c.13,0,.26,0,.39-.02,.13-.01,.26-.03,.39-.05,.12-.02,.24-.04,.35-.06,.11-.02,.2-.04,.27-.06l.17,.92c-.1,.06-.22,.12-.37,.16-.14,.05-.3,.08-.47,.11-.16,.03-.34,.06-.52,.07s-.37,.02-.55,.02c-.32,0-.61-.04-.88-.13s-.5-.23-.7-.42c-.2-.19-.35-.43-.46-.73s-.16-.66-.16-1.08v-3.46h-1.69v-.99h1.69v-1.62h1.31v1.62Z"/><path class="cls-1" d="M105,81.32v5.57h2.07v1.1h-5.55v-1.1h2.17v-4.46h-2.17v-1.11h3.48Zm-1.4-2.04c.04-.09,.09-.18,.16-.25,.06-.06,.14-.1,.24-.14,.1-.04,.2-.05,.32-.05,.16,0,.3,.04,.41,.1,.11,.07,.19,.16,.22,.28,.05,.12,.06,.23,.03,.34-.03,.11-.09,.2-.18,.28-.04,.13-.12,.23-.24,.31-.12,.07-.27,.1-.45,.07-.19-.02-.33-.09-.43-.21-.09-.12-.14-.27-.14-.44,0-.11,.02-.21,.06-.3Z"/><path class="cls-1" d="M109.7,82c.13-.25,.31-.44,.53-.58,.22-.14,.49-.21,.8-.22,.17,0,.33,.02,.46,.06s.25,.1,.36,.17c.08,.06,.15,.13,.21,.21,.06,.08,.11,.17,.15,.28,.06-.1,.12-.19,.2-.27,.08-.08,.16-.15,.25-.21,.11-.07,.24-.13,.38-.17,.14-.04,.29-.06,.46-.07,.22,0,.42,.03,.61,.1,.18,.07,.34,.17,.47,.31,.14,.15,.24,.35,.31,.59s.11,.53,.11,.86v4.93h-1.23v-4.93c0-.14-.02-.25-.05-.35-.03-.1-.08-.18-.13-.24-.06-.06-.13-.11-.22-.14-.09-.03-.18-.04-.29-.04-.12,0-.22,.02-.3,.05-.09,.03-.16,.07-.22,.13-.06,.05-.1,.12-.14,.19-.04,.07-.06,.15-.08,.23v5.12h-1.21v-4.94c0-.14-.01-.25-.04-.35-.03-.1-.07-.18-.13-.24s-.13-.11-.21-.13-.18-.04-.28-.04c-.12,0-.22,.01-.31,.04-.09,.03-.17,.07-.23,.12-.04,.04-.08,.09-.12,.15-.04,.06-.06,.11-.09,.18v5.22h-1.22v-6.68h1.15l.04,.68Z"/><path class="cls-1" d="M118.4,87.88c-.4-.16-.74-.39-1.03-.68-.29-.29-.51-.63-.67-1.02s-.24-.82-.24-1.28v-.25c0-.53,.08-1.01,.26-1.44s.4-.79,.69-1.08c.28-.3,.61-.52,.98-.69,.37-.16,.76-.24,1.17-.24,.48,0,.9,.08,1.27,.25s.67,.39,.92,.69c.25,.29,.43,.64,.55,1.04,.12,.4,.18,.84,.18,1.31v.57h-4.7v.04c.04,.31,.11,.57,.2,.8s.23,.42,.4,.59c.18,.18,.38,.32,.62,.43,.24,.1,.5,.15,.79,.15,.39,0,.74-.08,1.05-.23,.32-.15,.58-.37,.78-.63l.75,.65c-.22,.33-.56,.62-1.01,.88-.45,.26-1,.39-1.65,.39-.48,0-.92-.08-1.32-.24Zm.54-5.49c-.19,.08-.36,.2-.51,.35-.15,.15-.28,.34-.39,.56-.11,.22-.18,.47-.23,.75h3.37v-.08c0-.2-.04-.4-.11-.62-.08-.21-.18-.4-.31-.56-.13-.16-.3-.28-.5-.38-.2-.1-.44-.15-.71-.15-.22,0-.42,.04-.62,.12Z"/></g><g><path class="cls-1" d="M.9,143.01H3.05c.37,0,.72,.04,1.04,.12,.33,.08,.62,.19,.9,.33,.34,.16,.64,.38,.89,.63,.26,.26,.47,.55,.63,.88,.16,.31,.28,.65,.37,1.02s.13,.76,.13,1.18v.69c0,.4-.04,.78-.12,1.14-.08,.36-.19,.69-.34,.99-.15,.3-.34,.57-.56,.81-.22,.25-.47,.45-.74,.62-.29,.19-.62,.33-.99,.43s-.76,.15-1.18,.15H.9v-8.99Zm1.33,7.92h.85c.3,0,.57-.04,.81-.11,.24-.07,.46-.17,.66-.31,.2-.14,.38-.3,.53-.51s.28-.43,.37-.69c.08-.21,.14-.44,.18-.69,.04-.25,.06-.51,.07-.79v-.7c0-.27-.03-.53-.07-.78-.04-.25-.11-.48-.19-.7-.1-.27-.24-.52-.42-.73-.17-.22-.39-.39-.64-.53-.18-.1-.38-.18-.6-.24s-.46-.09-.73-.09h-.82v6.84Z"/><path class="cls-1" d="M10.44,151.88c-.4-.16-.74-.39-1.03-.68-.29-.29-.51-.63-.67-1.02s-.24-.82-.24-1.28v-.25c0-.53,.08-1.01,.26-1.44s.4-.79,.69-1.08c.28-.3,.61-.52,.98-.69,.37-.16,.76-.24,1.17-.24,.48,0,.9,.08,1.27,.25s.67,.39,.92,.69c.25,.29,.43,.64,.55,1.04,.12,.4,.18,.84,.18,1.31v.57h-4.7v.04c.04,.31,.11,.57,.2,.8s.23,.42,.4,.59c.18,.18,.38,.32,.62,.43,.24,.1,.5,.15,.79,.15,.39,0,.74-.08,1.05-.23,.32-.15,.58-.37,.78-.63l.75,.65c-.22,.33-.56,.62-1.01,.88-.45,.26-1,.39-1.65,.39-.48,0-.92-.08-1.32-.24Zm.54-5.49c-.19,.08-.36,.2-.51,.35-.15,.15-.28,.34-.39,.56-.11,.22-.18,.47-.23,.75h3.37v-.08c0-.2-.04-.4-.11-.62-.08-.21-.18-.4-.31-.56-.13-.16-.3-.28-.5-.38-.2-.1-.44-.15-.71-.15-.22,0-.42,.04-.62,.12Z"/><path class="cls-1" d="M22.13,149.6c-.04,.27-.11,.53-.19,.77-.11,.3-.25,.56-.42,.8-.17,.24-.38,.43-.62,.59-.18,.12-.38,.21-.6,.27-.22,.06-.46,.1-.73,.1-.28,0-.53-.03-.76-.1s-.44-.17-.62-.3c-.09-.06-.18-.13-.26-.21-.08-.08-.16-.16-.23-.26l-.06,.75h-1.19v-9.48h1.31v3.49c.09-.11,.19-.21,.3-.31,.11-.09,.22-.17,.35-.24,.16-.09,.34-.15,.53-.2s.4-.07,.62-.07c.29,0,.55,.04,.8,.11s.46,.18,.66,.32c.17,.13,.32,.28,.45,.45s.25,.37,.36,.59c.12,.26,.21,.56,.27,.89,.06,.33,.09,.67,.09,1.04v.13c0,.3-.02,.59-.06,.86Zm-1.28-1.58c-.02-.19-.06-.37-.11-.54-.07-.2-.15-.39-.26-.56-.11-.17-.24-.3-.4-.41-.12-.07-.24-.13-.38-.17s-.3-.06-.47-.06c-.2,0-.38,.03-.54,.08-.16,.05-.31,.13-.43,.22-.11,.08-.2,.18-.29,.29-.08,.11-.16,.23-.22,.35v2.85c.07,.14,.14,.26,.23,.37,.09,.11,.2,.21,.32,.3,.12,.09,.26,.16,.42,.21,.16,.05,.33,.07,.52,.07s.34-.02,.49-.06c.15-.04,.28-.11,.39-.19,.15-.11,.28-.24,.38-.41s.18-.35,.24-.56c.05-.16,.08-.33,.11-.51s.03-.37,.03-.56v-.13c0-.2-.01-.4-.03-.59Z"/><path class="cls-1" d="M24.06,147.26c.14-.41,.34-.77,.61-1.08,.26-.3,.58-.54,.96-.72,.38-.17,.81-.26,1.28-.26s.91,.09,1.29,.26,.71,.41,.97,.72c.26,.3,.46,.66,.6,1.08,.14,.41,.21,.86,.21,1.34v.14c0,.48-.07,.93-.21,1.34-.14,.41-.34,.77-.6,1.08-.27,.3-.59,.54-.97,.71-.38,.17-.81,.26-1.28,.26s-.91-.09-1.29-.26c-.38-.17-.7-.41-.97-.71-.27-.3-.47-.66-.61-1.08s-.21-.86-.21-1.34v-.14c0-.48,.07-.93,.21-1.34Zm1.21,2.37c.07,.28,.18,.53,.33,.74,.14,.22,.33,.39,.55,.51,.22,.12,.48,.19,.78,.19s.55-.06,.77-.19,.4-.29,.55-.51c.14-.21,.25-.46,.32-.74,.07-.28,.11-.58,.11-.9v-.14c0-.31-.04-.6-.11-.89-.07-.28-.18-.53-.32-.74-.15-.22-.33-.39-.55-.52-.22-.13-.48-.19-.78-.19s-.56,.06-.78,.19c-.22,.13-.4,.3-.54,.52-.15,.21-.26,.46-.33,.74-.07,.28-.11,.58-.11,.89v.14c0,.31,.04,.61,.11,.9Z"/><path class="cls-1" d="M36.17,151.07c-.22,.33-.5,.59-.83,.77s-.7,.28-1.12,.28c-.35,0-.67-.05-.95-.16-.29-.11-.53-.28-.73-.51-.2-.23-.36-.52-.47-.88-.11-.36-.17-.78-.17-1.29v-3.96h1.31v3.97c0,.34,.03,.62,.08,.84,.05,.22,.13,.4,.24,.53,.11,.14,.24,.23,.4,.29,.16,.06,.34,.08,.56,.08,.23,0,.44-.03,.63-.08,.19-.05,.35-.13,.48-.22,.12-.08,.22-.17,.3-.29,.09-.11,.16-.24,.22-.37v-4.76h1.31v6.68h-1.19l-.07-.93Z"/><path class="cls-1" d="M39.57,145.32h1.18l.09,.97c.09-.14,.2-.26,.31-.37,.11-.11,.23-.21,.35-.29,.2-.14,.41-.24,.65-.31,.23-.07,.48-.11,.74-.11,.35,0,.66,.05,.94,.15s.53,.25,.73,.46c.2,.21,.36,.48,.47,.81s.16,.72,.16,1.18v4.2h-1.31v-4.18c0-.29-.03-.53-.1-.73-.06-.2-.16-.35-.28-.47-.12-.12-.27-.21-.45-.26-.18-.05-.38-.08-.61-.08-.2,0-.38,.03-.55,.08-.17,.05-.32,.13-.46,.22-.12,.08-.22,.17-.32,.28s-.18,.22-.25,.35v4.78h-1.32v-6.68Z"/><path class="cls-1" d="M50.73,150.98c.18-.06,.34-.15,.48-.26,.14-.11,.26-.23,.34-.38,.08-.15,.13-.31,.13-.49h1.23c0,.31-.08,.6-.23,.88s-.35,.52-.61,.73c-.25,.21-.54,.37-.87,.49-.33,.12-.68,.18-1.04,.18-.51,0-.96-.09-1.34-.27s-.7-.42-.95-.73c-.26-.3-.45-.66-.58-1.06-.13-.4-.19-.83-.19-1.28v-.24c0-.45,.07-.88,.19-1.28,.13-.41,.32-.76,.58-1.07,.25-.3,.57-.55,.95-.73,.38-.18,.83-.27,1.34-.27,.4,0,.77,.06,1.1,.19,.34,.13,.63,.3,.87,.51,.24,.22,.43,.48,.57,.79,.14,.3,.21,.63,.2,.98h-1.23c0-.19-.04-.37-.12-.54-.08-.17-.18-.32-.32-.45-.14-.13-.3-.23-.48-.3s-.39-.11-.61-.11c-.33,0-.61,.07-.83,.2-.22,.13-.4,.31-.54,.52-.14,.22-.23,.46-.29,.73s-.09,.54-.09,.82v.24c0,.28,.03,.56,.09,.83,.06,.27,.15,.52,.29,.73,.13,.21,.31,.39,.53,.52,.22,.13,.5,.2,.84,.2,.19,0,.38-.03,.56-.09Z"/><path class="cls-1" d="M56.71,151.88c-.4-.16-.74-.39-1.03-.68-.29-.29-.51-.63-.67-1.02s-.24-.82-.24-1.28v-.25c0-.53,.08-1.01,.26-1.44s.4-.79,.69-1.08c.28-.3,.61-.52,.98-.69,.37-.16,.76-.24,1.17-.24,.48,0,.9,.08,1.27,.25s.67,.39,.92,.69c.25,.29,.43,.64,.55,1.04,.12,.4,.18,.84,.18,1.31v.57h-4.7v.04c.04,.31,.11,.57,.2,.8s.23,.42,.4,.59c.18,.18,.38,.32,.62,.43,.24,.1,.5,.15,.79,.15,.39,0,.74-.08,1.05-.23,.32-.15,.58-.37,.78-.63l.75,.65c-.22,.33-.56,.62-1.01,.88-.45,.26-1,.39-1.65,.39-.48,0-.92-.08-1.32-.24Zm.54-5.49c-.19,.08-.36,.2-.51,.35-.15,.15-.28,.34-.39,.56-.11,.22-.18,.47-.23,.75h3.37v-.08c0-.2-.04-.4-.11-.62-.08-.21-.18-.4-.31-.56-.13-.16-.3-.28-.5-.38-.2-.1-.44-.15-.71-.15-.22,0-.42,.04-.62,.12Z"/><path class="cls-1" d="M62.69,147.23c.12-.42,.3-.78,.53-1.08s.51-.53,.84-.7c.33-.17,.7-.25,1.11-.25,.38,0,.72,.07,1.01,.2,.29,.13,.54,.32,.76,.57v-3.44h1.31v9.48h-1.19l-.06-.7c-.22,.27-.48,.47-.78,.61-.3,.14-.65,.21-1.05,.21s-.77-.09-1.1-.26-.6-.41-.83-.71c-.23-.3-.41-.66-.53-1.08-.13-.41-.19-.86-.19-1.34v-.13c0-.5,.06-.96,.19-1.38Zm1.22,2.39c.06,.28,.16,.52,.3,.73,.13,.21,.3,.38,.51,.5,.21,.12,.46,.18,.76,.18,.36,0,.65-.08,.89-.24,.23-.16,.42-.38,.56-.65v-2.98c-.14-.26-.33-.47-.56-.63s-.53-.24-.88-.24c-.3,0-.55,.06-.76,.19s-.39,.29-.52,.5c-.14,.21-.24,.46-.3,.74-.06,.28-.1,.58-.1,.89v.13c0,.31,.03,.61,.1,.89Z"/><path class="cls-1" d="M79.84,151.88c-.4-.16-.74-.39-1.03-.68-.29-.29-.51-.63-.67-1.02s-.24-.82-.24-1.28v-.25c0-.53,.08-1.01,.26-1.44s.4-.79,.69-1.08c.28-.3,.61-.52,.98-.69,.37-.16,.76-.24,1.17-.24,.48,0,.9,.08,1.27,.25s.67,.39,.92,.69c.25,.29,.43,.64,.55,1.04,.12,.4,.18,.84,.18,1.31v.57h-4.7v.04c.04,.31,.11,.57,.2,.8s.23,.42,.4,.59c.18,.18,.38,.32,.62,.43,.24,.1,.5,.15,.79,.15,.39,0,.74-.08,1.05-.23,.32-.15,.58-.37,.78-.63l.75,.65c-.22,.33-.56,.62-1.01,.88-.45,.26-1,.39-1.65,.39-.48,0-.92-.08-1.32-.24Zm.54-5.49c-.19,.08-.36,.2-.51,.35-.15,.15-.28,.34-.39,.56-.11,.22-.18,.47-.23,.75h3.37v-.08c0-.2-.04-.4-.11-.62-.08-.21-.18-.4-.31-.56-.13-.16-.3-.28-.5-.38-.2-.1-.44-.15-.71-.15-.22,0-.42,.04-.62,.12Z"/><path class="cls-1" d="M85.38,145.32h1.35l1.79,4.94,.1,.43,.1-.43,1.75-4.94h1.35l-2.67,6.68h-1.09l-2.69-6.68Z"/><path class="cls-1" d="M95.26,151.88c-.4-.16-.74-.39-1.03-.68-.29-.29-.51-.63-.67-1.02s-.24-.82-.24-1.28v-.25c0-.53,.08-1.01,.26-1.44s.4-.79,.69-1.08c.28-.3,.61-.52,.98-.69,.37-.16,.76-.24,1.17-.24,.48,0,.9,.08,1.27,.25s.67,.39,.92,.69c.25,.29,.43,.64,.55,1.04,.12,.4,.18,.84,.18,1.31v.57h-4.7v.04c.04,.31,.11,.57,.2,.8s.23,.42,.4,.59c.18,.18,.38,.32,.62,.43,.24,.1,.5,.15,.79,.15,.39,0,.74-.08,1.05-.23,.32-.15,.58-.37,.78-.63l.75,.65c-.22,.33-.56,.62-1.01,.88-.45,.26-1,.39-1.65,.39-.48,0-.92-.08-1.32-.24Zm.54-5.49c-.19,.08-.36,.2-.51,.35-.15,.15-.28,.34-.39,.56-.11,.22-.18,.47-.23,.75h3.37v-.08c0-.2-.04-.4-.11-.62-.08-.21-.18-.4-.31-.56-.13-.16-.3-.28-.5-.38-.2-.1-.44-.15-.71-.15-.22,0-.42,.04-.62,.12Z"/><path class="cls-1" d="M101.26,145.32h1.18l.09,.97c.09-.14,.2-.26,.31-.37,.11-.11,.23-.21,.35-.29,.2-.14,.41-.24,.65-.31,.23-.07,.48-.11,.74-.11,.35,0,.66,.05,.94,.15s.53,.25,.73,.46c.2,.21,.36,.48,.47,.81s.16,.72,.16,1.18v4.2h-1.31v-4.18c0-.29-.03-.53-.1-.73-.06-.2-.16-.35-.28-.47-.12-.12-.27-.21-.45-.26-.18-.05-.38-.08-.61-.08-.2,0-.38,.03-.55,.08-.17,.05-.32,.13-.46,.22-.12,.08-.22,.17-.32,.28s-.18,.22-.25,.35v4.78h-1.32v-6.68Z"/><path class="cls-1" d="M111.81,145.32h2.53v.99h-2.53v3.41c0,.25,.03,.47,.1,.63,.06,.17,.15,.3,.26,.4,.11,.1,.24,.17,.39,.22s.31,.06,.48,.06c.13,0,.26,0,.39-.02,.13-.01,.26-.03,.39-.05,.12-.02,.24-.04,.35-.06,.11-.02,.2-.04,.27-.06l.17,.92c-.1,.06-.22,.12-.37,.16-.14,.05-.3,.08-.47,.11-.16,.03-.34,.06-.52,.07s-.37,.02-.55,.02c-.32,0-.61-.04-.88-.13s-.5-.23-.7-.42c-.2-.19-.35-.43-.46-.73s-.16-.66-.16-1.08v-3.46h-1.69v-.99h1.69v-1.62h1.31v1.62Z"/><path class="cls-1" d="M121.01,149.87c-.05-.1-.14-.19-.26-.28-.13-.08-.29-.16-.5-.23s-.47-.14-.77-.2c-.39-.08-.74-.17-1.06-.29-.32-.11-.59-.25-.81-.41-.23-.16-.4-.34-.53-.55-.12-.21-.19-.45-.19-.73s.06-.53,.19-.77,.31-.45,.55-.63c.23-.18,.52-.32,.85-.43s.69-.16,1.09-.16c.43,0,.81,.05,1.15,.16,.34,.11,.63,.26,.87,.44,.24,.19,.42,.42,.55,.67,.13,.26,.19,.53,.19,.83h-1.31c0-.13-.03-.26-.1-.39s-.15-.24-.27-.34c-.12-.1-.28-.19-.46-.25-.18-.07-.39-.1-.63-.1s-.43,.02-.61,.07-.32,.12-.43,.2c-.12,.09-.2,.18-.26,.29-.06,.11-.09,.22-.09,.34s.02,.23,.07,.33c.05,.1,.13,.18,.25,.26,.12,.08,.27,.15,.47,.21,.2,.06,.45,.12,.75,.18,.41,.08,.78,.18,1.11,.29,.33,.11,.61,.24,.84,.4,.24,.16,.41,.35,.54,.56,.12,.22,.19,.47,.19,.76s-.07,.57-.2,.81c-.14,.25-.33,.46-.57,.63-.24,.17-.54,.31-.88,.4s-.72,.15-1.14,.15c-.46,0-.88-.06-1.24-.19-.36-.12-.67-.29-.92-.49-.25-.2-.44-.44-.57-.7-.13-.27-.19-.54-.19-.82h1.28c.02,.22,.08,.4,.18,.56,.1,.15,.23,.28,.39,.37,.16,.09,.33,.16,.52,.2,.19,.04,.38,.06,.57,.06,.28,0,.52-.03,.73-.1,.21-.06,.37-.15,.49-.26,.09-.07,.15-.16,.19-.25,.04-.09,.07-.19,.07-.3,0-.13-.03-.24-.08-.34Z"/></g><g><path class="cls-1" d="M4.44,208.12v7.88h-1.29v-7.88H.38v-1.1H7.21v1.1h-2.78Z"/><path class="cls-1" d="M10.33,209.93c.11-.11,.23-.21,.35-.3,.19-.14,.4-.25,.63-.32,.23-.07,.47-.11,.73-.11,.35,0,.67,.05,.96,.15,.29,.1,.53,.26,.73,.48,.21,.22,.36,.49,.48,.83,.11,.33,.17,.73,.17,1.19v4.15h-1.31v-4.17c0-.26-.03-.48-.09-.68s-.15-.35-.27-.47c-.12-.14-.28-.24-.46-.3-.18-.07-.39-.1-.63-.09-.19,0-.37,.02-.54,.07s-.33,.12-.47,.21c-.12,.07-.22,.16-.32,.26-.1,.1-.19,.21-.27,.32v4.84h-1.31v-9.48h1.31v3.78c.09-.14,.19-.26,.3-.37Z"/><path class="cls-1" d="M21.61,209.25c.22,.03,.4,.07,.52,.11l-.19,1.29c-.22-.05-.44-.09-.65-.11-.21-.02-.42-.04-.64-.04-.26,0-.5,.03-.71,.09s-.4,.15-.56,.26c-.16,.11-.29,.25-.41,.4-.12,.16-.21,.34-.28,.54v4.2h-1.32v-6.68h1.23l.06,.91v.16c.28-.37,.6-.66,.98-.87,.38-.21,.81-.32,1.28-.32,.23,0,.45,.02,.68,.05Z"/><path class="cls-1" d="M24.06,211.26c.14-.41,.34-.77,.61-1.08,.26-.3,.58-.54,.96-.72,.38-.17,.81-.26,1.28-.26s.91,.09,1.29,.26,.71,.41,.97,.72c.26,.3,.46,.66,.6,1.08,.14,.41,.21,.86,.21,1.34v.14c0,.48-.07,.93-.21,1.34-.14,.41-.34,.77-.6,1.08-.27,.3-.59,.54-.97,.71-.38,.17-.81,.26-1.28,.26s-.91-.09-1.29-.26c-.38-.17-.7-.41-.97-.71-.27-.3-.47-.66-.61-1.08s-.21-.86-.21-1.34v-.14c0-.48,.07-.93,.21-1.34Zm1.21,2.37c.07,.28,.18,.53,.33,.74,.14,.22,.33,.39,.55,.51,.22,.12,.48,.19,.78,.19s.55-.06,.77-.19,.4-.29,.55-.51c.14-.21,.25-.46,.32-.74,.07-.28,.11-.58,.11-.9v-.14c0-.31-.04-.6-.11-.89-.07-.28-.18-.53-.32-.74-.15-.22-.33-.39-.55-.52-.22-.13-.48-.19-.78-.19s-.56,.06-.78,.19c-.22,.13-.4,.3-.54,.52-.15,.21-.26,.46-.33,.74-.07,.28-.11,.58-.11,.89v.14c0,.31,.04,.61,.11,.9Z"/><path class="cls-1" d="M34.69,209.32h2.53v.99h-2.53v3.41c0,.25,.03,.47,.1,.63,.06,.17,.15,.3,.26,.4,.11,.1,.24,.17,.39,.22s.31,.06,.48,.06c.13,0,.26,0,.39-.02,.13-.01,.26-.03,.39-.05,.12-.02,.24-.04,.35-.06,.11-.02,.2-.04,.27-.06l.17,.92c-.1,.06-.22,.12-.37,.16-.14,.05-.3,.08-.47,.11-.16,.03-.34,.06-.52,.07s-.37,.02-.55,.02c-.32,0-.61-.04-.88-.13s-.5-.23-.7-.42c-.2-.19-.35-.43-.46-.73s-.16-.66-.16-1.08v-3.46h-1.69v-.99h1.69v-1.62h1.31v1.62Z"/><path class="cls-1" d="M42.4,209.32h2.53v.99h-2.53v3.41c0,.25,.03,.47,.1,.63,.06,.17,.15,.3,.26,.4,.11,.1,.24,.17,.39,.22s.31,.06,.48,.06c.13,0,.26,0,.39-.02,.13-.01,.26-.03,.39-.05,.12-.02,.24-.04,.35-.06,.11-.02,.2-.04,.27-.06l.17,.92c-.1,.06-.22,.12-.37,.16-.14,.05-.3,.08-.47,.11-.16,.03-.34,.06-.52,.07s-.37,.02-.55,.02c-.32,0-.61-.04-.88-.13s-.5-.23-.7-.42c-.2-.19-.35-.43-.46-.73s-.16-.66-.16-1.08v-3.46h-1.69v-.99h1.69v-1.62h1.31v1.62Z"/><path class="cls-1" d="M51.02,206.52v8.38h2.1v1.1h-5.6v-1.1h2.19v-7.26h-2.19v-1.11h3.5Z"/><path class="cls-1" d="M56.71,215.88c-.4-.16-.74-.39-1.03-.68-.29-.29-.51-.63-.67-1.02s-.24-.82-.24-1.28v-.25c0-.53,.08-1.01,.26-1.44s.4-.79,.69-1.08c.28-.3,.61-.52,.98-.69,.37-.16,.76-.24,1.17-.24,.48,0,.9,.08,1.27,.25s.67,.39,.92,.69c.25,.29,.43,.64,.55,1.04,.12,.4,.18,.84,.18,1.31v.57h-4.7v.04c.04,.31,.11,.57,.2,.8s.23,.42,.4,.59c.18,.18,.38,.32,.62,.43,.24,.1,.5,.15,.79,.15,.39,0,.74-.08,1.05-.23,.32-.15,.58-.37,.78-.63l.75,.65c-.22,.33-.56,.62-1.01,.88-.45,.26-1,.39-1.65,.39-.48,0-.92-.08-1.32-.24Zm.54-5.49c-.19,.08-.36,.2-.51,.35-.15,.15-.28,.34-.39,.56-.11,.22-.18,.47-.23,.75h3.37v-.08c0-.2-.04-.4-.11-.62-.08-.21-.18-.4-.31-.56-.13-.16-.3-.28-.5-.38-.2-.1-.44-.15-.71-.15-.22,0-.42,.04-.62,.12Z"/><path class="cls-1" d="M62.69,211.23c.12-.42,.3-.78,.53-1.08s.51-.53,.84-.7c.33-.17,.7-.25,1.11-.25,.38,0,.72,.07,1.01,.2,.29,.13,.54,.32,.76,.57v-3.44h1.31v9.48h-1.19l-.06-.7c-.22,.27-.48,.47-.78,.61-.3,.14-.65,.21-1.05,.21s-.77-.09-1.1-.26-.6-.41-.83-.71c-.23-.3-.41-.66-.53-1.08-.13-.41-.19-.86-.19-1.34v-.13c0-.5,.06-.96,.19-1.38Zm1.22,2.39c.06,.28,.16,.52,.3,.73,.13,.21,.3,.38,.51,.5,.21,.12,.46,.18,.76,.18,.36,0,.65-.08,.89-.24,.23-.16,.42-.38,.56-.65v-2.98c-.14-.26-.33-.47-.56-.63s-.53-.24-.88-.24c-.3,0-.55,.06-.76,.19s-.39,.29-.52,.5c-.14,.21-.24,.46-.3,.74-.06,.28-.1,.58-.1,.89v.13c0,.31,.03,.61,.1,.89Z"/><path class="cls-1" d="M79.84,215.88c-.4-.16-.74-.39-1.03-.68-.29-.29-.51-.63-.67-1.02s-.24-.82-.24-1.28v-.25c0-.53,.08-1.01,.26-1.44s.4-.79,.69-1.08c.28-.3,.61-.52,.98-.69,.37-.16,.76-.24,1.17-.24,.48,0,.9,.08,1.27,.25s.67,.39,.92,.69c.25,.29,.43,.64,.55,1.04,.12,.4,.18,.84,.18,1.31v.57h-4.7v.04c.04,.31,.11,.57,.2,.8s.23,.42,.4,.59c.18,.18,.38,.32,.62,.43,.24,.1,.5,.15,.79,.15,.39,0,.74-.08,1.05-.23,.32-.15,.58-.37,.78-.63l.75,.65c-.22,.33-.56,.62-1.01,.88-.45,.26-1,.39-1.65,.39-.48,0-.92-.08-1.32-.24Zm.54-5.49c-.19,.08-.36,.2-.51,.35-.15,.15-.28,.34-.39,.56-.11,.22-.18,.47-.23,.75h3.37v-.08c0-.2-.04-.4-.11-.62-.08-.21-.18-.4-.31-.56-.13-.16-.3-.28-.5-.38-.2-.1-.44-.15-.71-.15-.22,0-.42,.04-.62,.12Z"/><path class="cls-1" d="M85.38,209.32h1.35l1.79,4.94,.1,.43,.1-.43,1.75-4.94h1.35l-2.67,6.68h-1.09l-2.69-6.68Z"/><path class="cls-1" d="M95.26,215.88c-.4-.16-.74-.39-1.03-.68-.29-.29-.51-.63-.67-1.02s-.24-.82-.24-1.28v-.25c0-.53,.08-1.01,.26-1.44s.4-.79,.69-1.08c.28-.3,.61-.52,.98-.69,.37-.16,.76-.24,1.17-.24,.48,0,.9,.08,1.27,.25s.67,.39,.92,.69c.25,.29,.43,.64,.55,1.04,.12,.4,.18,.84,.18,1.31v.57h-4.7v.04c.04,.31,.11,.57,.2,.8s.23,.42,.4,.59c.18,.18,.38,.32,.62,.43,.24,.1,.5,.15,.79,.15,.39,0,.74-.08,1.05-.23,.32-.15,.58-.37,.78-.63l.75,.65c-.22,.33-.56,.62-1.01,.88-.45,.26-1,.39-1.65,.39-.48,0-.92-.08-1.32-.24Zm.54-5.49c-.19,.08-.36,.2-.51,.35-.15,.15-.28,.34-.39,.56-.11,.22-.18,.47-.23,.75h3.37v-.08c0-.2-.04-.4-.11-.62-.08-.21-.18-.4-.31-.56-.13-.16-.3-.28-.5-.38-.2-.1-.44-.15-.71-.15-.22,0-.42,.04-.62,.12Z"/><path class="cls-1" d="M101.26,209.32h1.18l.09,.97c.09-.14,.2-.26,.31-.37,.11-.11,.23-.21,.35-.29,.2-.14,.41-.24,.65-.31,.23-.07,.48-.11,.74-.11,.35,0,.66,.05,.94,.15s.53,.25,.73,.46c.2,.21,.36,.48,.47,.81s.16,.72,.16,1.18v4.2h-1.31v-4.18c0-.29-.03-.53-.1-.73-.06-.2-.16-.35-.28-.47-.12-.12-.27-.21-.45-.26-.18-.05-.38-.08-.61-.08-.2,0-.38,.03-.55,.08-.17,.05-.32,.13-.46,.22-.12,.08-.22,.17-.32,.28s-.18,.22-.25,.35v4.78h-1.32v-6.68Z"/><path class="cls-1" d="M111.81,209.32h2.53v.99h-2.53v3.41c0,.25,.03,.47,.1,.63,.06,.17,.15,.3,.26,.4,.11,.1,.24,.17,.39,.22s.31,.06,.48,.06c.13,0,.26,0,.39-.02,.13-.01,.26-.03,.39-.05,.12-.02,.24-.04,.35-.06,.11-.02,.2-.04,.27-.06l.17,.92c-.1,.06-.22,.12-.37,.16-.14,.05-.3,.08-.47,.11-.16,.03-.34,.06-.52,.07s-.37,.02-.55,.02c-.32,0-.61-.04-.88-.13s-.5-.23-.7-.42c-.2-.19-.35-.43-.46-.73s-.16-.66-.16-1.08v-3.46h-1.69v-.99h1.69v-1.62h1.31v1.62Z"/><path class="cls-1" d="M121.01,213.87c-.05-.1-.14-.19-.26-.28-.13-.08-.29-.16-.5-.23s-.47-.14-.77-.2c-.39-.08-.74-.17-1.06-.29-.32-.11-.59-.25-.81-.41-.23-.16-.4-.34-.53-.55-.12-.21-.19-.45-.19-.73s.06-.53,.19-.77,.31-.45,.55-.63c.23-.18,.52-.32,.85-.43s.69-.16,1.09-.16c.43,0,.81,.05,1.15,.16,.34,.11,.63,.26,.87,.44,.24,.19,.42,.42,.55,.67,.13,.26,.19,.53,.19,.83h-1.31c0-.13-.03-.26-.1-.39s-.15-.24-.27-.34c-.12-.1-.28-.19-.46-.25-.18-.07-.39-.1-.63-.1s-.43,.02-.61,.07-.32,.12-.43,.2c-.12,.09-.2,.18-.26,.29-.06,.11-.09,.22-.09,.34s.02,.23,.07,.33c.05,.1,.13,.18,.25,.26,.12,.08,.27,.15,.47,.21,.2,.06,.45,.12,.75,.18,.41,.08,.78,.18,1.11,.29,.33,.11,.61,.24,.84,.4,.24,.16,.41,.35,.54,.56,.12,.22,.19,.47,.19,.76s-.07,.57-.2,.81c-.14,.25-.33,.46-.57,.63-.24,.17-.54,.31-.88,.4s-.72,.15-1.14,.15c-.46,0-.88-.06-1.24-.19-.36-.12-.67-.29-.92-.49-.25-.2-.44-.44-.57-.7-.13-.27-.19-.54-.19-.82h1.28c.02,.22,.08,.4,.18,.56,.1,.15,.23,.28,.39,.37,.16,.09,.33,.16,.52,.2,.19,.04,.38,.06,.57,.06,.28,0,.52-.03,.73-.1,.21-.06,.37-.15,.49-.26,.09-.07,.15-.16,.19-.25,.04-.09,.07-.19,.07-.3,0-.13-.03-.24-.08-.34Z"/></g><rect class="cls-1" y="96" width="4" height="16"/><rect class="cls-1" y="224" width="4" height="16"/><rect class="cls-1" x="32" y="224" width="4" height="16"/><rect class="cls-1" x="64" y="224" width="4" height="16"/><rect class="cls-1" x="64" y="224" width="4" height="16"/><rect class="cls-1" x="96" y="224" width="4" height="16"/><rect class="cls-1" x="192" y="224" width="4" height="16"/><rect class="cls-1" x="224" y="224" width="4" height="16"/><rect class="cls-1" x="256" y="224" width="4" height="16"/><rect class="cls-1" x="8" y="96" width="4" height="16"/><rect class="cls-1" x="16" y="96" width="4" height="16"/><rect class="cls-1" x="24" y="96" width="4" height="16"/><rect class="cls-1" x="32" y="96" width="4" height="16"/><rect class="cls-1" x="40" y="96" width="4" height="16"/><rect class="cls-1" x="48" y="96" width="4" height="16"/><rect class="cls-1" x="56" y="96" width="4" height="16"/><rect class="cls-1" x="64" y="96" width="4" height="16"/><rect class="cls-1" x="72" y="96" width="4" height="16"/><rect class="cls-1" x="80" y="96" width="4" height="16"/><rect class="cls-1" x="88" y="96" width="4" height="16"/><rect class="cls-1" x="96" y="96" width="4" height="16"/><rect class="cls-1" x="104" y="96" width="4" height="16"/><rect class="cls-1" x="112" y="96" width="4" height="16"/><path class="cls-1" d="M123,97v14h-2v-14h2m1-1h-4v16h4v-16h0Z"/><path class="cls-1" d="M131,97v14h-2v-14h2m1-1h-4v16h4v-16h0Z"/><path class="cls-1" d="M139,97v14h-2v-14h2m1-1h-4v16h4v-16h0Z"/><path class="cls-1" d="M147,97v14h-2v-14h2m1-1h-4v16h4v-16h0Z"/><path class="cls-1" d="M155,97v14h-2v-14h2m1-1h-4v16h4v-16h0Z"/><path class="cls-1" d="M163,97v14h-2v-14h2m1-1h-4v16h4v-16h0Z"/><path class="cls-1" d="M171,97v14h-2v-14h2m1-1h-4v16h4v-16h0Z"/><path class="cls-1" d="M179,97v14h-2v-14h2m1-1h-4v16h4v-16h0Z"/><path class="cls-1" d="M187,97v14h-2v-14h2m1-1h-4v16h4v-16h0Z"/><path class="cls-1" d="M91,161v14h-2v-14h2m1-1h-4v16h4v-16h0Z"/><path class="cls-1" d="M99,161v14h-2v-14h2m1-1h-4v16h4v-16h0Z"/><path class="cls-1" d="M107,161v14h-2v-14h2m1-1h-4v16h4v-16h0Z"/><path class="cls-1" d="M115,161v14h-2v-14h2m1-1h-4v16h4v-16h0Z"/><path class="cls-1" d="M123,161v14h-2v-14h2m1-1h-4v16h4v-16h0Z"/><path class="cls-1" d="M131,161v14h-2v-14h2m1-1h-4v16h4v-16h0Z"/><path class="cls-1" d="M43,161v14h-2v-14h2m1-1h-4v16h4v-16h0Z"/><path class="cls-1" d="M51,161v14h-2v-14h2m1-1h-4v16h4v-16h0Z"/><path class="cls-1" d="M59,161v14h-2v-14h2m1-1h-4v16h4v-16h0Z"/><path class="cls-1" d="M67,161v14h-2v-14h2m1-1h-4v16h4v-16h0Z"/><path class="cls-1" d="M75,161v14h-2v-14h2m1-1h-4v16h4v-16h0Z"/><path class="cls-1" d="M3,161v14H1v-14H3m1-1H0v16H4v-16h0Z"/><path class="cls-1" d="M11,161v14h-2v-14h2m1-1h-4v16h4v-16h0Z"/><path class="cls-1" d="M19,161v14h-2v-14h2m1-1h-4v16h4v-16h0Z"/><path class="cls-1" d="M27,161v14h-2v-14h2m1-1h-4v16h4v-16h0Z"/><path class="cls-1" d="M35,161v14h-2v-14h2m1-1h-4v16h4v-16h0Z"/><path class="cls-1" d="M83,161v14h-2v-14h2m1-1h-4v16h4v-16h0Z"/><path class="cls-1" d="M235,161v14h-2v-14h2m1-1h-4v16h4v-16h0Z"/><path class="cls-1" d="M243,161v14h-2v-14h2m1-1h-4v16h4v-16h0Z"/><path class="cls-1" d="M251,161v14h-2v-14h2m1-1h-4v16h4v-16h0Z"/><path class="cls-1" d="M259,161v14h-2v-14h2m1-1h-4v16h4v-16h0Z"/><path class="cls-1" d="M267,161v14h-2v-14h2m1-1h-4v16h4v-16h0Z"/><path class="cls-1" d="M275,161v14h-2v-14h2m1-1h-4v16h4v-16h0Z"/><path class="cls-1" d="M187,161v14h-2v-14h2m1-1h-4v16h4v-16h0Z"/><path class="cls-1" d="M195,161v14h-2v-14h2m1-1h-4v16h4v-16h0Z"/><path class="cls-1" d="M203,161v14h-2v-14h2m1-1h-4v16h4v-16h0Z"/><path class="cls-1" d="M211,161v14h-2v-14h2m1-1h-4v16h4v-16h0Z"/><path class="cls-1" d="M219,161v14h-2v-14h2m1-1h-4v16h4v-16h0Z"/><path class="cls-1" d="M147,161v14h-2v-14h2m1-1h-4v16h4v-16h0Z"/><path class="cls-1" d="M155,161v14h-2v-14h2m1-1h-4v16h4v-16h0Z"/><path class="cls-1" d="M163,161v14h-2v-14h2m1-1h-4v16h4v-16h0Z"/><path class="cls-1" d="M171,161v14h-2v-14h2m1-1h-4v16h4v-16h0Z"/><path class="cls-1" d="M179,161v14h-2v-14h2m1-1h-4v16h4v-16h0Z"/><path class="cls-1" d="M227,161v14h-2v-14h2m1-1h-4v16h4v-16h0Z"/><path class="cls-1" d="M323,161v14h-2v-14h2m1-1h-4v16h4v-16h0Z"/><path class="cls-1" d="M331,161v14h-2v-14h2m1-1h-4v16h4v-16h0Z"/><path class="cls-1" d="M339,161v14h-2v-14h2m1-1h-4v16h4v-16h0Z"/><path class="cls-1" d="M283,161v14h-2v-14h2m1-1h-4v16h4v-16h0Z"/><path class="cls-1" d="M291,161v14h-2v-14h2m1-1h-4v16h4v-16h0Z"/><path class="cls-1" d="M299,161v14h-2v-14h2m1-1h-4v16h4v-16h0Z"/><path class="cls-1" d="M307,161v14h-2v-14h2m1-1h-4v16h4v-16h0Z"/><path class="cls-1" d="M291,97v14h-2v-14h2m1-1h-4v16h4v-16h0Z"/><path class="cls-1" d="M299,97v14h-2v-14h2m1-1h-4v16h4v-16h0Z"/><path class="cls-1" d="M307,97v14h-2v-14h2m1-1h-4v16h4v-16h0Z"/><path class="cls-1" d="M315,97v14h-2v-14h2m1-1h-4v16h4v-16h0Z"/><path class="cls-1" d="M323,97v14h-2v-14h2m1-1h-4v16h4v-16h0Z"/><path class="cls-1" d="M331,97v14h-2v-14h2m1-1h-4v16h4v-16h0Z"/><path class="cls-1" d="M339,97v14h-2v-14h2m1-1h-4v16h4v-16h0Z"/><rect class="cls-1" x="136" y="160" width="4" height="16"/><rect class="cls-1" x="192" y="96" width="4" height="16"/><rect class="cls-1" x="200" y="96" width="4" height="16"/><rect class="cls-1" x="208" y="96" width="4" height="16"/><rect class="cls-1" x="216" y="96" width="4" height="16"/><rect class="cls-1" x="224" y="96" width="4" height="16"/><rect class="cls-1" x="232" y="96" width="4" height="16"/><rect class="cls-1" x="240" y="96" width="4" height="16"/><rect class="cls-1" x="248" y="96" width="4" height="16"/><rect class="cls-1" x="256" y="96" width="4" height="16"/><rect class="cls-1" x="264" y="96" width="4" height="16"/><rect class="cls-1" x="272" y="96" width="4" height="16"/><rect class="cls-1" x="280" y="96" width="4" height="16"/><rect class="cls-1" x="312" y="160" width="4" height="16"/><path class="cls-1" d="M91,225v14h-2v-14h2m1-1h-4v16h4v-16h0Z"/><path class="cls-1" d="M99,225v14h-2v-14h2m1-1h-4v16h4v-16h0Z"/><path class="cls-1" d="M107,225v14h-2v-14h2m1-1h-4v16h4v-16h0Z"/><path class="cls-1" d="M115,225v14h-2v-14h2m1-1h-4v16h4v-16h0Z"/><path class="cls-1" d="M123,225v14h-2v-14h2m1-1h-4v16h4v-16h0Z"/><path class="cls-1" d="M131,225v14h-2v-14h2m1-1h-4v16h4v-16h0Z"/><path class="cls-1" d="M139,225v14h-2v-14h2m1-1h-4v16h4v-16h0Z"/><path class="cls-1" d="M43,225v14h-2v-14h2m1-1h-4v16h4v-16h0Z"/><path class="cls-1" d="M51,225v14h-2v-14h2m1-1h-4v16h4v-16h0Z"/><path class="cls-1" d="M59,225v14h-2v-14h2m1-1h-4v16h4v-16h0Z"/><path class="cls-1" d="M67,225v14h-2v-14h2m1-1h-4v16h4v-16h0Z"/><path class="cls-1" d="M75,225v14h-2v-14h2m1-1h-4v16h4v-16h0Z"/><path class="cls-1" d="M3,225v14H1v-14H3m1-1H0v16H4v-16h0Z"/><path class="cls-1" d="M11,225v14h-2v-14h2m1-1h-4v16h4v-16h0Z"/><path class="cls-1" d="M19,225v14h-2v-14h2m1-1h-4v16h4v-16h0Z"/><path class="cls-1" d="M27,225v14h-2v-14h2m1-1h-4v16h4v-16h0Z"/><path class="cls-1" d="M35,225v14h-2v-14h2m1-1h-4v16h4v-16h0Z"/><path class="cls-1" d="M83,225v14h-2v-14h2m1-1h-4v16h4v-16h0Z"/><path class="cls-1" d="M235,225v14h-2v-14h2m1-1h-4v16h4v-16h0Z"/><path class="cls-1" d="M243,225v14h-2v-14h2m1-1h-4v16h4v-16h0Z"/><path class="cls-1" d="M251,225v14h-2v-14h2m1-1h-4v16h4v-16h0Z"/><path class="cls-1" d="M259,225v14h-2v-14h2m1-1h-4v16h4v-16h0Z"/><path class="cls-1" d="M267,225v14h-2v-14h2m1-1h-4v16h4v-16h0Z"/><path class="cls-1" d="M275,225v14h-2v-14h2m1-1h-4v16h4v-16h0Z"/><path class="cls-1" d="M187,225v14h-2v-14h2m1-1h-4v16h4v-16h0Z"/><path class="cls-1" d="M195,225v14h-2v-14h2m1-1h-4v16h4v-16h0Z"/><path class="cls-1" d="M203,225v14h-2v-14h2m1-1h-4v16h4v-16h0Z"/><path class="cls-1" d="M211,225v14h-2v-14h2m1-1h-4v16h4v-16h0Z"/><path class="cls-1" d="M219,225v14h-2v-14h2m1-1h-4v16h4v-16h0Z"/><path class="cls-1" d="M147,225v14h-2v-14h2m1-1h-4v16h4v-16h0Z"/><path class="cls-1" d="M155,225v14h-2v-14h2m1-1h-4v16h4v-16h0Z"/><path class="cls-1" d="M163,225v14h-2v-14h2m1-1h-4v16h4v-16h0Z"/><path class="cls-1" d="M171,225v14h-2v-14h2m1-1h-4v16h4v-16h0Z"/><path class="cls-1" d="M179,225v14h-2v-14h2m1-1h-4v16h4v-16h0Z"/><path class="cls-1" d="M227,225v14h-2v-14h2m1-1h-4v16h4v-16h0Z"/><path class="cls-1" d="M323,225v14h-2v-14h2m1-1h-4v16h4v-16h0Z"/><path class="cls-1" d="M331,225v14h-2v-14h2m1-1h-4v16h4v-16h0Z"/><path class="cls-1" d="M339,225v14h-2v-14h2m1-1h-4v16h4v-16h0Z"/><path class="cls-1" d="M283,225v14h-2v-14h2m1-1h-4v16h4v-16h0Z"/><path class="cls-1" d="M291,225v14h-2v-14h2m1-1h-4v16h4v-16h0Z"/><path class="cls-1" d="M299,225v14h-2v-14h2m1-1h-4v16h4v-16h0Z"/><path class="cls-1" d="M307,225v14h-2v-14h2m1-1h-4v16h4v-16h0Z"/><path class="cls-1" d="M315,225v14h-2v-14h2m1-1h-4v16h4v-16h0Z"/></g></svg>