<svg width="2621" height="1367" viewBox="0 0 2621 1367" fill="none" xmlns="http://www.w3.org/2000/svg">
<rect width="2621" height="1367" fill="white"/>
<line x1="810.464" y1="239.886" x2="390.464" y2="459.886" stroke="#406CBF" stroke-width="2"/>
<line x1="810.464" y1="238.114" x2="1230.46" y2="458.114" stroke="#406CBF" stroke-width="2"/>
<line x1="169.176" y1="778.433" x2="389.176" y2="458.434" stroke="#406CBF" stroke-width="2"/>
<line x1="609.176" y1="779.567" x2="389.176" y2="459.567" stroke="#406CBF" stroke-width="2"/>
<line x1="1230.82" y1="459.567" x2="1010.82" y2="779.567" stroke="#406CBF" stroke-width="2"/>
<line x1="1010.94" y1="779.351" x2="890.936" y2="1099.35" stroke="#406CBF" stroke-width="2"/>
<line x1="610.936" y1="779.351" x2="490.936" y2="1099.35" stroke="#406CBF" stroke-width="2"/>
<circle cx="810" cy="239" r="78" fill="#E8F7F8" stroke="#406CBF" stroke-width="4"/>
<path d="M814.812 261H809V222.469L797.344 226.75V221.5L813.906 215.281H814.812V261Z" fill="#406CBF"/>
<circle cx="1230" cy="459" r="78" fill="#E8F7F8" stroke="#406CBF" stroke-width="4"/>
<path d="M1224.22 455.438H1228.56C1231.29 455.396 1233.44 454.677 1235 453.281C1236.56 451.885 1237.34 450 1237.34 447.625C1237.34 442.292 1234.69 439.625 1229.38 439.625C1226.88 439.625 1224.88 440.344 1223.38 441.781C1221.9 443.198 1221.16 445.083 1221.16 447.438H1215.38C1215.38 443.833 1216.69 440.844 1219.31 438.469C1221.96 436.073 1225.31 434.875 1229.38 434.875C1233.67 434.875 1237.03 436.01 1239.47 438.281C1241.91 440.552 1243.12 443.708 1243.12 447.75C1243.12 449.729 1242.48 451.646 1241.19 453.5C1239.92 455.354 1238.18 456.74 1235.97 457.656C1238.47 458.448 1240.4 459.76 1241.75 461.594C1243.12 463.427 1243.81 465.667 1243.81 468.312C1243.81 472.396 1242.48 475.635 1239.81 478.031C1237.15 480.427 1233.68 481.625 1229.41 481.625C1225.14 481.625 1221.66 480.469 1218.97 478.156C1216.3 475.844 1214.97 472.792 1214.97 469H1220.78C1220.78 471.396 1221.56 473.312 1223.12 474.75C1224.69 476.188 1226.78 476.906 1229.41 476.906C1232.2 476.906 1234.33 476.177 1235.81 474.719C1237.29 473.26 1238.03 471.167 1238.03 468.438C1238.03 465.792 1237.22 463.76 1235.59 462.344C1233.97 460.927 1231.62 460.198 1228.56 460.156H1224.22V455.438Z" fill="#406CBF"/>
<circle cx="390" cy="459" r="78" fill="#E8F7F8" stroke="#406CBF" stroke-width="4"/>
<path d="M405.625 481H375.812V476.844L391.562 459.344C393.896 456.698 395.5 454.552 396.375 452.906C397.271 451.24 397.719 449.521 397.719 447.75C397.719 445.375 397 443.427 395.562 441.906C394.125 440.385 392.208 439.625 389.812 439.625C386.938 439.625 384.698 440.448 383.094 442.094C381.51 443.719 380.719 445.99 380.719 448.906H374.938C374.938 444.719 376.281 441.333 378.969 438.75C381.677 436.167 385.292 434.875 389.812 434.875C394.042 434.875 397.385 435.99 399.844 438.219C402.302 440.427 403.531 443.375 403.531 447.062C403.531 451.542 400.677 456.875 394.969 463.062L382.781 476.281H405.625V481Z" fill="#406CBF"/>
<circle cx="170" cy="779" r="78" fill="#E8F7F8" stroke="#406CBF" stroke-width="4"/>
<path d="M180.219 785.719H186.531V790.438H180.219V801H174.406V790.438H153.688V787.031L174.062 755.5H180.219V785.719ZM160.25 785.719H174.406V763.406L173.719 764.656L160.25 785.719Z" fill="#406CBF"/>
<circle cx="610" cy="779" r="78" fill="#E8F7F8" stroke="#406CBF" stroke-width="4"/>
<path d="M598.469 778.188L600.781 755.5H624.094V760.844H605.688L604.312 773.25C606.542 771.938 609.073 771.281 611.906 771.281C616.052 771.281 619.344 772.656 621.781 775.406C624.219 778.135 625.438 781.833 625.438 786.5C625.438 791.188 624.167 794.885 621.625 797.594C619.104 800.281 615.573 801.625 611.031 801.625C607.01 801.625 603.729 800.51 601.188 798.281C598.646 796.052 597.198 792.969 596.844 789.031H602.312C602.667 791.635 603.594 793.604 605.094 794.938C606.594 796.25 608.573 796.906 611.031 796.906C613.719 796.906 615.823 795.99 617.344 794.156C618.885 792.323 619.656 789.792 619.656 786.562C619.656 783.521 618.823 781.083 617.156 779.25C615.51 777.396 613.312 776.469 610.562 776.469C608.042 776.469 606.062 777.021 604.625 778.125L603.094 779.375L598.469 778.188Z" fill="#406CBF"/>
<circle cx="1010" cy="779" r="78" fill="#E8F7F8" stroke="#406CBF" stroke-width="4"/>
<path d="M1018.5 755.469V760.375H1017.44C1012.94 760.458 1009.35 761.792 1006.69 764.375C1004.02 766.958 1002.48 770.594 1002.06 775.281C1004.46 772.531 1007.73 771.156 1011.88 771.156C1015.83 771.156 1018.99 772.552 1021.34 775.344C1023.72 778.135 1024.91 781.74 1024.91 786.156C1024.91 790.844 1023.62 794.594 1021.06 797.406C1018.52 800.219 1015.1 801.625 1010.81 801.625C1006.46 801.625 1002.93 799.958 1000.22 796.625C997.51 793.271 996.156 788.958 996.156 783.688V781.469C996.156 773.094 997.938 766.698 1001.5 762.281C1005.08 757.844 1010.41 755.573 1017.47 755.469H1018.5ZM1010.91 775.969C1008.93 775.969 1007.1 776.562 1005.44 777.75C1003.77 778.938 1002.61 780.427 1001.97 782.219V784.344C1001.97 788.094 1002.81 791.115 1004.5 793.406C1006.19 795.698 1008.29 796.844 1010.81 796.844C1013.42 796.844 1015.46 795.885 1016.94 793.969C1018.44 792.052 1019.19 789.542 1019.19 786.438C1019.19 783.312 1018.43 780.792 1016.91 778.875C1015.41 776.938 1013.41 775.969 1010.91 775.969Z" fill="#406CBF"/>
<circle cx="890" cy="1099" r="78" fill="#E8F7F8" stroke="#406CBF" stroke-width="4"/>
<path d="M903.406 1087.38C903.406 1089.65 902.802 1091.67 901.594 1093.44C900.406 1095.21 898.792 1096.59 896.75 1097.59C899.125 1098.61 901 1100.1 902.375 1102.06C903.771 1104.02 904.469 1106.24 904.469 1108.72C904.469 1112.66 903.135 1115.79 900.469 1118.12C897.823 1120.46 894.333 1121.62 890 1121.62C885.625 1121.62 882.115 1120.46 879.469 1118.12C876.844 1115.77 875.531 1112.64 875.531 1108.72C875.531 1106.26 876.198 1104.04 877.531 1102.06C878.885 1100.08 880.75 1098.58 883.125 1097.56C881.104 1096.56 879.51 1095.18 878.344 1093.41C877.177 1091.64 876.594 1089.62 876.594 1087.38C876.594 1083.54 877.823 1080.5 880.281 1078.25C882.74 1076 885.979 1074.88 890 1074.88C894 1074.88 897.229 1076 899.688 1078.25C902.167 1080.5 903.406 1083.54 903.406 1087.38ZM898.688 1108.59C898.688 1106.05 897.875 1103.98 896.25 1102.38C894.646 1100.77 892.542 1099.97 889.938 1099.97C887.333 1099.97 885.24 1100.76 883.656 1102.34C882.094 1103.93 881.312 1106.01 881.312 1108.59C881.312 1111.18 882.073 1113.21 883.594 1114.69C885.135 1116.17 887.271 1116.91 890 1116.91C892.708 1116.91 894.833 1116.17 896.375 1114.69C897.917 1113.19 898.688 1111.16 898.688 1108.59ZM890 1079.62C887.729 1079.62 885.885 1080.33 884.469 1081.75C883.073 1083.15 882.375 1085.05 882.375 1087.47C882.375 1089.78 883.062 1091.66 884.438 1093.09C885.833 1094.51 887.688 1095.22 890 1095.22C892.312 1095.22 894.156 1094.51 895.531 1093.09C896.927 1091.66 897.625 1089.78 897.625 1087.47C897.625 1085.16 896.906 1083.27 895.469 1081.81C894.031 1080.35 892.208 1079.62 890 1079.62Z" fill="#406CBF"/>
<circle cx="470" cy="1099" r="78" fill="#E8F7F8" stroke="#406CBF" stroke-width="4"/>
<path d="M485.188 1078.75L466.344 1121H460.281L479.062 1080.25H454.438V1075.5H485.188V1078.75Z" fill="#406CBF"/>
<line x1="2490.62" y1="1276.32" x2="1474.62" y2="76.3231" stroke="black"/>
<circle cx="1516" cy="125" r="78" fill="#E8F7F8" stroke="#406CBF" stroke-width="4"/>
<path d="M1520.81 147H1515V108.469L1503.34 112.75V107.5L1519.91 101.281H1520.81V147Z" fill="#406CBF"/>
<circle cx="2196" cy="945" r="78" fill="#E8F7F8" stroke="#406CBF" stroke-width="4"/>
<path d="M2190.22 941.438H2194.56C2197.29 941.396 2199.44 940.677 2201 939.281C2202.56 937.885 2203.34 936 2203.34 933.625C2203.34 928.292 2200.69 925.625 2195.38 925.625C2192.88 925.625 2190.88 926.344 2189.38 927.781C2187.9 929.198 2187.16 931.083 2187.16 933.438H2181.38C2181.38 929.833 2182.69 926.844 2185.31 924.469C2187.96 922.073 2191.31 920.875 2195.38 920.875C2199.67 920.875 2203.03 922.01 2205.47 924.281C2207.91 926.552 2209.12 929.708 2209.12 933.75C2209.12 935.729 2208.48 937.646 2207.19 939.5C2205.92 941.354 2204.18 942.74 2201.97 943.656C2204.47 944.448 2206.4 945.76 2207.75 947.594C2209.12 949.427 2209.81 951.667 2209.81 954.312C2209.81 958.396 2208.48 961.635 2205.81 964.031C2203.15 966.427 2199.68 967.625 2195.41 967.625C2191.14 967.625 2187.66 966.469 2184.97 964.156C2182.3 961.844 2180.97 958.792 2180.97 955H2186.78C2186.78 957.396 2187.56 959.312 2189.12 960.75C2190.69 962.188 2192.78 962.906 2195.41 962.906C2198.2 962.906 2200.33 962.177 2201.81 960.719C2203.29 959.26 2204.03 957.167 2204.03 954.438C2204.03 951.792 2203.22 949.76 2201.59 948.344C2199.97 946.927 2197.62 946.198 2194.56 946.156H2190.22V941.438Z" fill="#406CBF"/>
<circle cx="1656" cy="295" r="78" fill="#E8F7F8" stroke="#406CBF" stroke-width="4"/>
<path d="M1671.62 317H1641.81V312.844L1657.56 295.344C1659.9 292.698 1661.5 290.552 1662.38 288.906C1663.27 287.24 1663.72 285.521 1663.72 283.75C1663.72 281.375 1663 279.427 1661.56 277.906C1660.12 276.385 1658.21 275.625 1655.81 275.625C1652.94 275.625 1650.7 276.448 1649.09 278.094C1647.51 279.719 1646.72 281.99 1646.72 284.906H1640.94C1640.94 280.719 1642.28 277.333 1644.97 274.75C1647.68 272.167 1651.29 270.875 1655.81 270.875C1660.04 270.875 1663.39 271.99 1665.84 274.219C1668.3 276.427 1669.53 279.375 1669.53 283.062C1669.53 287.542 1666.68 292.875 1660.97 299.062L1648.78 312.281H1671.62V317Z" fill="#406CBF"/>
<circle cx="1796" cy="465" r="78" fill="#E8F7F8" stroke="#406CBF" stroke-width="4"/>
<path d="M1806.22 471.719H1812.53V476.438H1806.22V487H1800.41V476.438H1779.69V473.031L1800.06 441.5H1806.22V471.719ZM1786.25 471.719H1800.41V449.406L1799.72 450.656L1786.25 471.719Z" fill="#406CBF"/>
<circle cx="1936" cy="625" r="78" fill="#E8F7F8" stroke="#406CBF" stroke-width="4"/>
<path d="M1924.47 624.188L1926.78 601.5H1950.09V606.844H1931.69L1930.31 619.25C1932.54 617.938 1935.07 617.281 1937.91 617.281C1942.05 617.281 1945.34 618.656 1947.78 621.406C1950.22 624.135 1951.44 627.833 1951.44 632.5C1951.44 637.188 1950.17 640.885 1947.62 643.594C1945.1 646.281 1941.57 647.625 1937.03 647.625C1933.01 647.625 1929.73 646.51 1927.19 644.281C1924.65 642.052 1923.2 638.969 1922.84 635.031H1928.31C1928.67 637.635 1929.59 639.604 1931.09 640.938C1932.59 642.25 1934.57 642.906 1937.03 642.906C1939.72 642.906 1941.82 641.99 1943.34 640.156C1944.89 638.323 1945.66 635.792 1945.66 632.562C1945.66 629.521 1944.82 627.083 1943.16 625.25C1941.51 623.396 1939.31 622.469 1936.56 622.469C1934.04 622.469 1932.06 623.021 1930.62 624.125L1929.09 625.375L1924.47 624.188Z" fill="#406CBF"/>
<circle cx="2339" cy="1098" r="78" fill="#E8F7F8" stroke="#406CBF" stroke-width="4"/>
<path d="M2347.5 1074.47V1079.38H2346.44C2341.94 1079.46 2338.35 1080.79 2335.69 1083.38C2333.02 1085.96 2331.48 1089.59 2331.06 1094.28C2333.46 1091.53 2336.73 1090.16 2340.88 1090.16C2344.83 1090.16 2347.99 1091.55 2350.34 1094.34C2352.72 1097.14 2353.91 1100.74 2353.91 1105.16C2353.91 1109.84 2352.62 1113.59 2350.06 1116.41C2347.52 1119.22 2344.1 1120.62 2339.81 1120.62C2335.46 1120.62 2331.93 1118.96 2329.22 1115.62C2326.51 1112.27 2325.16 1107.96 2325.16 1102.69V1100.47C2325.16 1092.09 2326.94 1085.7 2330.5 1081.28C2334.08 1076.84 2339.41 1074.57 2346.47 1074.47H2347.5ZM2339.91 1094.97C2337.93 1094.97 2336.1 1095.56 2334.44 1096.75C2332.77 1097.94 2331.61 1099.43 2330.97 1101.22V1103.34C2330.97 1107.09 2331.81 1110.11 2333.5 1112.41C2335.19 1114.7 2337.29 1115.84 2339.81 1115.84C2342.42 1115.84 2344.46 1114.89 2345.94 1112.97C2347.44 1111.05 2348.19 1108.54 2348.19 1105.44C2348.19 1102.31 2347.43 1099.79 2345.91 1097.88C2344.41 1095.94 2342.41 1094.97 2339.91 1094.97Z" fill="#406CBF"/>
<circle cx="2466" cy="1235" r="78" fill="#E8F7F8" stroke="#406CBF" stroke-width="4"/>
<path d="M2479.41 1223.38C2479.41 1225.65 2478.8 1227.67 2477.59 1229.44C2476.41 1231.21 2474.79 1232.59 2472.75 1233.59C2475.12 1234.61 2477 1236.1 2478.38 1238.06C2479.77 1240.02 2480.47 1242.24 2480.47 1244.72C2480.47 1248.66 2479.14 1251.79 2476.47 1254.12C2473.82 1256.46 2470.33 1257.62 2466 1257.62C2461.62 1257.62 2458.11 1256.46 2455.47 1254.12C2452.84 1251.77 2451.53 1248.64 2451.53 1244.72C2451.53 1242.26 2452.2 1240.04 2453.53 1238.06C2454.89 1236.08 2456.75 1234.58 2459.12 1233.56C2457.1 1232.56 2455.51 1231.18 2454.34 1229.41C2453.18 1227.64 2452.59 1225.62 2452.59 1223.38C2452.59 1219.54 2453.82 1216.5 2456.28 1214.25C2458.74 1212 2461.98 1210.88 2466 1210.88C2470 1210.88 2473.23 1212 2475.69 1214.25C2478.17 1216.5 2479.41 1219.54 2479.41 1223.38ZM2474.69 1244.59C2474.69 1242.05 2473.88 1239.98 2472.25 1238.38C2470.65 1236.77 2468.54 1235.97 2465.94 1235.97C2463.33 1235.97 2461.24 1236.76 2459.66 1238.34C2458.09 1239.93 2457.31 1242.01 2457.31 1244.59C2457.31 1247.18 2458.07 1249.21 2459.59 1250.69C2461.14 1252.17 2463.27 1252.91 2466 1252.91C2468.71 1252.91 2470.83 1252.17 2472.38 1250.69C2473.92 1249.19 2474.69 1247.16 2474.69 1244.59ZM2466 1215.62C2463.73 1215.62 2461.89 1216.33 2460.47 1217.75C2459.07 1219.15 2458.38 1221.05 2458.38 1223.47C2458.38 1225.78 2459.06 1227.66 2460.44 1229.09C2461.83 1230.51 2463.69 1231.22 2466 1231.22C2468.31 1231.22 2470.16 1230.51 2471.53 1229.09C2472.93 1227.66 2473.62 1225.78 2473.62 1223.47C2473.62 1221.16 2472.91 1219.27 2471.47 1217.81C2470.03 1216.35 2468.21 1215.62 2466 1215.62Z" fill="#406CBF"/>
<circle cx="2076" cy="785" r="78" fill="#E8F7F8" stroke="#406CBF" stroke-width="4"/>
<path d="M2091.19 764.75L2072.34 807H2066.28L2085.06 766.25H2060.44V761.5H2091.19V764.75Z" fill="#406CBF"/>
<path d="M1488.61 729.545C1490.52 727.55 1490.45 724.385 1488.46 722.475L1455.95 691.361C1453.95 689.452 1450.79 689.521 1448.88 691.516C1446.97 693.511 1447.04 696.676 1449.03 698.585L1477.93 726.243L1450.28 755.14C1448.37 757.135 1448.44 760.3 1450.43 762.21C1452.43 764.119 1455.59 764.05 1457.5 762.055L1488.61 729.545ZM1261.11 735.999L1485.11 731.086L1484.89 721.089L1260.89 726.001L1261.11 735.999Z" fill="black"/>
</svg>
