<?xml version="1.0" encoding="UTF-8"?>
<svg width="353px" height="143px" viewBox="0 0 353 143" version="1.1" xmlns="http://www.w3.org/2000/svg" xmlns:xlink="http://www.w3.org/1999/xlink">
    <g id="Logo" stroke="none" stroke-width="1" fill="none" fill-rule="evenodd">
        <polyline id="H" fill="#000000" points="283 3 310.181312 3 310.181312 55.5716427 325.818688 55.5716427 325.818688 3 353 3 353 139 325.818688 139 325.818688 80.3334637 310.181312 80.3334637 310.181312 139 283 139 283 3"></polyline>
        <path d="M230.836024,0 L230.836024,49.1539771 L231.227117,49.1539771 C233.187144,42.1319803 240.243923,35.8905837 251.809105,35.8905837 C263.570404,35.8905837 272,44.2774959 272,57.9311893 L272,119.95826 C272,133.611953 263.570404,142 251.809105,142 C240.832273,142 232.599934,135.172019 230.050417,126.005641 L229.658184,126.005641 L229.658184,139.269034 L203,139.269034 L203,0 L230.836024,0 Z M244.165116,66.3192361 C244.165116,60.2718549 242.203949,57.7360393 238.283897,57.7360393 C234.756077,57.7360393 230.836024,60.4670049 230.836024,66.3192361 L230.836024,111.571348 C230.836024,117.422444 234.756077,120.15341 238.283897,120.15341 C242.203949,120.15341 244.165116,117.618729 244.165116,111.571348 L244.165116,66.3192361 Z" id="b" fill="#000000"></path>
        <path d="M163.830273,140 L163.830273,69.1770839 C163.830273,61.671075 162.299944,59.5541678 158.472454,59.5541678 C153.307179,59.5541678 151.58542,63.0189102 151.58542,71.1014432 L151.58542,140 L124.415693,140 L124.415693,69.1770839 C124.415693,61.671075 122.885364,59.5541678 119.057874,59.5541678 C113.891486,59.5541678 112.169727,63.0189102 112.169727,71.1014432 L112.169727,140 L85,140 L85,40.6945508 L111.022259,40.6945508 L111.022259,51.855611 L111.40512,51.855611 C112.744018,46.6601767 120.013912,38 131.877017,38 C141.061213,38 147.94936,43.0040059 150.245409,52.2407068 L150.628269,52.2407068 C153.498609,44.7358174 161.151363,38 170.90985,38 C182.772955,38 191,45.1209131 191,61.8647424 L191,140 L163.830273,140" id="m" fill="#000000"></path>
        <path d="M71.9899768,120.685852 C71.9955452,118.9348 72,117.196079 72,115.521256 C71.9955452,115.517893 71.9933179,115.515651 71.9899768,115.512288 L71.9899768,55.8890648 L36.7517401,55.8890648 L36.7517401,80.9430155 L44.0352668,80.9430155 L44.0352668,110.429528 C44.0352668,115.826177 41.7388399,117.946049 35.9944316,117.946049 C30.2511369,117.946049 27.9524826,115.826177 27.9524826,110.429528 L27.9524826,32.5704722 C27.9524826,27.1738227 30.2511369,25.0539507 35.9944316,25.0539507 C41.7388399,25.0539507 44.0352668,27.1738227 44.0352668,32.5704722 L44.0352668,40.8571429 L71.9899768,40.8571429 L71.9899768,32.3765336 C71.9899768,9.63639357 62.2251508,0 35.2293271,0 C9.76482599,0 0,9.63639357 0,32.3765336 L0,115.826177 C0,133.363606 10.9130394,143 27.1873782,143 C39.2486311,143 44.0352668,138.759135 49.7796752,130.279647 L50.1694664,130.596899 C53.8836195,137.890335 62.4757309,143 71.8062181,143 C71.8062181,143 71.8184687,141.994434 71.8374014,140.301675 L71.9899768,140.301675 L71.9899768,120.685852" id="G" fill="#000000"></path>
    </g>
</svg>
