<svg width="640" height="380" viewBox="0 0 640 380" fill="none" xmlns="http://www.w3.org/2000/svg">
<g clip-path="url(#clip0_2_13)">
<path d="M158.507 218.066C161.001 215.576 165.037 215.583 167.523 218.081C170.009 220.579 170.002 224.623 167.508 227.113L156.435 238.17C146.219 248.371 129.56 248.519 119.172 238.513C119.112 238.456 114.487 233.92 99.227 218.957C89.0752 209.003 88.0639 193.075 97.617 182.846L115.429 163.775C124.91 153.622 142.387 152.512 153.228 161.279L169.405 174.362C172.145 176.578 172.573 180.598 170.361 183.343C168.149 186.087 164.135 186.516 161.396 184.3L145.219 171.217C139.549 166.633 129.632 167.262 124.74 172.501L106.928 191.573C102.277 196.552 102.787 204.574 108.146 209.829C119.352 220.817 127.987 229.285 127.997 229.294C133.398 234.496 142.131 234.418 147.434 229.123L158.507 218.066Z" fill="#FFA116"/>
<path fill-rule="evenodd" clip-rule="evenodd" d="M131.607 207.001C128.086 207.001 125.232 204.142 125.232 200.615C125.232 197.088 128.086 194.229 131.607 194.229H178.625C182.146 194.229 185 197.088 185 200.615C185 204.142 182.146 207.001 178.625 207.001H131.607Z" fill="#B3B3B3"/>
<path fill-rule="evenodd" clip-rule="evenodd" d="M140.412 137.023C142.818 134.448 146.852 134.313 149.423 136.723C151.995 139.132 152.129 143.174 149.723 145.75L106.928 191.573C102.277 196.552 102.787 204.574 108.146 209.829L127.909 229.209C130.425 231.676 130.468 235.72 128.006 238.24C125.543 240.761 121.506 240.804 118.99 238.337L99.2264 218.957C89.0752 209.002 88.0638 193.074 97.6174 182.846L140.412 137.023Z" fill="black"/>
<path fill-rule="evenodd" clip-rule="evenodd" d="M222.914 173.883V215.914C222.914 217.529 223.487 218.909 224.633 220.055C225.779 221.201 227.159 221.773 228.773 221.773H240.141C241.13 221.773 241.977 222.125 242.68 222.828C243.383 223.531 243.734 224.378 243.734 225.367V225.445C243.734 226.435 243.383 227.268 242.68 227.945C241.977 228.648 241.13 229 240.141 229H228.773C225.154 229 222.068 227.724 219.516 225.172C216.964 222.62 215.688 219.534 215.688 215.914V173.883C215.688 172.893 216.039 172.047 216.742 171.344C217.445 170.667 218.279 170.328 219.242 170.328H219.359C220.323 170.328 221.156 170.667 221.859 171.344C222.563 172.047 222.914 172.893 222.914 173.883ZM268.188 193.648C264.281 193.648 260.948 195.029 258.188 197.789C255.453 200.549 254.086 203.883 254.086 207.789C254.086 208.492 254.138 209.182 254.242 209.859L278.969 198.688C276.156 195.328 272.563 193.648 268.188 193.648ZM287.562 198.805C287.979 199.69 288.018 200.602 287.68 201.539C287.341 202.451 286.716 203.115 285.805 203.531C282.159 205.172 277.367 207.333 271.43 210.016C264.06 213.349 259.281 215.51 257.094 216.5C259.906 220.094 263.604 221.891 268.188 221.891C271.234 221.891 273.995 220.992 276.469 219.195C278.865 217.451 280.544 215.185 281.508 212.398C282.081 210.784 283.227 209.977 284.945 209.977C286.169 209.977 287.146 210.484 287.875 211.5C288.578 212.49 288.721 213.57 288.305 214.742C286.846 218.961 284.294 222.372 280.648 224.977C276.924 227.659 272.771 229 268.188 229C262.302 229 257.276 226.917 253.109 222.75C248.943 218.583 246.859 213.557 246.859 207.672C246.859 201.786 248.943 196.76 253.109 192.594C257.276 188.427 262.302 186.344 268.188 186.344C272.432 186.344 276.312 187.503 279.828 189.82C283.292 192.086 285.87 195.081 287.562 198.805ZM315.727 193.648C311.82 193.648 308.487 195.029 305.727 197.789C302.992 200.549 301.625 203.883 301.625 207.789C301.625 208.492 301.677 209.182 301.781 209.859L326.508 198.688C323.695 195.328 320.102 193.648 315.727 193.648ZM335.102 198.805C335.518 199.69 335.557 200.602 335.219 201.539C334.88 202.451 334.255 203.115 333.344 203.531C329.698 205.172 324.906 207.333 318.969 210.016C311.599 213.349 306.82 215.51 304.633 216.5C307.445 220.094 311.143 221.891 315.727 221.891C318.773 221.891 321.534 220.992 324.008 219.195C326.404 217.451 328.083 215.185 329.047 212.398C329.62 210.784 330.766 209.977 332.484 209.977C333.708 209.977 334.685 210.484 335.414 211.5C336.117 212.49 336.26 213.57 335.844 214.742C334.385 218.961 331.833 222.372 328.188 224.977C324.464 227.659 320.31 229 315.727 229C309.841 229 304.815 226.917 300.648 222.75C296.482 218.583 294.398 213.557 294.398 207.672C294.398 201.786 296.482 196.76 300.648 192.594C304.815 188.427 309.841 186.344 315.727 186.344C319.971 186.344 323.852 187.503 327.367 189.82C330.831 192.086 333.409 195.081 335.102 198.805ZM346.781 170.328C347.745 170.328 348.578 170.667 349.281 171.344C349.984 172.047 350.336 172.893 350.336 173.883V186.344H357.367C358.331 186.344 359.164 186.695 359.867 187.398C360.57 188.102 360.922 188.948 360.922 189.938V190.016C360.922 191.005 360.57 191.839 359.867 192.516C359.164 193.219 358.331 193.57 357.367 193.57H350.336V217.906C350.336 218.974 350.714 219.885 351.469 220.641C352.224 221.396 353.148 221.773 354.242 221.773H357.367C358.331 221.773 359.164 222.125 359.867 222.828C360.57 223.531 360.922 224.378 360.922 225.367V225.445C360.922 226.435 360.57 227.268 359.867 227.945C359.164 228.648 358.331 229 357.367 229H354.242C351.169 229 348.539 227.919 346.352 225.758C344.19 223.57 343.109 220.953 343.109 217.906V173.883C343.109 172.893 343.461 172.047 344.164 171.344C344.867 170.667 345.701 170.328 346.664 170.328H346.781ZM394.75 170.328C397.224 170.328 399.659 170.628 402.055 171.227C403.852 171.695 404.75 172.841 404.75 174.664V174.781C404.75 175.927 404.281 176.865 403.344 177.594C402.432 178.297 401.417 178.505 400.297 178.219C398.474 177.75 396.625 177.516 394.75 177.516C388.656 177.516 383.448 179.677 379.125 184C374.802 188.323 372.641 193.544 372.641 199.664C372.641 205.784 374.802 211.005 379.125 215.328C383.448 219.625 388.656 221.773 394.75 221.773C396.625 221.773 398.474 221.552 400.297 221.109C401.417 220.823 402.432 221.031 403.344 221.734C404.281 222.438 404.75 223.375 404.75 224.547V224.625C404.75 226.474 403.852 227.633 402.055 228.102C399.659 228.701 397.224 229 394.75 229C386.651 229 379.737 226.135 374.008 220.406C368.279 214.677 365.414 207.763 365.414 199.664C365.414 191.565 368.279 184.651 374.008 178.922C379.737 173.193 386.651 170.328 394.75 170.328ZM431.156 193.648C427.25 193.648 423.917 195.029 421.156 197.789C418.422 200.549 417.055 203.883 417.055 207.789C417.055 211.669 418.422 214.99 421.156 217.75C423.917 220.51 427.25 221.891 431.156 221.891C435.063 221.891 438.383 220.51 441.117 217.75C443.878 214.99 445.258 211.669 445.258 207.789C445.258 203.883 443.878 200.549 441.117 197.789C438.383 195.029 435.063 193.648 431.156 193.648ZM431.156 186.344C437.042 186.344 442.068 188.427 446.234 192.594C450.401 196.76 452.484 201.786 452.484 207.672C452.484 213.557 450.401 218.583 446.234 222.75C442.068 226.917 437.042 229 431.156 229C425.271 229 420.245 226.917 416.078 222.75C411.911 218.583 409.828 213.557 409.828 207.672C409.828 201.786 411.911 196.76 416.078 192.594C420.245 188.427 425.271 186.344 431.156 186.344ZM479.281 193.648C475.375 193.648 472.042 195.029 469.281 197.789C466.547 200.549 465.18 203.883 465.18 207.789C465.18 211.669 466.547 214.99 469.281 217.75C472.042 220.51 475.375 221.891 479.281 221.891C483.188 221.891 486.508 220.51 489.242 217.75C492.003 214.99 493.383 211.669 493.383 207.789C493.383 203.883 492.003 200.549 489.242 197.789C486.508 195.029 483.188 193.648 479.281 193.648ZM497.055 170.328C498.018 170.328 498.852 170.667 499.555 171.344C500.258 172.047 500.609 172.893 500.609 173.883V207.789C500.583 213.648 498.487 218.648 494.32 222.789C490.154 226.93 485.141 229 479.281 229C473.396 229 468.37 226.917 464.203 222.75C460.036 218.583 457.953 213.557 457.953 207.672C457.953 201.786 460.036 196.76 464.203 192.594C468.37 188.427 473.396 186.344 479.281 186.344C484.646 186.344 489.346 188.128 493.383 191.695V173.883C493.383 172.893 493.734 172.047 494.438 171.344C495.141 170.667 495.974 170.328 496.938 170.328H497.055ZM528.578 193.648C524.672 193.648 521.339 195.029 518.578 197.789C515.844 200.549 514.477 203.883 514.477 207.789C514.477 208.492 514.529 209.182 514.633 209.859L539.359 198.688C536.547 195.328 532.953 193.648 528.578 193.648ZM547.953 198.805C548.37 199.69 548.409 200.602 548.07 201.539C547.732 202.451 547.107 203.115 546.195 203.531C542.549 205.172 537.758 207.333 531.82 210.016C524.45 213.349 519.672 215.51 517.484 216.5C520.297 220.094 523.995 221.891 528.578 221.891C531.625 221.891 534.385 220.992 536.859 219.195C539.255 217.451 540.935 215.185 541.898 212.398C542.471 210.784 543.617 209.977 545.336 209.977C546.56 209.977 547.536 210.484 548.266 211.5C548.969 212.49 549.112 213.57 548.695 214.742C547.237 218.961 544.685 222.372 541.039 224.977C537.315 227.659 533.161 229 528.578 229C522.693 229 517.667 226.917 513.5 222.75C509.333 218.583 507.25 213.557 507.25 207.672C507.25 201.786 509.333 196.76 513.5 192.594C517.667 188.427 522.693 186.344 528.578 186.344C532.823 186.344 536.703 187.503 540.219 189.82C543.682 192.086 546.26 195.081 547.953 198.805Z" fill="black"/>
</g>
<defs>
<clipPath id="clip0_2_13">
<rect width="458" height="111" fill="white" transform="translate(91 135)"/>
</clipPath>
</defs>
</svg>
