<svg width="320" height="200" viewBox="0 0 320 200" fill="none" xmlns="http://www.w3.org/2000/svg">
<g clip-path="url(#clip0_1_2)">
<path d="M105.942 70.632H144.901V73.7136H109.513V96.907H142.791V99.9886H109.513V125.453H145.307V128.534H105.942V70.632ZM148.391 70.632H152.531L170.874 96.0961L189.623 70.632L215.124 38.2868L173.228 98.7722L194.817 128.534H190.516L170.874 101.448L151.151 128.534H146.93L168.682 98.7722L148.391 70.632ZM196.359 73.7136V70.632H240.756V73.7136H220.303V128.534H216.732V73.7136H196.359Z" fill="black"/>
<path d="M57.2029 70.632H61.667L123.224 162.303L97.7852 128.534L60.9365 75.0112L60.7742 128.534H57.2029V70.632Z" fill="black"/>
<path d="M240.397 124.523C241.135 124.523 241.673 123.96 241.673 123.233C241.673 122.506 241.135 121.943 240.397 121.943C239.667 121.943 239.12 122.506 239.12 123.233C239.12 123.96 239.667 124.523 240.397 124.523ZM243.906 121.13C243.906 123.276 245.461 124.679 247.728 124.679C250.142 124.679 251.602 123.233 251.602 120.723V111.886H249.656V120.714C249.656 122.108 248.952 122.852 247.71 122.852C246.598 122.852 245.843 122.16 245.817 121.13H243.906ZM254.147 121.017C254.286 123.25 256.153 124.679 258.933 124.679C261.903 124.679 263.762 123.181 263.762 120.792C263.762 118.914 262.702 117.875 260.131 117.278L258.75 116.94C257.117 116.56 256.457 116.049 256.457 115.157C256.457 114.032 257.482 113.296 259.02 113.296C260.479 113.296 261.486 114.015 261.669 115.166H263.562C263.449 113.063 261.591 111.583 259.046 111.583C256.309 111.583 254.485 113.063 254.485 115.287C254.485 117.122 255.519 118.213 257.786 118.741L259.402 119.13C261.061 119.52 261.79 120.091 261.79 121.043C261.79 122.151 260.644 122.956 259.08 122.956C257.404 122.956 256.24 122.203 256.075 121.017H254.147Z" fill="black"/>
</g>
<defs>
<clipPath id="clip0_1_2">
<rect width="207" height="124" fill="white" transform="translate(57 38)"/>
</clipPath>
</defs>
</svg>
