<svg id="Layer_1" data-name="Layer 1" xmlns="http://www.w3.org/2000/svg" viewBox="0 0 700 700"><defs><style>.cls-1{fill:#9feaf7}.cls-2{fill:#fce9d9}.cls-3{fill:#ffdb80}.cls-4{fill:#51d68a}.cls-5{fill:#fff}.cls-6{fill:#999}.cls-7{fill:#d8b08f}.cls-9{fill:#ddc6a4}.cls-10{fill:#f68e6d}.cls-12{fill:#1fc8fc}.cls-13{fill:#4f4f4f}</style></defs><path class="cls-1" d="M273.29 227.16s1.49 63.6-4.6 88.09c0 0-3.11 31.05-49.68 38.53 0 0-114.77 18.51-131.56-23.69 0 0-13-16.56-7.71-105.23 0 0-.11-79.92 43.13-89.35 0 0 75.78-15.3 124 4.71 10.23 4.26 15.52 10.47 18 19.21 3.24 11.15 6.92 31.62 8.42 67.73z"/><path class="cls-1" d="M335.16 383.45s43-1.61 52.78 21.73c0 0 5.29 6.21 7 49 0 0 3.68 69.12-9 85.79 0 0-12.65 26-42.21 26.8 0 0-116.38 9.31-167.09-5.87 0 0-32.78-5.86-36.92-37.26 0 0-9-40-2.41-95.1 0 0 2.87-48.53 64.74-47.73z"/><path class="cls-1" d="M418.07 177.83s62.79-.92 63.71 51.17c0 0 7.59 69.35-3.79 95 0 0-8.51 29.67-64.17 29.67 0 0-85.56 5.18-103.62-11 0 0-16.67-6.55-14.26-59.11s-2.41-88.89 44.74-102.46c-.12-.05 33.58-6.03 77.39-3.27z"/><path class="cls-1" d="M577 373s55 30.25 42.9 109.48-125.81 89.82-162.27 51.75c-37.49-39.1-46.23-101.2 4.95-149C515.59 335.49 577 373 577 373z"/><path class="cls-2" d="M183.82 223.37l1.72 6.67s6.33 16.21-.11 18.74l-4-.57s-.8-7.25-3.68-7.71-7.82-3.79-7.82-3.79l-4.14-.35-10.58-8.16 7.71-5.41 7.13-.34-2.76-5.75s-9.43-8.28-9.89-12.88-10.24-6.44-2.07-13.23l3.68-2.76 18.63-2.07 5.63-12.3s5.29.23 9.09 7.47 10.12 25-11 36.8l-.81 4.14z"/><path class="cls-2" d="M147.71 232.68l-6 3.11-5.29 5.29s-6.79 14 .46 37.6l6.32 19.55 6.33 7.71 6.32 2.76 6-2.76 6-8.05 6.44-24.61 3.11-14s6.78-12.31.11-18.75l-3.1-1.26-4.83-2.65s-3.45-1.38-4.14-.34.8 12.19.8 12.19l-3.24-3.14-3.1-.46.46 8.28 3.79 7.25.46 4.94-6.21 9.09-2.87-11.85s5.86-8-.12-22.31l-2.41-5.52z"/><path class="cls-3" d="M183 173.69s.46 9.08-5.63 12.3l-18.63 2.07-3.68 2.76s-9.32 7.71 2.07 13.23c0 0 4.71 9 8.85 11.15l3.22 6.1-4.6 1.61s-14.49-.46-19.09-16.33c0 0-13.68-46.58 30.48-46.35h4.94s21.16-1.38 23.23 30.94l-2.53 2.41-2.3 1.15-4.37-7-.23 14.14.47 13.13a13.79 13.79 0 012.88 1.61l1.61 3.91s-4.37 1.61-5.18 1.38-10-4.6-10-4.6l5.86-6.55s6.33-10.93 1.61-29.56c.12-.03-3.56-6.7-8.98-7.5z"/><path class="cls-4" d="M158.06 275.23l7.7-10-1.03-4.6-5.06-9.66 2.3-9.66-5.87-4.14 1.38 8.51.81 9.66-1.84 7.13 1.61 12.76z"/><path class="cls-5" d="M173.47 281.56s.23 44.62-2.76 52.9l-4.14 6.09-8 1.38-27.31-4.93-2.53-4.14-.23-4.14 9.09-47.72s7.47 25.65 14.6 27l6.1.23 6.09-3.91 6.33-15.76z"/><path class="cls-2" d="M193.13 229.46s13.8 8.86 13.46 7.71-8.4-20.59-8.4-20.59-6.67-2.07-2.64-6.78c0 0 .57-14.84 6.09-16.22l2.76.23 6.9 8.51v13l19.21 27.6 5.29 15.18s-5.52 14.37-16.56 11.84l-11.16-3.56-2.76-11.27-6.9-10.47z"/><path class="cls-4" d="M136.78 339.17l-5.86 16.56a301.75 301.75 0 0087.63-2c-2.88-20.93-16-46.35-16-46.35l-.8-3.91 4.37-29.32c4.6-12.42-4.6-23.81-4.6-23.81l-9.43-21.27-9-5.06 5.75 17.82c0 8.51-7.94 6.9-7.94 6.9l-3.22 10.12-4.71 28c2.41 29.67-3.34 51.4-3.34 51.4l-6.55 3.8-26.34-2.88"/><path class="cls-6" d="M203.25 453.37s-22.77 2.18-20.35 24.63c0 0 1.49 9.08 3.91 10.35l2.41-2.19 3-3.68s4.83 0 5.18-4.6l.92-7.59 4.25-1.49 4.83-2.19.92-6.44 5.18 1.84 2.41 4.6 3.68 2.76 4.26 2.19s-1.27-17.6-17-18.86z"/><path class="cls-6" d="M187.73 492.24l-2.73 3.68-11.27 7.59-2.42 4.25-.34 11.85-2.42 4.83s-3.33 2.76-6.67 1.49c0 0 1.5 9.09 10.35 7.25 0 0 1.27-12.42 10.7-13.34 0 0 3.68-3.91 4.6-7.59a23.64 23.64 0 004.6-16.45z"/><path class="cls-5" d="M192.9 514.43l-5.17 3s8.51 8.86 7.24 25.19c0 0-7.59-15.53-14.6-17.6L178 532l-6.32 27.48s29.09 10.12 76.24 9.78l-13.39-44.36-1.84 13.68-2.76-7s-4.25-15.53-10.69-16.1l-5.52 6.09c.11.22-11.72 2.64-20.82-7.14z"/><path class="cls-7" d="M193.82 515c1.5 4.83 19.78 7 19.78 7 3.91-1.84 5.52-8.51 5.52-8.51a10.8 10.8 0 01-3.33-3.33c-1.5-2.3-.58-6.1-.58-6.1 21.28-7.93 8.17-34 8.17-34l-6.44-2.76-2.42-4.3-6.09-3-.92 6.44-8.51 3.37-1.84 4.26c.92 9.43-4.83 8.16-4.83 8.16l-3.34 3c-5.52 8.17 5.52 10.93 5.52 10.93s5.18 7.7-.69 18.86"/><path d="M315.38 395.64s-4.6-6.1-9.43-1.84-12.42 8.51-16.45 4.6l-2.18 7.6s-8.17-10.35-.92-17l8.85-5.52s16.1-14.95 30.36 3.91c0 0 8.51 10 6.67 14.95l-2.41 7.24-3.87-2.44-2.42.34s-4.83-3.33-4.83-9.08z" fill="#af8c74"/><path class="cls-9" d="M324.23 407.48s10.35.58.92 12.77l-5.75 10-3.68 2.42.92 10-2.41 5.52-2.42 2.81-2.18 6.44-3.63-6.72s-6.1-1.84-7.25-6.67l.35-9.08s-18.52-6.44-8.86-35.31l4.83.58 4.6-1.5s7.59-13.68 15.76-2.41l4.6 2.18c-.03-.11.52 8.4 4.2 8.97z"/><path class="cls-3" d="M316.41 436.81s1.27 8.85-3.91 12.42l-2.87 8-3.63-6.62s-8.74-5.75-7-14.26l-4 1.84-3.1 5.75-.23 3.33-17.14 8.86-2.3 3.91s-2.87 7.47-3.91 11.15c0 0-13.22 52.1-4.14 77.51a14.43 14.43 0 0016.12-5.7v2.65l5.75 2.07 7.48 7.24 10.92 5.18 12.42-17.94s9.43 9.2 15.07 14l10.35-13.2-1.61-35.19s4.94 9.89 13.45 7.48c0 0 11.62-1.27 6.79-19.44l-17.14-38.41-4.71-5.4-15.07-6.26c.12-.12-1.15-7.94-7.59-8.97z"/><path class="cls-9" d="M291.8 553.65s-2.64 10.12-7.13 11.61h-.34a33.69 33.69 0 01-11.85-8.16l-1.48-1.61-2.65-6.56s7.59 0 10.47-3.45l4.71.58z"/><path class="cls-7" d="M406.34 238.2l-1.84-10.46 2.3-3.68 2.88-4.49s13.91-6.55 4.71-11.5l-4.48-.23-6.79-12.3-2.64-2.65s-6.33-6.78-10.48-3.89-15.75 6-15.75 6-6.56 31.4 13.34 37.95l-.81 8.17s5.52 9.43 15.41 3.1z"/><path class="cls-7" d="M421.52 284.43s-7.36 25.88-16.44 34.27l-8.17 3.68-4.71-.8-5.75-2.65-20.36-23.57-4.94-1s-14.61-4.71-13.34-14.95l1.26-2.64 2.3-2.88 9.66 6.56 3.68-6.56s6 1.84 5.75 9.66l3.11 4.14 20.7 14.15 8.62-18.63z"/><path class="cls-7" d="M361 294.44l-3.68 21.73-3.1-.8-7-25.42-4.48-1-3.11-3.11 5.29-13.91 3.45-1.61 1.84.23 3.91-.23-2.63 3.68s-6.33 8.16-1.61 13.91a18.54 18.54 0 0011.12 6.53z"/><path class="cls-10" d="M415.2 330s5.29 13.92 2.87 23.92c0 0-47.15 1.73-64.63-.57 0 0 2.07-19.32 6.33-24 0-.18 22.42 11.09 55.43.65z"/><path class="cls-6" d="M415.77 206s4.72-18.28-6.78-21.16c0 0-3.91-12.3-11-9.43l-6.79-.8-4.94 2.87-7 2.3-2.07 3.91-5.29 1.61-1.61 3.11 1.61 5.29 2.65 1.26 17.82-6.32 8.4 4.14 3.91 5.29 5.52 9.66c-.2.11 2.7 3.27 5.57-1.73z"/><path d="M517.09 381.38c.92-.12 6.09 16.56 22.65 17.25 0 0-.34 7.82 3.34 9.43l7.82 18.63 4-1.73 1-4.71-.69-4-5.06-7.82.34-14.95s1.73-13.91-8.16-18.63c0 0-11.16-13.22-33.24-2.41 0 0-14.6 9.2-8.16 24.72.17.2 3.28-14.06 16.16-15.78z" fill="#dce1e2"/><path class="cls-2" d="M539.74 398.74s-16-1.61-22.65-17.25c0 0-21.74 3.8-14.49 33.24 0 0 7.82 13.34 8.62 13.68s5.87 2 5.87 2l-1.15 8.59 2.53 5.87s8.85 2.53 12.53.23l.81 7.82s6.9 6.09 14.49-.81l-2-5.06V439l6.7-12.08-2.53-7.71-5.29-10.92c-.1-.12-4.01-4.49-3.44-9.55z"/><path class="cls-2" d="M459.13 494.31l-12.88 10.81-2.76 8.85 5.06 10.01 5.52-5.52 7.01-5.52 2.76-6.67 1.61-4.72-6.32-7.24z"/><path class="cls-12" d="M544.34 436.81s8-.92 13.34 5.52l6.56 17.94v29.32l-6.79 15.53-.45 11.38-29.1 10.7-5.9-2.88s-27.83-5.29-31.28-16l3.91-7 1.5-6.09s-30.25 9.54-29.79 9.43-.92-9.2-7.24-10.35l26.22-14.61 1.72-1.49 6.1-27.37s7-16.68 23.46-14c0 0-4.49 10.58 14.14 8.28l.81 5.29s5.29 7.36 12.07.11a2.3 2.3 0 01.69-2.18c1.3-.95.03-11.53.03-11.53z"/><path class="cls-10" d="M187.73 517.54a28.47 28.47 0 017 23.92l-3-4.83-8.03-9.63-3.22-1.84-3.33 11-5.52 23.46s-5.75-1.5-6.9-2.88q1.53-2 2.87-4.14c.12-.46 5.41-22.88 5.41-22.88s3.22-9.89 9.77-9.89z"/><path class="cls-10" d="M219.35 515.7c.23.8 8.86 5.06 12.31 20.58a30.47 30.47 0 00.92-12.42l-4.83-9.08-4.37-1-5.29-1.26z"/><path class="cls-5" d="M581.72 538.81l1.15-84.64-19.78-3.45 1.15 9.43s4.25 34.62-6.79 44.85l-.45 11.39s-33.35 13.57-35.07 7.93c0 0-25.65-3.56-31.28-16l-12.19 5.06-14.85 7.62-6.09 5.63-.35-8.39 3.8-5.41 33.58-11.5 1.49-6.09-32.31 11-3.22 6-11.27 10.23 1 3.91s6.67 10.81 23.92 19.78c23.15 11.84 72.02 15.54 107.56-7.35z"/><path class="cls-13" d="M556.53 532.6a1 1 0 01-.57-.11 1.5 1.5 0 01-1-1.9v-.06a20.23 20.23 0 00.69-7 1.56 1.56 0 113.08-.5.77.77 0 010 .15 22.46 22.46 0 01-.8 8.28 1.69 1.69 0 01-1.4 1.14z"/><path class="cls-5" d="M340.33 544.45s4.95 12.88 2.42 22.42c0 0-37.84 3.22-73.14 2.76l1.15-14 7.7 5.75 5.75 4.14 4.72-6.21 2.76-5.4 12.65 6.21 12.42-17.94 15.06 14z"/><path class="cls-5" d="M406.34 238.2l17.25 10.58 4.83 6.33v14.37l-1.49 13.8-13.8 1.15-10.13-.92-8.63 18.63L373.68 288l-3.1-4.14-3.34-10.12-4.6 2.64-5.52-5.17 1.84-11 6.33-13.46 21.71-9.93s.46 10.24 9.43 10.24 9.91-8.86 9.91-8.86z"/><path class="cls-5" d="M419.34 295.7l.92 26.68-5.06 7.71s-39 12.42-57.85-4l-1.15-6.9 4.8-24.64 5 1s16.1 23.92 26.22 26.22l8.62-.81 6.33-4.83 7.13-11z"/><path class="cls-5" d="M165.07 237.28a38 38 0 01-3.1-4.48c0-.35-8.05-3.68-8.05-3.68l-6.44 3.56 4.94 2.76 7.36 4 3.34 7.36 2.76 1z"/><path class="cls-13" d="M390.59 234.06c-8.17 0-14-5.17-17.25-15.18a43.37 43.37 0 01-.46-23.8 1.53 1.53 0 113 .69 40.61 40.61 0 00.46 22.08c3.56 10.92 10.35 15.06 20.24 12.07.11 0 7.47-2.07 10.58-9a1.57 1.57 0 012.87 1.27c-3.56 8.28-12.19 10.58-12.53 10.69a22 22 0 01-6.91 1.18z"/><path class="cls-13" d="M415 207.84a.83.83 0 01-.46-.11 1.6 1.6 0 01-1-2c4.37-15.29-4.14-19.55-4.14-19.55a1.54 1.54 0 011.38-2.76c.46.23 10.81 5.52 5.87 23.23a1.86 1.86 0 01-1.65 1.19z"/><path class="cls-13" d="M410.14 209.34a1.85 1.85 0 01-1-.35c-3.79-3.33-5.86-9.89-6-10.12a1.56 1.56 0 013-.92c0 .12 2 6.1 5.06 8.74a1.5 1.5 0 01.19 2.11l-.07.08a1.83 1.83 0 01-1.18.46z"/><path class="cls-13" d="M410.48 220.61a1.73 1.73 0 01-1.61-1.5 1.64 1.64 0 011.5-1.61 5.53 5.53 0 005.29-4.14 3.75 3.75 0 00-1.61-4.25 1.52 1.52 0 011.49-2.65 6.64 6.64 0 013 7.71c-.47 2.99-3.34 6.21-8.06 6.44z"/><path class="cls-13" d="M382.19 208.88a1.44 1.44 0 01-1.49-1.4v-.1l-.12-2.07a1.54 1.54 0 011.47-1.61 1.43 1.43 0 011.6 1.23 2.44 2.44 0 010 .27l.11 2.07a1.74 1.74 0 01-1.57 1.61z"/><path class="cls-13" d="M398.41 209.45a1.45 1.45 0 01-1.5-1.4V208l-.11-2.07a1.54 1.54 0 011.47-1.61 1.41 1.41 0 011.6 1.22 1.22 1.22 0 010 .27l.12 2.07a1.65 1.65 0 01-1.58 1.57z"/><path class="cls-13" d="M392.08 225.44a7.83 7.83 0 01-3.1-.58 1.55 1.55 0 01-.81-2.06 1.73 1.73 0 012.07-.92 5.37 5.37 0 006.67-2.64 1.52 1.52 0 112.65 1.49 8.4 8.4 0 01-7.48 4.71z"/><path class="cls-13" d="M375.29 196a8.88 8.88 0 01-3.1-.58 6.78 6.78 0 01.57-12.3 5.23 5.23 0 011.84-.23c1 0 1.38-.12 1.84-.92 2.07-3.57 3.57-4.14 5.52-4.49a7.36 7.36 0 004-2.18c3-2.76 4.83-2.42 7.13-1.73a9.67 9.67 0 004.91.43c8.85-1.26 12.53 9.32 12.65 9.66a1.53 1.53 0 11-2.83 1.17v-.13c0-.12-3-8.51-9.31-7.71a13 13 0 01-6.1-.57c-1.61-.46-2.18-.69-4.14 1a9.38 9.38 0 01-5.4 2.88c-1.15.23-2 .46-3.57 3.1a4.69 4.69 0 01-4.37 2.42 3.23 3.23 0 00-1 .11c-.69.23-2.76 1.15-2 4.14a3.88 3.88 0 001.73 2.42c3 1.38 9.54-1.73 14.72-4.26l.57-.23c7.36-3.56 12.31 1.61 13.8 4.83a1.54 1.54 0 11-2.76 1.38c-.34-.69-3.33-6.44-9.66-3.45l-.57.23c-5.27 2.59-10.44 5.01-14.47 5.01z"/><path class="cls-13" d="M357.47 266.26a.66.66 0 01-.46-.11 1.6 1.6 0 01-1-2l3.34-10.35a23.43 23.43 0 014.14-7 16.77 16.77 0 017.13-4.49l11.38-5.03a1.58 1.58 0 011.27 2.88l-11.5 5.06h-.12a13.79 13.79 0 00-5.86 3.68 22.78 22.78 0 00-3.45 5.63v.12L359 265.11a1.54 1.54 0 01-1.53 1.15z"/><path class="cls-13" d="M395.53 247.86a10 10 0 01-9.54-6.44 1.57 1.57 0 112.77-1.49 1.6 1.6 0 01.1.23 7.12 7.12 0 009 4.25h.14c.23 0 6-1.38 6-7.13a1.65 1.65 0 011.61-1.61 1.58 1.58 0 011.61 1.54v.07c0 6.56-5.41 9.43-8.4 10.12a9 9 0 01-3.29.46z"/><path class="cls-13" d="M405.54 238.89a1.43 1.43 0 01-1.5-1.35l-.92-9.31a1.57 1.57 0 113.09-.5v.15l.92 9.32a1.64 1.64 0 01-1.38 1.72z"/><path class="cls-13" d="M387.14 238.55a1.65 1.65 0 01-1.61-1.61v-3.8a1.61 1.61 0 013.22 0v3.8a1.58 1.58 0 01-1.54 1.61z"/><path class="cls-13" d="M395.19 323.65a16.12 16.12 0 01-11.19-4.49 197.85 197.85 0 01-19.32-23.23 1.56 1.56 0 012.53-1.84c7.36 10 14 18.17 19 22.77A12.89 12.89 0 00404 317l.35-.35c7.7-7.7 15.64-32.2 15.75-32.43a1.56 1.56 0 013 .92c-.34 1-8.28 25.42-16.44 33.7l-.46.46a16.23 16.23 0 01-11.01 4.35z"/><path class="cls-13" d="M395.3 302.37a1.5 1.5 0 01-.69-.11 1.57 1.57 0 01-.81-2.06l7.82-16.91a1.57 1.57 0 012.87 1.27l-7.82 16.9a1.48 1.48 0 01-1.37.91z"/><path class="cls-13" d="M396.57 305a2.28 2.28 0 01-.81-.23c-1.15-.69-2.64-1.84-4.83-3.45-3.68-2.76-9.31-6.9-18.4-12.88a1.58 1.58 0 011.73-2.65c9.2 6.1 14.83 10.24 18.51 13 2.07 1.49 3.57 2.64 4.6 3.22a1.6 1.6 0 01.46 2.18 1.25 1.25 0 01-1.26.81z"/><path class="cls-13" d="M415.89 331.35a1.61 1.61 0 01-1.52-1.69 1.59 1.59 0 01.48-1.07 8.93 8.93 0 002.65-4.94 15.94 15.94 0 00.23-5.29c-1.27-9.78 1-28.29 1-29.1a1.57 1.57 0 013.11.35c0 .23-2.3 19-1 28.29a16.83 16.83 0 01-.23 6.44 12.3 12.3 0 01-3.68 6.55 1.39 1.39 0 01-1.04.46z"/><path class="cls-10" d="M191.41 208.88l3.45 6a1.14 1.14 0 001.49.34l10.35-6a1.15 1.15 0 00.35-1.49l-11.16-19.44a1.14 1.14 0 00-1.49-.34l-.92.57c0 .12 2.41 13.69-2.07 20.36"/><path class="cls-3" d="M363.56 280.52l-3.1.12c-.23-.12-5.64-2.76-5.75-3l-2.42-2-4.29-12.25a.92.92 0 01.54-1.19.91.91 0 01.72 0l9.89.46a.75.75 0 01.46.57l5.18 16.1a1 1 0 01-.62 1.18.91.91 0 01-.61.01z"/><path class="cls-13" d="M361.72 282h-.34c-.35-.12-7.82-1.61-11.62-7.36a1.58 1.58 0 012.65-1.73c3.1 4.72 9.66 6 9.66 6.1a1.65 1.65 0 011.26 1.84 1.63 1.63 0 01-1.61 1.15z"/><path class="cls-13" d="M351.37 282.94a1.51 1.51 0 01-1.15-.46 7.32 7.32 0 01-2.3-5.41 6.57 6.57 0 012.08-4.37 1.55 1.55 0 012.26 2.13 1.54 1.54 0 01-.19.17 3.36 3.36 0 00-1 2.3 4.38 4.38 0 001.49 3.11 1.49 1.49 0 010 2.11l-.08.07a1.63 1.63 0 01-1.11.35z"/><path class="cls-13" d="M366.09 296.51H366c-12.42-.92-17.37-8.74-17.6-9.09-5.52-7.59-.34-11.84-.23-12a1.56 1.56 0 012 2.42c-.35.23-2.88 2.76.8 7.82.23.34 4.49 6.9 15.3 7.7a1.53 1.53 0 011.38 1.61 1.46 1.46 0 01-1.4 1.5z"/><path class="cls-13" d="M370.92 285.47a1.52 1.52 0 01-1.49-1.5c0-.11-.46-6.9-4.83-8.74a1.57 1.57 0 011.26-2.87c6.1 2.53 6.67 11 6.67 11.38a1.68 1.68 0 01-1.61 1.73z"/><path class="cls-13" d="M418.42 354h-.12a1.58 1.58 0 01-1.38-1.73c1-11.5-1.61-17-1.61-17a1.54 1.54 0 012.76-1.38c.12.23 3.11 6.21 2 18.75a1.62 1.62 0 01-1.65 1.36z"/><path class="cls-13" d="M387.6 336.18c-9.43 0-20-1.38-27.83-6.32a1.58 1.58 0 011.72-2.65c17.25 10.7 49.34 3.34 49.68 3.22a1.53 1.53 0 01.69 3 114.43 114.43 0 01-24.26 2.75z"/><path class="cls-13" d="M345.74 291.56a5.08 5.08 0 01-2.76-.8c-2.88-1.73-3.8-2.53-3.91-6.21a21.91 21.91 0 012.87-11.5l.12-.23a7.12 7.12 0 016.78-3.57 1.5 1.5 0 01-.23 3 4.29 4.29 0 00-3.91 2.07l-.11.12a19.07 19.07 0 00-2.42 9.89c0 2.18.12 2.3 2.42 3.56a2.29 2.29 0 002.53-.23 1.55 1.55 0 012.18 2.19 4.13 4.13 0 01-3.56 1.71z"/><path class="cls-13" d="M357.35 327.67a1.77 1.77 0 01-1.38-.8c-2.18-4-1-8.4-.11-12.19.23-.69.34-1.38.57-2.07.92-4.14 3.22-14.95 3.22-15.07a1.53 1.53 0 113 .69c0 .12-2.3 10.93-3.22 15.18a16.78 16.78 0 01-.57 2.19c-.92 3.45-1.84 7-.23 9.89a1.48 1.48 0 01-.52 2h-.06c-.12.07-.47.18-.7.18z"/><path class="cls-13" d="M356.09 317.78a4.65 4.65 0 01-2.07-.57c-4-2.53-6.21-13.69-7.82-24.27-.09-.62-.2-1.23-.35-1.84a1.18 1.18 0 01-.11-.92 1.6 1.6 0 011.61-1.38c1.38 0 1.49.81 1.95 3.68 2.07 13.23 4.14 20.7 6.44 22.08a.93.93 0 00.46.12 1.56 1.56 0 11.92 3 4 4 0 01-1.03.1z"/><path class="cls-13" d="M414.51 285.93a44.92 44.92 0 01-13-1.61 1.48 1.48 0 01-1-1.8l2.49-10.85a1.53 1.53 0 113 .69l-2.19 9.31c7.36 1.84 17.14.92 20.59.46.11-4.48 1.15-12 1.15-12.3 3.45-16.1-3.68-20.47-4-20.7l-16.33-10.58a1.58 1.58 0 111.73-2.65l16.33 10.58c.34.12 9.43 5.52 5.52 23.92a115.58 115.58 0 00-1.15 13 1.63 1.63 0 01-1.27 1.61 72.23 72.23 0 01-11.87.92z"/><path class="cls-13" d="M367.13 275.12a1.07 1.07 0 01-.58-.12 1.5 1.5 0 01-.94-1.89v-.06l3.11-8.28a1.53 1.53 0 112.92.9.69.69 0 01-.05.13l-3.1 8.28a1.48 1.48 0 01-1.36 1.04z"/><path class="cls-13" d="M353.56 353.32a1.65 1.65 0 01-1.61-1.61c0-12 4.14-19.09 4.25-19.32a1.65 1.65 0 012.19-.58 1.53 1.53 0 01.57 2.07 39.14 39.14 0 00-3.91 17.83 1.47 1.47 0 01-1.33 1.6z"/><path class="cls-13" d="M180 225.44h-.23a1.6 1.6 0 01-1.26-1.84l.92-5.41a1.58 1.58 0 113.1.58l-.92 5.4a1.84 1.84 0 01-1.61 1.27z"/><path class="cls-13" d="M186 193.47h-.23a1.6 1.6 0 01-1.26-1.84l.34-1.84a1.58 1.58 0 113.11.57l-.35 1.84a1.63 1.63 0 01-1.61 1.27z"/><path class="cls-13" d="M169.1 194.85h-.23a1.6 1.6 0 01-1.27-1.85l.35-1.84a1.58 1.58 0 113.1.57l-.46 1.84a1.59 1.59 0 01-1.49 1.28z"/><path class="cls-13" d="M176.46 219.69a24 24 0 01-6.9-1c-4.83-1.49-11-6.44-13.69-13.8a8.76 8.76 0 01-6.32-7.7c-.46-5.64 3.1-7.71 5.06-8.05a1.58 1.58 0 11.57 3.1c-.46.12-2.87.81-2.53 4.72.35 4.37 4.49 5.06 4.6 5.17a1.65 1.65 0 011.27 1 19.94 19.94 0 0012 12.53c5.86 1.84 12 .92 15.87-2.41 12-10.47 4.94-31.28 4.83-31.51a1.53 1.53 0 012.87-1 49.12 49.12 0 012.3 12.77c.35 9.43-2.41 17.13-8 22.08a17.26 17.26 0 01-11.93 4.1z"/><path class="cls-13" d="M178 187a1.84 1.84 0 01-1.26-.58 1.51 1.51 0 01.29-2.14.1.1 0 01.05 0c4.14-3.11 4-10 4-10.12a1.55 1.55 0 013.1-.12c0 .35.23 8.51-5.29 12.65a1 1 0 01-.89.31z"/><path class="cls-13" d="M158.75 189.21a1.43 1.43 0 01-1.5-1.35 1.63 1.63 0 011.38-1.72l8.74-.81a6 6 0 004.83-3.22 15.87 15.87 0 001-2.3 1.57 1.57 0 113 1 1.15 1.15 0 01-.1.23s-.46 1.15-1.15 2.53a9.21 9.21 0 01-7.36 4.83l-8.74.8z"/><path class="cls-13" d="M203.94 193.35a1.58 1.58 0 01-1.61-1.54v-.07a35.83 35.83 0 00-4.25-18.28c-6.67-12.08-15.87-11.85-16.22-11.85a1.48 1.48 0 01-1.6-1.35.71.71 0 010-.14 1.54 1.54 0 011.47-1.61c.46 0 11.5-.46 19.09 13.45a40.27 40.27 0 014.6 19.9 1.52 1.52 0 01-1.48 1.49z"/><path class="cls-13" d="M164.5 223.71a16.71 16.71 0 01-8.74-2.18c-17.37-10.7-13.8-32.66-13.8-32.89 1.61-11.73 6-20.24 13.11-25.3a29.54 29.54 0 0121.16-4.83 1.58 1.58 0 01-.58 3.1 26.14 26.14 0 00-18.74 4.26c-6.44 4.6-10.35 12.42-11.85 23.23 0 .23-3.22 20.24 12.31 29.78a14.75 14.75 0 009.31 1.61 24.62 24.62 0 01-2.41-4.71 1.53 1.53 0 112.82-1.17.69.69 0 010 .13c.46 1.15 1.84 4.37 3.45 5.64A1.48 1.48 0 01170 223a25.67 25.67 0 01-5.5.71z"/><path class="cls-13" d="M183.82 250.51a10.07 10.07 0 01-3.8-.69 1.58 1.58 0 111-3l.23.1a8 8 0 003.79.35 2.51 2.51 0 001.73-1.5c1.84-3.91-1.84-13-3.45-16.21a1.54 1.54 0 012.76-1.38c.69 1.26 6.21 12.88 3.45 18.86a5.86 5.86 0 01-3.91 3.22 4.6 4.6 0 01-1.8.25z"/><path class="cls-13" d="M155.64 310.08c-16.9 0-22.88-43.13-23.57-54.74-.92-15.53 8.39-20.59 8.74-20.82l18.51-10.46a1.52 1.52 0 111.5 2.64l-18.52 10.58c-.34.23-7.93 4.49-7.13 17.83 1 17.59 8.28 51.86 20.47 51.86h.12c8.16-.11 12.42-9.77 19.55-44.73l1-4.26c0-.11.12-.23.12-.34s6.21-12.42-.12-16.22l-2.64-1.26a1.54 1.54 0 011.38-2.76l2.76 1.26a.11.11 0 01.11.12c8.4 4.94 2.3 18.4 1.38 20.12l-.92 4.14c-7.13 34.73-11.61 47-22.54 47.27-.08-.23-.08-.23-.2-.23z"/><path class="cls-13" d="M157.48 276.38a1.58 1.58 0 01-1.49-1.26c-.92-5.18-2.53-14.15-2.53-14.95a1.65 1.65 0 011.61-1.61 1.72 1.72 0 011.61 1.49c.11.92 1.49 9.32 2.41 14.38a1.74 1.74 0 01-1.26 1.84.41.41 0 01-.35.11z"/><path class="cls-13" d="M153.46 288.92h-.23a1.63 1.63 0 01-1.38-1.73 42.42 42.42 0 014.14-12.3.11.11 0 01.11-.12l7.82-12a1.58 1.58 0 112.65 1.73l-7.82 11.84a38.68 38.68 0 00-3.8 11.16 1.59 1.59 0 01-1.49 1.42z"/><path class="cls-13" d="M204.17 278.22a2 2 0 01-.8-.23 1.6 1.6 0 01-.46-2.18c7.13-11.39.69-20-1.73-23.35a9.35 9.35 0 01-.57-.8c-1.38-2.07-10-20.93-11-23.12a1.57 1.57 0 012.77-1.49 1.6 1.6 0 01.1.23c3.8 8.28 9.89 21.27 10.81 22.65.12.23.35.46.46.69 2.53 3.34 10.12 13.69 1.84 26.8a1.76 1.76 0 01-1.42.8z"/><path class="cls-13" d="M206.47 239.7a1.42 1.42 0 01-1.15-.58 24.69 24.69 0 00-8-6.44l-17.13-9a1.54 1.54 0 011.38-2.76l17.13 9a28.91 28.91 0 019 7.25 1.49 1.49 0 01-.15 2.12l-.08.06a1.31 1.31 0 01-1 .35z"/><path class="cls-13" d="M164.73 262.12a1.5 1.5 0 01-1.38-.8l-3.91-6.56a10 10 0 01-1.5-5.06v-4.83a1.65 1.65 0 011.61-1.61 1.58 1.58 0 011.61 1.54v4.9a6.06 6.06 0 001 3.45l4 6.56a1.57 1.57 0 01-.51 2.15h-.06a1.75 1.75 0 01-.86.26z"/><path class="cls-13" d="M166.34 251a1.65 1.65 0 01-1.61-1.61c0-4.6-.46-10.12-1.15-11.16a2.29 2.29 0 01-.12-2.64 3 3 0 013.34-.92c2.53.69 5.52 3.56 6.21 9.66a1.57 1.57 0 01-3.09.5v-.16c-.46-4.14-2-5.86-2.87-6.55-.12 0-.12-.12-.23-.12.92 3.34 1 9.32 1 11.39a1.43 1.43 0 01-1.23 1.6z"/><path class="cls-13" d="M176.34 245.22a1.64 1.64 0 01-1.61-1.5c0-.57-.23-5.4-6.21-5.52a1.55 1.55 0 11.12-3.1c7.36.11 9.31 5.63 9.31 8.62a1.72 1.72 0 01-1.61 1.5z"/><path class="cls-13" d="M163.12 247.75a1.6 1.6 0 01-1.5-1.15c-2.76-10.47-14-11.85-14.14-11.85a1.63 1.63 0 01-1.38-1.75 1.55 1.55 0 011.72-1.38c.58.11 13.57 1.61 16.79 14.14a1.56 1.56 0 01-1.09 1.94h-.06z"/><path class="cls-13" d="M165.42 237.63a1.26 1.26 0 01-1-.46c-6.55-6.33-9.66-6.33-10.69-6.21a1.56 1.56 0 01-.12-3.11c1.61 0 5.52-.11 13 7.13a1.62 1.62 0 010 2.19 1.51 1.51 0 01-1.19.46z"/><path class="cls-13" d="M160 343.43c-4.48 0-9.77-1-14.72-2-2.64-.46-5.06-.92-7.36-1.26-4.71-.69-7.7-2.07-9.2-4.37-2.18-3.22-1-7.59.35-13.11.23-.81.46-1.61.69-2.53 2.53-10 6.32-39.1 6.32-39.45a1.56 1.56 0 013.12.19.86.86 0 010 .16c-.12 1.15-3.91 29.67-6.44 39.79-.23.92-.46 1.72-.69 2.53-1.27 4.71-2.19 8.39-.81 10.58.92 1.49 3.34 2.41 7 3 2.41.34 4.94.8 7.47 1.38 10.12 1.95 20.59 4 22.89-2.3 3.1-8.86 3.1-32.09 3.1-56.7v-.57a1.65 1.65 0 011.61-1.61 1.58 1.58 0 011.61 1.54v.64c0 25.88 0 48.3-3.33 57.73-1.71 4.86-6.19 6.36-11.61 6.36z"/><path class="cls-13" d="M218.32 354.12a1.6 1.6 0 01-1.5-1.26 120.55 120.55 0 00-12.76-37.72c-2.65-5.29-4.49-8.74-3.68-12.31 2.53-12 3.56-27.37 3.68-27.48a1.55 1.55 0 113.1.11 224.81 224.81 0 01-3.68 28c-.57 2.53.92 5.4 3.45 10.23 3.8 7.36 9.43 18.52 13 38.53a1.75 1.75 0 01-1.27 1.84.4.4 0 01-.34.06z"/><path class="cls-13" d="M131.15 356.19h-.35a1.55 1.55 0 01-1.15-1.84c2.65-11.73 5.87-16.33 6-16.56a1.56 1.56 0 012.53 1.84c0 .12-3 4.49-5.52 15.41a1.4 1.4 0 01-1.51 1.15z"/><path class="cls-13" d="M221.19 271.78a26.39 26.39 0 01-13.34-3.78 1.52 1.52 0 011.5-2.65c5.4 3.11 11.38 4.14 16.33 2.76a12.29 12.29 0 007.24-5.17c5-8.63-7.47-23.69-13.45-30.94-.58-.69-1-1.26-1.5-1.84a60.4 60.4 0 01-6.9-10.69 29 29 0 01-1.95-4.6 1.39 1.39 0 01-.12-.69l.92-8.51v-.23a3.85 3.85 0 00-.11-2.53l-6.33-8.91a.3.3 0 00-.46 0 1.56 1.56 0 11-2.53-1.84 3.66 3.66 0 012.76-1.26 3.36 3.36 0 012.65 1.38l6.44 9c.11.11.11.23.23.34a6.73 6.73 0 01.23 4.49l-.92 8c.23.57.8 2 1.72 3.91a54.11 54.11 0 006.56 10.12c.46.57.92 1.15 1.49 1.84 6.9 8.39 19.78 24 13.69 34.5a14.86 14.86 0 01-9.09 6.67 17.6 17.6 0 01-5.06.63z"/><path class="cls-13" d="M218.78 261.32a2.65 2.65 0 01-.92-.23c-4-2.76-8.51-10.12-10.58-17.25a160.72 160.72 0 00-6.21-18.17c-2-4.72-3.22-8.28-3.22-8.28a1.53 1.53 0 112.82-1.17.69.69 0 01.05.13s1.38 3.57 3.22 8.17a177.84 177.84 0 016.33 18.48c1.84 6.44 5.86 13.23 9.31 15.53a1.62 1.62 0 01.46 2.18 1.48 1.48 0 01-1.26.61z"/><path class="cls-13" d="M175.77 211.41h-.12a8.31 8.31 0 01-7.82-6.56 1.46 1.46 0 01.81-1.61 1.57 1.57 0 011.84.23c3.22 3.22 8.85 2.53 8.85 2.53a1.57 1.57 0 11.5 3.09h-.15c-.12 0-1.15.11-2.65.11a2.09 2.09 0 01.23.81 1.51 1.51 0 01-1.49 1.4z"/><path class="cls-13" d="M194.51 223.14a13.14 13.14 0 01-11.38-5.64 1.52 1.52 0 112.64-1.49c.12.23 2.65 4.37 9.32 4a1.49 1.49 0 011.6 1.35.76.76 0 010 .15 1.54 1.54 0 01-1.47 1.61h-.72z"/><path class="cls-13" d="M550.32 401.39H550a1.55 1.55 0 01-1.15-1.84c3.45-15.76-5.52-20.47-6-20.7a1.54 1.54 0 011.38-2.76c.46.23 11.73 5.86 7.59 24.15a1.6 1.6 0 01-1.5 1.15z"/><path class="cls-13" d="M500.64 401.62a1.49 1.49 0 01-1.49-1.27c-5.29-23.23 13.34-29.78 13.57-29.78 17.82-6.67 27.48 2.53 27.94 3a1.54 1.54 0 01-2.18 2.18c-.35-.34-8.74-8.28-24.73-2.3-.69.23-16.21 5.87-11.61 26.22a1.5 1.5 0 01-1.08 1.82h-.07a.44.44 0 01-.35.13z"/><path class="cls-13" d="M524.45 447.62c-3.8 0-6.56-1-8.17-3.22-2.76-3.68-1.26-9-.8-10.12l.34-3.91a1.57 1.57 0 013.11.34l-.35 4.14a.83.83 0 01-.11.46s-1.73 4.72.34 7.36c1.27 1.61 3.68 2.3 7.25 2a1.56 1.56 0 01.5 3.08h-.16a11.6 11.6 0 00-1.95-.13z"/><path class="cls-13" d="M458.09 496.72a1.83 1.83 0 01-1.26-.57A1.51 1.51 0 01457 494l.08-.06c7-5.63 18.05-10.81 24-13.57 1.5-.69 3-1.38 3.57-1.72.92-2.19 4-15.07 6.55-26.57 3.11-13 16.33-17.36 19.67-17.36h.13a1.64 1.64 0 011.5 1.61 1.55 1.55 0 01-1.61 1.49h-.12c-2.41 0-14 3.8-16.67 15-6.1 26.8-6.9 27.72-7.36 28.06s-1.15.81-4.6 2.3c-5.87 2.65-16.79 7.71-23.46 13.11.1.32-.24.43-.59.43z"/><path class="cls-13" d="M549.86 428.53a1.43 1.43 0 01-1.49-1.36 1.63 1.63 0 011.38-1.73 5.56 5.56 0 004.83-3.33c1.84-3.91-.81-7-2.65-8.51a1.55 1.55 0 012.07-2.3c2 1.72 6.21 6.32 3.34 12.19a8.56 8.56 0 01-7.36 5.06z"/><path class="cls-13" d="M552.51 487.64a1.6 1.6 0 01-1.5-1.27l-5.52-32.89a1.58 1.58 0 013.11-.57l5.4 32.77a1.73 1.73 0 01-1.26 1.84.35.35 0 01-.23.12z"/><path class="cls-13" d="M549.17 508.45c-7.93 0-13.91-5.29-17.13-15.18a53.35 53.35 0 01-2.53-14.72L528.24 450a1.81 1.81 0 01.92-1.49 1.57 1.57 0 011.73.23c6.21 5.4 11 1.84 11.27 1.61a1.55 1.55 0 012 2.41c-2.07 1.61-6.9 3.34-12.42.23l1.15 25.42c0 .34.58 26.91 16.56 26.91h.12a11.94 11.94 0 0011.5-8.28c4-12.31 2.18-34.39 2.07-34.62-.92-17.94-9.89-21.85-13.69-23.46l-.57-.23a1.57 1.57 0 011.26-2.87l.46.23c3.91 1.72 14.49 6.32 15.53 26.1.11.92 1.95 22.77-2.3 35.77a15.37 15.37 0 01-14.49 10.46z"/><path class="cls-4" d="M540 409.09l8.74 13.46c.23 0-1.15-.69-1-1l7.59-20.12a1 1 0 00-.27-1.34.94.94 0 00-.65-.16l-12 2c-.23 0-.46.23-.69.46l-1.15 4.6c-.37.61-1.4 2.1-.57 2.1z"/><path class="cls-13" d="M543.88 450.49a1.44 1.44 0 01-1.49-1.4V449l-.69-9.55a1.5 1.5 0 01.11-.69l5-11.15a6.37 6.37 0 00.46-3.8l-6.56-13.68a1.56 1.56 0 00-.69-.58.85.85 0 00-.8.23 1.55 1.55 0 01-2.07-2.3 4.08 4.08 0 016.44 1.15l6.67 13.8c0 .12.11.23.11.35a10.23 10.23 0 01-.69 5.86l-4.83 10.81.58 9.09a1.66 1.66 0 01-1.33 1.93h-.17z"/><path class="cls-13" d="M540.55 421.63a1.5 1.5 0 01-1.38-.92l-2.76-6.79a1.57 1.57 0 012.87-1.26l2.76 6.78a1.57 1.57 0 01-.79 2.07c-.25 0-.47.12-.7.12z"/><path class="cls-13" d="M530.43 452.45a1.72 1.72 0 01-1.61-1.5l-.46-8.74a11 11 0 01.34-5.52l3-7.24-.46-3.57c-1.15-6.09 1.15-8.39 1.5-8.74a1.55 1.55 0 012.07 2.3c-.12.12-1.27 1.61-.46 6l.57 4a2 2 0 01-.11.8l-3.11 7.59a7.53 7.53 0 00-.23 3.91v.26l.46 9a1.33 1.33 0 01-1.49 1.5z"/><path class="cls-13" d="M520.54 424.16a1.64 1.64 0 01-1.61-1.5 2 2 0 01.23-.92 19.51 19.51 0 01-2.76-.23 1.55 1.55 0 01-1.15-1.84 1.73 1.73 0 011.84-1.26c.11 0 5.75 1.15 9.31-1.84a1.55 1.55 0 011.84-.12 1.64 1.64 0 01.69 1.73c-.34 2.07-2.87 6-8.39 6z"/><ellipse class="cls-5" cx="524.41" cy="403.49" rx="6.9" ry="5.63" transform="rotate(-86.03 524.411 403.482)"/><path class="cls-13" d="M524.22 411.85h-.46a6.22 6.22 0 01-5-3 9.6 9.6 0 01-1.61-6 9.32 9.32 0 012.42-5.75 6.48 6.48 0 019.15-.59 6.69 6.69 0 011.2 1.4 9.6 9.6 0 011.61 6 9.36 9.36 0 01-2.42 5.75 7 7 0 01-4.89 2.19zm.23-13.8a3.84 3.84 0 00-2.65 1.27 6.08 6.08 0 00-1.61 3.79 6.08 6.08 0 001 4 3.21 3.21 0 002.64 1.61 3.35 3.35 0 002.88-1.27 6.45 6.45 0 00.57-7.82 3.21 3.21 0 00-2.64-1.61z"/><path class="cls-13" d="M518.12 405.18h-.23l-6.67-.8a1.57 1.57 0 01.35-3.11l6.67.81a1.64 1.64 0 011.38 1.72 1.43 1.43 0 01-1.47 1.38z"/><path class="cls-13" d="M539.4 399.89h-.12c-19.2-1.72-22.77-18.05-22.77-18.17a1.64 1.64 0 011.27-1.84 1.54 1.54 0 011.82 1.19v.08c.11.57 3.22 14.14 20.12 15.75a1.56 1.56 0 011.38 1.73 1.86 1.86 0 01-1.7 1.26z"/><path class="cls-13" d="M490.52 510a1.51 1.51 0 01-1.15-.46 1.54 1.54 0 01-.11-2c.11-.11.11-.23.23-.34.8-1.15 7.82-11.27 5.4-23s6.11-23.2 6.44-23.7a1.55 1.55 0 012.42 1.95c-.12.12-8.05 10.7-5.87 21.16 2.42 12-3.68 22.77-6 25.53-.23.35-.46.58-.57.58a1 1 0 01-.79.28z"/><path class="cls-13" d="M523.18 526.28h-.11c-19.78-1.61-30.71-12.77-31.17-13.23a1.55 1.55 0 012.19-2.18c.11.11 10.69 10.81 29.21 12.3a1.58 1.58 0 011.38 1.73 1.61 1.61 0 01-1.5 1.38z"/><path class="cls-13" d="M519.5 431.75c-7.24 0-14.83-3.68-18.74-16.79a37.56 37.56 0 01-.58-19.09 20.92 20.92 0 0111.62-14.49 1.66 1.66 0 01.69-.23 1.53 1.53 0 111.17 2.82h-.14l-.46.23a17.86 17.86 0 00-9.89 12.31 33.88 33.88 0 00.58 17.48c3.68 12.07 10.69 16.56 21.73 13.68a27.57 27.57 0 006.21-2.41 1.54 1.54 0 011.38 2.76 29.89 29.89 0 01-6.9 2.64 25.56 25.56 0 01-6.67 1.09z"/><ellipse class="cls-5" cx="505.78" cy="402.3" rx="6.9" ry="5.63" transform="rotate(-86.03 505.784 402.302)"/><path class="cls-13" d="M505.59 410.7h-.46c-3.91-.23-6.9-4.25-6.56-9s3.8-8.16 7.71-7.93 6.9 4.25 6.55 9c-.23 4.48-3.56 7.93-7.24 7.93zm.23-13.8c-2.19 0-4 2.19-4.26 5.06s1.5 5.41 3.68 5.64 4.26-2.07 4.49-5.06-1.5-5.41-3.68-5.64z"/><path class="cls-13" d="M582.29 454.86h-.23l-19.32-2.18a1.57 1.57 0 01.19-3.13h.16l19.32 2.19a1.64 1.64 0 011.38 1.72 1.43 1.43 0 01-1.47 1.38z"/><path class="cls-13" d="M557.11 517.19h-.35a1.65 1.65 0 01-1.26-1.84 37.68 37.68 0 00.23-9.31 1.63 1.63 0 011.38-1.73 1.57 1.57 0 011.72 1.38 40.84 40.84 0 01-.34 10.24 1.3 1.3 0 01-1.33 1.26z"/><path class="cls-13" d="M509.5 555.37a1.58 1.58 0 01-1.61-1.54v-.07l.11-10v-.23c1.38-7.71 11.85-10.7 12.31-10.81l60.37-19.9a1.56 1.56 0 11.92 3l-60.49 19.9c-.11 0-9 2.53-10.12 8.16l-.11 9.78a1.35 1.35 0 01-.91 1.67 1.48 1.48 0 01-.47.04z"/><path class="cls-13" d="M569.3 532.83a1.63 1.63 0 01-1.5-1 1.51 1.51 0 01.92-1.92h.12l10.92-3.56V509.6a1.65 1.65 0 011.61-1.61 1.58 1.58 0 011.61 1.54v17.78a1.65 1.65 0 01-1 1.5l-12 4z"/><path class="cls-13" d="M581.26 536.05a1.65 1.65 0 01-1.61-1.61v-7.13a1.65 1.65 0 011.61-1.61 1.58 1.58 0 011.61 1.54v7.2a1.72 1.72 0 01-1.61 1.61z"/><path class="cls-13" d="M456.37 530a1.85 1.85 0 01-1-.35 1.49 1.49 0 01-.18-2.1.27.27 0 01.07-.08c11.8-13.47 30.89-17.98 31.74-18.21a1.53 1.53 0 11.69 3c-.23 0-18.86 4.48-30.13 17.13a1.42 1.42 0 01-1.19.61z"/><path class="cls-5" d="M605.41 448.54l.34 2.41-1.61 2.65-11.27-.69-1.26-2.88 1.15-2.53 12.65 1.04z"/><path class="cls-13" d="M504.21 555.14a1.65 1.65 0 01-1.61-1.61v-7.36a16.8 16.8 0 017.93-14.17 43.68 43.68 0 015.41-2.65l63.59-20.93c.12-6.44.58-39.56.69-51.63q0-6.21 3.11-9a9.13 9.13 0 016.9-2.19c2.3.12 9.89.69 10.23.81l3.57.34a3.68 3.68 0 012.64 1.5 3.62 3.62 0 01.58 2.87l-.23.92a4.25 4.25 0 01-4.49 3.34l-8.74-.46a4 4 0 01-3.68-3.68l-.11-2.42a5.76 5.76 0 00-4.6 1.38c-1.38 1.27-2.07 3.57-2.07 6.79-.12 13.45-.69 52.44-.69 52.78a1.65 1.65 0 01-1 1.5L517 532.6a31 31 0 00-4.83 2.3 13.38 13.38 0 00-6.44 11.5v7.36c.09.69-.6 1.38-1.52 1.38zm89-106.26l.11 2.07a.86.86 0 00.69.81l8.74.46a1.25 1.25 0 001.27-.92l.23-.92c0-.23 0-.35-.12-.35s-.11-.23-.34-.23l-3.57-.34c.13-.12-3.9-.35-7-.58z"/><path class="cls-13" d="M528.13 555.37a1.41 1.41 0 01-1.15-.46 1.49 1.49 0 010-2.11l.08-.07a56.11 56.11 0 0122.54-13.23c8.63-2.53 16.91-2.3 24 .69a1.58 1.58 0 01-1.27 2.88c-6.44-2.65-14.14-2.88-22-.58A52.58 52.58 0 00529.16 555a1.6 1.6 0 01-1.03.37z"/><path class="cls-13" d="M517.43 555.72a1.82 1.82 0 01-1-.35 1.48 1.48 0 01-.19-2.1l.07-.08c9-10.47 20.36-18.06 32.09-21.39 12.88-3.68 25.18-2.3 34.61 4.14a1.58 1.58 0 01-1.72 2.64c-8.63-5.86-20-7.24-32-3.79-11.16 3.22-22.08 10.46-30.59 20.47a1.74 1.74 0 01-1.27.46z"/><path class="cls-13" d="M457.17 529a1.58 1.58 0 01-1.61-1.54v-.07l.12-10a1.55 1.55 0 011.6-1.49 1.55 1.55 0 011.49 1.6l-.11 10a1.54 1.54 0 01-1.49 1.5z"/><path class="cls-13" d="M462.46 512.59a1.63 1.63 0 01-1.49-1 1.6 1.6 0 011-2l31.86-10.35a1.56 1.56 0 01.92 3l-31.86 10.35z"/><path class="cls-13" d="M450.62 526.85a1.65 1.65 0 01-1.61-1.61v-3a1.65 1.65 0 011.61-1.61 1.58 1.58 0 011.61 1.54v3.06a1.65 1.65 0 01-1.61 1.62z"/><path class="cls-13" d="M466.72 506a1.63 1.63 0 01-1.5-1 1.53 1.53 0 01.92-1.95l28.64-9.66a1.53 1.53 0 111.17 2.82l-.14.05-28.63 9.66c-.12.08-.18.08-.46.08z"/><path class="cls-13" d="M454.64 520.53h-.11a1.4 1.4 0 01-1.15-.69 6.9 6.9 0 01.34-8.51l1.27-4a1.56 1.56 0 013 .92l-1.27 4.37a2.59 2.59 0 01-.34.58 3.54 3.54 0 00-1 3.1l3.45-3.33a51.06 51.06 0 003.45-6.9 1.55 1.55 0 011.84-1.15 1.49 1.49 0 011.17 1.76v.08a53.54 53.54 0 01-3.91 7.93c-.11.12-.23.23-.23.35l-5.29 5.06a1.69 1.69 0 01-1.22.43z"/><path class="cls-13" d="M447.05 526.05a1.59 1.59 0 01-1.49-1l-2.56-6.59a7 7 0 01-.58-4.6l1-5.87a8.61 8.61 0 013.56-5.75l6.56-5.63a1.55 1.55 0 111.95 2.41l-6.67 5.64a.11.11 0 00-.11.11 5.51 5.51 0 00-2.3 3.8l-1 5.86a6 6 0 00.35 2.88l2.64 6.67a1.62 1.62 0 01-.92 2.07z"/><path class="cls-13" d="M465.57 506.15h-.23a1.63 1.63 0 01-1.38-1.72c0-.12.34-3.57-1.38-5.75a5.38 5.38 0 00-3.68-1.84 1.57 1.57 0 01.34-3.11 8.16 8.16 0 015.87 3c2.64 3.22 2.07 7.82 2.07 8a1.62 1.62 0 01-1.61 1.42z"/><path class="cls-13" d="M296.06 412.54a1.7 1.7 0 01-1.61-1.49l-.12-2.19a1.56 1.56 0 113.11-.11l.11 2.18a1.54 1.54 0 01-1.47 1.61z"/><path class="cls-13" d="M306 428.87a9.83 9.83 0 01-2.65-.34 1.53 1.53 0 01.69-3c.46.11 4.72 1 7.13-2a1.56 1.56 0 112.42 2 9.3 9.3 0 01-7.59 3.34z"/><path class="cls-13" d="M218.32 479.82a1.43 1.43 0 01-1.5-1.36l-.11-1.73a1.63 1.63 0 011.38-1.72 1.55 1.55 0 011.72 1.38l.12 1.72a1.64 1.64 0 01-1.38 1.73z"/><path class="cls-13" d="M205.09 484.88a1.43 1.43 0 01-1.49-1.36l-.12-1.73a1.57 1.57 0 013.11-.34l.11 1.72a1.63 1.63 0 01-1.38 1.73z"/><path class="cls-13" d="M211.3 496.72a9.2 9.2 0 01-6.09-2.41 1.55 1.55 0 011.95-2.42 6 6 0 006 1.38 1.53 1.53 0 111.17 2.83h-.13a6.8 6.8 0 01-2.9.62z"/><path class="cls-13" d="M195.55 546.75a1.5 1.5 0 01-1.5-1c0-.11-5.17-13.8-10.92-17.36a1.58 1.58 0 011.72-2.65c3.8 2.3 7.13 7.94 9.43 12.54a29.93 29.93 0 00-7.7-19.09 10 10 0 00-4.72 6 1.53 1.53 0 11-3-.69c1.38-6.1 7.13-8.51 7.36-8.63a1.61 1.61 0 011.61.23c.46.46 11.5 10.12 9.2 29.21a1.73 1.73 0 01-1.38 1.38c.01.06.01.06-.1.06z"/><path class="cls-13" d="M172.09 559.86h-.35a1.55 1.55 0 01-1.15-1.84c3.34-14.26 5.87-26 5.87-26.11a1.53 1.53 0 113 .69c0 .12-2.65 11.73-5.87 26.11a1.63 1.63 0 01-1.5 1.15z"/><path class="cls-13" d="M189.34 564.57H189a1.59 1.59 0 01-1.26-1.84c1.84-9.66 2.53-15.06 2.53-15.06a1.56 1.56 0 013.1.34s-.69 5.52-2.53 15.3a1.48 1.48 0 01-1.5 1.26z"/><path class="cls-13" d="M232 541.11a1 1 0 01-.57-.11 1.64 1.64 0 01-.92-2c0-.11 4.14-11.15-3-21.5-1.27-1.73-6.9-3.11-10.47-3.45a1.48 1.48 0 01-.92-.46c-3.68-3.8-1.72-9.32-1.72-9.55a1.53 1.53 0 012.92.9.78.78 0 01-.05.14c0 .11-1.15 3.68.69 6 2.53.34 9.89 1.49 12.08 4.71a27.27 27.27 0 013.33 24.38 1.48 1.48 0 01-1.37.94z"/><path class="cls-13" d="M312.5 415.3a1.71 1.71 0 01-1.61-1.49v-2.42a1.56 1.56 0 113.11-.11v2.41a1.55 1.55 0 01-1.5 1.61z"/><path class="cls-13" d="M322.51 426.69a1.35 1.35 0 01-.69-.12 1.43 1.43 0 01-.8-1.85.91.91 0 01.11-.22 31.62 31.62 0 001.84-4.83 1.53 1.53 0 113 .69 34.68 34.68 0 01-2.07 5.41 1.52 1.52 0 01-1.39.92z"/><path class="cls-13" d="M304.91 437.38a18.43 18.43 0 01-10.58-3.1 21.13 21.13 0 01-8.62-13.69 47.42 47.42 0 011.49-20.81 1.56 1.56 0 113 .92 41.81 41.81 0 00-1.38 19.43 17.81 17.81 0 007.25 11.62c3.79 2.53 8.51 3.22 14 1.95.92-.34 8.16-3.45 11-9.2a1.54 1.54 0 112.76 1.38c-3.57 7.13-12.42 10.58-12.77 10.7-.11 0-.11 0-.23.11a35.35 35.35 0 01-5.92.69z"/><path class="cls-13" d="M211.65 505.92a25.72 25.72 0 01-5-.57 19.61 19.61 0 01-7.7-3.91A1.55 1.55 0 01201 499a17.32 17.32 0 006.44 3.34c5.52 1.26 10.93 0 14.15-3.45 8.39-8.86 1.49-24-.35-27.72a6.79 6.79 0 01-6.55-5.17c-.46-1.61-2.53-2.88-4.26-3.57a9.2 9.2 0 01-4.6 6.9 23.18 23.18 0 01-2.53 1 8 8 0 00-3 1.49 6.64 6.64 0 00-1.15 3.68v.58a12.71 12.71 0 01-1 4.94c-1.15 2.07-3.68 3.68-6.1 2.65a1.58 1.58 0 111-3l.23.1c.69.35 1.72-.46 2.07-1.26a9.29 9.29 0 00.69-3.68v-.58a8.33 8.33 0 012-5.52 9.18 9.18 0 014.37-2.41 8.56 8.56 0 002.07-.81 6.14 6.14 0 003-6.09 1.49 1.49 0 01.46-1.38 1.66 1.66 0 011.5-.35c.69.23 7.24 2 8.51 6.56.8 3.1 4 2.87 4.37 2.87a1.68 1.68 0 011.49.81c.46.8 11.39 20.47.23 32.2a18 18 0 01-12.39 4.79z"/><path class="cls-13" d="M186.46 490.05a1.83 1.83 0 01-1.26-.57 18.83 18.83 0 01-3.45-6c-2.07-9.32-.92-16.79 3.22-22.31 6.32-8.4 17.36-9.2 17.82-9.2a1.48 1.48 0 011.61 1.35v.14a1.54 1.54 0 01-1.47 1.61c-.12 0-10.12.81-15.53 8.05-3.56 4.83-4.48 11.39-2.64 19.67a17.64 17.64 0 002.87 4.83 1.49 1.49 0 01-.15 2.12l-.08.06a2.09 2.09 0 01-.94.25z"/><path class="cls-13" d="M224.87 475.56a1.44 1.44 0 01-1.49-1.4v-.09c-1.27-19-16-19.55-16.56-19.55a1.56 1.56 0 01.11-3.11c6.33.12 18.52 4.95 19.67 22.43a1.85 1.85 0 01-1.73 1.72z"/><path class="cls-13" d="M211.76 523.06c-4 0-13.22-.69-19-6.79l-5.29 2.42a1.58 1.58 0 11-1.5-2.78l.23-.1 6.33-2.87a1.43 1.43 0 011.84.46c5.63 6.78 16.67 6.67 18.74 6.55a10.77 10.77 0 004.6-5.17 1.53 1.53 0 012.93.9v.13a14.57 14.57 0 01-6.44 7.13c-.23.12-.35.12-.58.23-.02-.23-.71-.11-1.86-.11z"/><path class="cls-13" d="M218.78 567.22a1.5 1.5 0 01-1.5-1.38l-5.17-39.1a1.56 1.56 0 013.1-.35l5.18 39.1a1.54 1.54 0 01-1.34 1.72h-.27z"/><path class="cls-13" d="M193.94 515.47a1.48 1.48 0 01-1.15-.46 1.5 1.5 0 010-2.12l.08-.07c2.3-2.18 2.53-8.28 2.42-10.58a1.54 1.54 0 011.47-1.61 1.49 1.49 0 011.61 1.35v.15c0 .92.35 9.43-3.45 13a1.82 1.82 0 01-.98.34z"/><path class="cls-13" d="M309.63 459.46a.66.66 0 01-.46-.11 1.6 1.6 0 01-1-2l2.65-8.51a1.76 1.76 0 01.69-.92 7.26 7.26 0 002.64-2.64 1.54 1.54 0 112.76 1.38 8.53 8.53 0 01-3.33 3.68l-2.58 7.97c0 .81-.68 1.15-1.37 1.15z"/><path class="cls-13" d="M318 460.84h-.23a1.67 1.67 0 01-1.15-.8l-2.87-5.64a1.54 1.54 0 112.76-1.38l1.84 3.57a30.63 30.63 0 002.41-3.68c1.61-3.11 3.57-9-2.07-13.46a1.55 1.55 0 112-2.41c5.29 4.25 6.32 10.58 2.87 17.25a25.75 25.75 0 01-4.48 6.09 1.42 1.42 0 01-1.08.46z"/><path class="cls-13" d="M269.49 551.12a14.2 14.2 0 01-4.83-.81 1.56 1.56 0 01.92-3 11.12 11.12 0 008.86-.57 11 11 0 004.71-5.18c0-2.07.12-19.2 1.38-32.43 1.38-14 4.6-30.93 4.6-31.16a1.58 1.58 0 113.11.57c0 .12-3.11 17-4.6 30.94s-1.38 32.08-1.38 32.31v.21c-.12 1.15-2 4.72-5.52 7a13.37 13.37 0 01-7.25 2.12z"/><path class="cls-13" d="M297 459.46a1.64 1.64 0 01-1.15-.46c-.23-.23-6.79-6.9-6.1-14.14.35-3.68 2.53-6.9 6.33-9.43a1.58 1.58 0 111.72 2.64c-3 2-4.6 4.37-4.94 7.13-.46 4.26 2.53 8.51 4.14 10.47l3.1-3.11a1.55 1.55 0 012.19 2.19L298 459a1.13 1.13 0 01-1 .46z"/><path class="cls-13" d="M262.36 546.4a1.43 1.43 0 01-1.49-1.35c-2.76-28.75.34-58.53 8.74-83.83a12.13 12.13 0 015.29-6.67l15.1-9.35a1.58 1.58 0 011.73 2.65l-15.07 9.31a9.72 9.72 0 00-4 5.06c-8.28 24.84-11.39 54.17-8.63 82.57a1.63 1.63 0 01-1.38 1.73c-.17-.12-.17-.12-.29-.12z"/><path class="cls-13" d="M279.27 568.83a1.6 1.6 0 01-1.5-1.27 1.74 1.74 0 011.27-1.84c7.36-1.26 10-10.12 10-10.12a1.56 1.56 0 013 .92c-.11.46-3.22 10.81-12.53 12.42a.38.38 0 00-.24-.11z"/><path class="cls-13" d="M279.38 564a.82.82 0 01-.57-.12 18.73 18.73 0 01-11-12.76 1.58 1.58 0 013.1-.58 15.61 15.61 0 009.2 10.47 1.56 1.56 0 01.81 2.06 1.83 1.83 0 01-1.54.93z"/><path class="cls-13" d="M316 441a1.73 1.73 0 01-1.61-1.5l-.23-5.63a1.54 1.54 0 011.47-1.61 1.46 1.46 0 011.6 1.32 1 1 0 010 .17l.23 5.64A1.54 1.54 0 01316 441z"/><path class="cls-13" d="M316.87 542.49a1.72 1.72 0 01-1.61-1.61c1.38-21.62-5.52-73.83-5.86-76.93l-3.91-11.73c-3-1-7.59-3.91-7.59-9.89l-.46-6.56a1.56 1.56 0 013.1-.34l.46 6.67c0 5.75 5.75 7.13 6 7.24a1.51 1.51 0 011.15 1l4.24 12.66c0 .11 0 .23.11.23.35 2.3 7.36 55.2 6 77.74a1.61 1.61 0 01-1.63 1.52z"/><path class="cls-13" d="M332.4 557.79a1.41 1.41 0 01-1.15-.58 90.83 90.83 0 00-12.08-11.61 1.56 1.56 0 012-2.42A110.7 110.7 0 01332.51 554c3.57-3.68 7.71-10.35 8.63-11.84 1.26-24.15-9.55-69-9.55-69.46a1.53 1.53 0 113-.69c.46 1.84 11.16 46.34 9.66 70.72a1.53 1.53 0 01-.23.69c-.23.46-6 9.89-10.58 13.92a1.24 1.24 0 01-1.04.45z"/><path class="cls-13" d="M304.8 561.35h-.35c-.46-.11-11-2.87-16.21-9.43-4.14-5.29-7.36-5.06-7.36-5.06a1.46 1.46 0 01-1.61-1.3v-.08a1.63 1.63 0 011.38-1.72c.46 0 4.94-.35 10.12 6.32 3.56 4.6 10.81 7.13 13.45 7.94l9.09-13.57a1.58 1.58 0 012.64 1.72l-9.66 14.49a2.22 2.22 0 01-1.49.69z"/><path class="cls-13" d="M343.44 567.45h-.12a1.58 1.58 0 01-1.38-1.73c1.15-10.35-.69-16.33-.69-16.44a1.56 1.56 0 113-.92c.12.23 2 6.67.81 17.59a1.81 1.81 0 01-1.62 1.5z"/><path class="cls-13" d="M352.06 517.08c-6.67 0-11.15-5.75-12.76-9.43a1.58 1.58 0 112.77-1.5 2.29 2.29 0 01.1.23c.23.46 4.72 10.24 13.46 6.9a6.58 6.58 0 004-3.79c2.3-5.29-1-13.46-1-13.57l-15.3-35.77a18.88 18.88 0 00-9.77-9.31l-9.66-4a1.57 1.57 0 111-3 .94.94 0 01.23.1l9.66 4a21.61 21.61 0 0111.39 10.93l15.29 35.88c.12.34 3.91 9.43 1 16a10.09 10.09 0 01-5.87 5.41 14.16 14.16 0 01-4.54.92z"/><path d="M346.2 489.25l1.26-6.21a2.37 2.37 0 00-1.8-2.82 2.11 2.11 0 00-.61-.06h-11.5a2.47 2.47 0 00-2.42 2l-4.48 21.16a2.36 2.36 0 001.8 2.82 2.51 2.51 0 00.61 0h13.46" fill="none"/><path class="cls-12" d="M344.47 493.5l3-10.58a1.87 1.87 0 00-1.27-2.34 1.28 1.28 0 00-.34-.07l-12.07.11a1.78 1.78 0 00-2 1.38l-5.52 22.08a1.83 1.83 0 001.27 2.24 1.76 1.76 0 00.46.06h11.84a1.77 1.77 0 001.73-1.15z"/><path class="cls-9" d="M351.83 500.4l-6.09 4.14-7.82-.46-2.42-4.48 1.15-6.33 4.72-4.14 7.47.81 2.65 2.3"/><path class="cls-13" d="M342.86 506.38a11.91 11.91 0 01-7-2.07 1.07 1.07 0 01-.46-.57c-1.27-2.53-1.38-5.87-.35-9.78a8.59 8.59 0 017.48-6.32 14.75 14.75 0 016.09.46 7.84 7.84 0 014.83 4.37 8 8 0 01-.23 6.9l-.69 1.38a10 10 0 01-6.78 5.17 8.81 8.81 0 01-2.89.46zm-4.94-4.38a10.62 10.62 0 007.13 1 6.6 6.6 0 004.6-3.57l.69-1.38a4.94 4.94 0 00-2.15-6.64 6.57 6.57 0 00-.61-.26 11.35 11.35 0 00-4.95-.34 5.27 5.27 0 00-4.71 4c-.46 2.19-.92 5.02 0 7.19z"/><path class="cls-13" d="M270.07 570.21a1.6 1.6 0 01-1.5-1.27 34.27 34.27 0 01.35-15.18 1.56 1.56 0 013 .92 34.31 34.31 0 00-.35 13.8 1.63 1.63 0 01-1.26 1.84.38.38 0 00-.24-.11z"/><path class="cls-13" d="M193.48 497.18a7.87 7.87 0 01-7.36-4.94c-1.84-4.6.69-7.36 2.3-8.17a1.54 1.54 0 111.38 2.76c-.35.12-2 1.27-.81 4.26a4.82 4.82 0 004.83 3 1.56 1.56 0 01.35 3.1z"/><path class="cls-13" d="M231.89 541.11a1.6 1.6 0 01-1.5-1.26c0-.12-3.22-16.79-9.66-21.74a1.55 1.55 0 112-2.41c7.36 5.63 10.69 22.88 10.81 23.57a1.63 1.63 0 01-1.27 1.84z"/><path class="cls-13" d="M166 556.06a1.5 1.5 0 01-.69-.11 1.57 1.57 0 01-.81-2.06c3.22-7.13 6.67-22.66 6.67-22.89 1.84-11.84 10.92-13.57 11.27-13.68a1.58 1.58 0 11.57 3.1c-.34.12-7.24 1.5-8.85 11.16-.12.69-3.45 16.1-6.9 23.57a1.24 1.24 0 01-1.26.91z"/><path class="cls-13" d="M238.67 570.09a1.61 1.61 0 01-1.38-.8c-1.84-3.57-3.91-15.07-5.06-21.28-.34-1.61-.57-3.1-.69-3.45a1.59 1.59 0 013-1c.12.34.23 1 .69 3.79 1 5.64 3.11 17.25 4.72 20.47a1.52 1.52 0 01-.65 2.05.83.83 0 01-.63.22z"/><path class="cls-13" d="M247.87 569.86a1.49 1.49 0 01-1.38-.92 146.89 146.89 0 01-8.49-28.52c-3.33-17.59-9.89-22.42-10-22.54a1.56 1.56 0 111.84-2.53c.34.23 7.59 5.41 11.27 24.5a138.17 138.17 0 008.39 27.83 1.56 1.56 0 01-.79 2.06 2.48 2.48 0 01-.84.12z"/><path class="cls-13" d="M169.1 534.79a8.74 8.74 0 01-8.86-8.4 1.61 1.61 0 011.63-1.59 1.58 1.58 0 01.79.21 3.52 3.52 0 002.41.23 5.56 5.56 0 003.22-2.64c1.27-2.3 1.15-5.29 1.15-8.17v-.11c-.11-3.34 0-6.9 2-9.89 1.72-2.76 4.94-4.37 7.93-6.1s5.87-3.22 7.13-5.52a1.54 1.54 0 112.76 1.38c-1.61 3.22-5.06 5.06-8.39 6.79-2.88 1.49-5.52 3-6.79 5.06s-1.49 5.06-1.38 8.16v.12c.12 3.1.12 6.67-1.49 9.66a8.64 8.64 0 01-5.06 4.14 4 4 0 01-2 .23 6 6 0 002.42 2.64 5.49 5.49 0 004.25.46 1.61 1.61 0 11.81 3.11c-1.04.11-1.84.23-2.53.23z"/><path class="cls-13" d="M185.89 519a1.26 1.26 0 01-1-.46 1.61 1.61 0 01-.11-2.18c3.68-3.91 6.32-12.65 6-17a1.56 1.56 0 113.08-.5.77.77 0 010 .15c.46 5.06-2.41 14.72-6.78 19.44a1.41 1.41 0 01-1.19.55z"/><path class="cls-13" d="M293.87 401.62a8.46 8.46 0 01-6-2.07 1.55 1.55 0 012.19-2.19c1.26 1.27 4.25 1.5 6 .81a21 21 0 004.94-3.11l.69-.57a16.48 16.48 0 017.25-3.57c2.87-.34 6.55.92 7.7 4a1.53 1.53 0 01-2.87 1c-.58-1.61-2.65-2.3-4.37-2.07-2.07.23-3.91 1.61-5.75 2.88l-.69.57a20 20 0 01-5.87 3.57 6.75 6.75 0 01-3.22.75z"/><path class="cls-13" d="M324.46 421.4a1.59 1.59 0 01-.46-3.11 6.12 6.12 0 004.26-6.21 3.69 3.69 0 00-1.15-3 3.11 3.11 0 00-2.07-.34 1.32 1.32 0 01-.92 0 10.87 10.87 0 01-7-10.47 1.56 1.56 0 013.11.12 8 8 0 004.6 7.36 5.49 5.49 0 014.14.92 6.47 6.47 0 012.41 5.29 9.19 9.19 0 01-6.44 9.31.74.74 0 01-.48.13z"/><path class="cls-13" d="M330 410.59a2.65 2.65 0 01-.92-.23 1.65 1.65 0 01-.46-2.19c5.87-8.62-.92-15.29-1.15-15.64a1.55 1.55 0 112.19-2.18c.11.11 9 8.74 1.61 19.66a1.5 1.5 0 01-1.27.58z"/><path class="cls-13" d="M286.4 406.33a1.3 1.3 0 01-.92-.34c-6-4.37-4-13.8-2.19-16.56a11.26 11.26 0 015.06-4.14 38.38 38.38 0 007.94-5 22.19 22.19 0 0112.65-4.29c12.76-.11 17.71 10.7 17.94 11.16a1.58 1.58 0 01-2.88 1.26c-.23-.34-4.37-9.43-15.06-9.2a18.31 18.31 0 00-10.81 3.8 44.89 44.89 0 01-8.63 5.29 7.34 7.34 0 00-3.56 2.87c-1.27 2.07-2.76 9.43 1.38 12.42a1.62 1.62 0 01.34 2.19 1.33 1.33 0 01-1.26.54z"/><path class="cls-5" d="M427.73 388.28a21.88 21.88 0 0110.81-2.76l19.09.11c9.66 0 18.52 6.44 20.59 15.87a18.82 18.82 0 01.34 7.13 20.6 20.6 0 01-14.37 17.14 9 9 0 01-1.84.46 11.64 11.64 0 01-2.88.34c-.34 2.65 1 5.41 2.19 7.25a1.07 1.07 0 01-.39 1.46 1 1 0 01-.53.15c-6.9-.92-11.39-6-13.23-8.74h-9.66a18.64 18.64 0 01-8.05-1.69c-.57-.23-1-.46-1.61-.69a10 10 0 01-1.49-.92 22 22 0 01-6.1-6.09 13.23 13.23 0 01-1.26-2.19 20.33 20.33 0 012.41-21.62 24.65 24.65 0 015.98-5.21z"/><path class="cls-5" d="M277.54 150a25.31 25.31 0 00-12.65-3.22l-22.31.11c-11.27 0-21.62 7.59-24 18.63a25.34 25.34 0 00-.46 8.28 24 24 0 0016.9 20c.69.23 1.38.35 2.19.58a31 31 0 003.33.46c.46 3.1-1.26 6.32-2.64 8.39a1.15 1.15 0 00.18 1.62 1.13 1.13 0 001 .22c8-1.15 13.22-7 15.52-10.12h11.27a23.49 23.49 0 009.43-2c.69-.23 1.27-.58 1.84-.81l1.73-1a25 25 0 007.13-7.13 11.09 11.09 0 001.38-2.53 24.5 24.5 0 002.07-14.72 23 23 0 00-4.83-10.58 25.26 25.26 0 00-7.08-6.18z"/><path class="cls-13" d="M155.76 264.19a1.55 1.55 0 01-.76-.19 1.64 1.64 0 01-.46-2.18c.81-1.15 2.65-4.6 2.42-10.35a37.68 37.68 0 00-4.49-15.07 1.54 1.54 0 012.76-1.38c3 5.75 4.72 11.27 4.83 16.33a21.31 21.31 0 01-2.87 12.19 1.63 1.63 0 01-1.43.65z"/></svg>