<svg width="800" height="400" viewBox="0 0 800 400" xmlns="http://www.w3.org/2000/svg"><rect x="0" y="0" width="800" height="400" fill="white"/><rect x="42" y="42" width="24" height="24" fill="black"/><path fill="black" d="M80.0 55.3L77.9 57.6L78.0 54.0L78.4 54.0L81.9 49.8L85.4 49.8L80.7 55.3L80.0 55.3ZM78.2 60.7L75.2 60.7L75.2 46.2L78.2 46.2L78.2 60.7ZM85.6 60.7L82.0 60.7L78.8 56.0L80.8 53.8L85.6 60.7ZM91.0 60.9L91.0 60.9Q89.4 60.9 88.1 60.2Q86.9 59.6 86.3 58.3Q85.6 57.0 85.6 55.3L85.6 55.3Q85.6 53.6 86.3 52.4Q86.9 51.1 88.1 50.4Q89.3 49.7 90.9 49.7L90.9 49.7Q92.0 49.7 92.9 50.0Q93.9 50.4 94.6 51.0Q95.3 51.7 95.7 52.8Q96.0 53.8 96.0 55.2L96.0 55.2L96.0 56.0L86.8 56.0L86.8 54.2L93.2 54.2Q93.2 53.5 92.9 53.0Q92.6 52.5 92.1 52.2Q91.6 51.9 91.0 51.9L91.0 51.9Q90.3 51.9 89.7 52.2Q89.2 52.6 88.9 53.1Q88.6 53.6 88.6 54.3L88.6 54.3L88.6 56.0Q88.6 56.9 88.9 57.4Q89.2 58.0 89.8 58.4Q90.3 58.7 91.1 58.7L91.1 58.7Q91.6 58.7 92.0 58.5Q92.4 58.4 92.7 58.1Q93.0 57.8 93.2 57.4L93.2 57.4L96.0 57.6Q95.8 58.6 95.1 59.4Q94.5 60.1 93.4 60.5Q92.4 60.9 91.0 60.9ZM102.6 65.0L102.6 65.0Q101.1 65.0 100.1 64.6Q99.0 64.2 98.4 63.5Q97.8 62.9 97.6 62.0L97.6 62.0L100.4 61.6Q100.6 61.9 100.8 62.2Q101.1 62.5 101.6 62.7Q102.0 62.9 102.7 62.9L102.7 62.9Q103.7 62.9 104.3 62.4Q105.0 61.9 105.0 60.8L105.0 60.8L105.0 58.8L104.8 58.8Q104.6 59.2 104.2 59.6Q103.8 60.1 103.2 60.3Q102.6 60.6 101.7 60.6L101.7 60.6Q100.5 60.6 99.5 60.0Q98.5 59.4 97.9 58.2Q97.3 57.1 97.3 55.2L97.3 55.2Q97.3 53.4 97.9 52.1Q98.5 50.9 99.5 50.3Q100.5 49.7 101.7 49.7L101.7 49.7Q102.6 49.7 103.2 50.0Q103.9 50.3 104.2 50.7Q104.6 51.2 104.8 51.6L104.8 51.6L104.9 51.6L104.9 49.8L107.9 49.8L107.9 60.8Q107.9 62.2 107.3 63.2Q106.6 64.1 105.4 64.6Q104.2 65.0 102.6 65.0ZM102.7 58.3L102.7 58.3Q103.4 58.3 103.9 57.9Q104.4 57.6 104.7 56.9Q105.0 56.2 105.0 55.2L105.0 55.2Q105.0 54.3 104.7 53.6Q104.4 52.9 103.9 52.5Q103.4 52.1 102.7 52.1L102.7 52.1Q101.9 52.1 101.4 52.5Q100.9 52.9 100.6 53.6Q100.4 54.3 100.4 55.2L100.4 55.2Q100.4 56.2 100.7 56.9Q100.9 57.5 101.4 57.9Q101.9 58.3 102.7 58.3ZM117.0 56.1L117.0 56.1L117.0 49.8L120.1 49.8L120.1 60.7L117.2 60.7L117.2 58.7L117.0 58.7Q116.7 59.7 115.8 60.3Q115.0 60.9 113.7 60.9L113.7 60.9Q112.6 60.9 111.8 60.4Q111.0 59.9 110.5 59.0Q110.0 58.0 110.0 56.8L110.0 56.8L110.0 49.8L113.1 49.8L113.1 56.2Q113.1 57.2 113.6 57.7Q114.1 58.3 115.0 58.3L115.0 58.3Q115.5 58.3 116.0 58.1Q116.5 57.8 116.8 57.3Q117.0 56.8 117.0 56.1ZM125.2 60.7L122.2 60.7L122.2 49.8L125.2 49.8L125.2 60.7ZM123.7 48.4L123.7 48.4Q123.0 48.4 122.5 48.0Q122.0 47.5 122.0 46.9L122.0 46.9Q122.0 46.2 122.5 45.8Q123.0 45.3 123.7 45.3L123.7 45.3Q124.4 45.3 124.8 45.8Q125.3 46.2 125.3 46.9L125.3 46.9Q125.3 47.5 124.8 48.0Q124.4 48.4 123.7 48.4ZM132.2 65.0L132.2 65.0Q130.7 65.0 129.7 64.6Q128.6 64.2 128.0 63.5Q127.4 62.9 127.2 62.0L127.2 62.0L130.0 61.6Q130.1 61.9 130.4 62.2Q130.7 62.5 131.1 62.7Q131.6 62.9 132.3 62.9L132.3 62.9Q133.3 62.9 133.9 62.4Q134.5 61.9 134.5 60.8L134.5 60.8L134.5 58.8L134.4 58.8Q134.2 59.2 133.8 59.6Q133.4 60.1 132.8 60.3Q132.2 60.6 131.3 60.6L131.3 60.6Q130.1 60.6 129.1 60.0Q128.1 59.4 127.5 58.2Q126.9 57.1 126.9 55.2L126.9 55.2Q126.9 53.4 127.5 52.1Q128.1 50.9 129.1 50.3Q130.1 49.7 131.3 49.7L131.3 49.7Q132.2 49.7 132.8 50.0Q133.4 50.3 133.8 50.7Q134.2 51.2 134.4 51.6L134.4 51.6L134.5 51.6L134.5 49.8L137.5 49.8L137.5 60.8Q137.5 62.2 136.8 63.2Q136.2 64.1 135.0 64.6Q133.8 65.0 132.2 65.0ZM132.3 58.3L132.3 58.3Q133.0 58.3 133.5 57.9Q134.0 57.6 134.3 56.9Q134.6 56.2 134.6 55.2L134.6 55.2Q134.6 54.3 134.3 53.6Q134.0 52.9 133.5 52.5Q133.0 52.1 132.3 52.1L132.3 52.1Q131.5 52.1 131.0 52.5Q130.5 52.9 130.2 53.6Q130.0 54.3 130.0 55.2L130.0 55.2Q130.0 56.2 130.2 56.9Q130.5 57.5 131.0 57.9Q131.5 58.3 132.3 58.3ZM144.6 60.9L144.6 60.9Q142.9 60.9 141.7 60.2Q140.5 59.5 139.8 58.3Q139.2 57.0 139.2 55.3L139.2 55.3Q139.2 53.6 139.8 52.4Q140.5 51.1 141.7 50.4Q142.9 49.7 144.6 49.7L144.6 49.7Q146.2 49.7 147.4 50.4Q148.6 51.1 149.3 52.4Q149.9 53.6 149.9 55.3L149.9 55.3Q149.9 57.0 149.3 58.3Q148.6 59.5 147.4 60.2Q146.2 60.9 144.6 60.9ZM144.6 58.6L144.6 58.6Q145.3 58.6 145.8 58.2Q146.3 57.7 146.6 57.0Q146.8 56.2 146.8 55.3L146.8 55.3Q146.8 54.3 146.6 53.6Q146.3 52.8 145.8 52.4Q145.3 52.0 144.6 52.0L144.6 52.0Q143.8 52.0 143.3 52.4Q142.8 52.8 142.5 53.6Q142.3 54.3 142.3 55.3L142.3 55.3Q142.3 56.2 142.5 57.0Q142.8 57.7 143.3 58.2Q143.8 58.6 144.6 58.6ZM154.6 54.4L154.6 54.4L154.6 60.7L151.6 60.7L151.6 49.8L154.5 49.8L154.5 51.7L154.6 51.7Q154.9 50.8 155.8 50.2Q156.7 49.7 157.9 49.7L157.9 49.7Q159.0 49.7 159.8 50.2Q160.7 50.7 161.2 51.6Q161.6 52.5 161.6 53.8L161.6 53.8L161.6 60.7L158.6 60.7L158.6 54.3Q158.6 53.3 158.1 52.7Q157.6 52.2 156.7 52.2L156.7 52.2Q156.1 52.2 155.6 52.4Q155.1 52.7 154.9 53.2Q154.6 53.7 154.6 54.4ZM168.6 65.0L168.6 65.0Q167.1 65.0 166.1 64.6Q165.0 64.2 164.4 63.5Q163.8 62.9 163.6 62.0L163.6 62.0L166.4 61.6Q166.5 61.9 166.8 62.2Q167.1 62.5 167.6 62.7Q168.0 62.9 168.7 62.9L168.7 62.9Q169.7 62.9 170.3 62.4Q170.9 61.9 170.9 60.8L170.9 60.8L170.9 58.8L170.8 58.8Q170.6 59.2 170.2 59.6Q169.8 60.1 169.2 60.3Q168.6 60.6 167.7 60.6L167.7 60.6Q166.5 60.6 165.5 60.0Q164.5 59.4 163.9 58.2Q163.3 57.1 163.3 55.2L163.3 55.2Q163.3 53.4 163.9 52.1Q164.5 50.9 165.5 50.3Q166.5 49.7 167.7 49.7L167.7 49.7Q168.6 49.7 169.2 50.0Q169.9 50.3 170.2 50.7Q170.6 51.2 170.8 51.6L170.8 51.6L170.9 51.6L170.9 49.8L173.9 49.8L173.9 60.8Q173.9 62.2 173.3 63.2Q172.6 64.1 171.4 64.6Q170.2 65.0 168.6 65.0ZM168.7 58.3L168.7 58.3Q169.4 58.3 169.9 57.9Q170.4 57.6 170.7 56.9Q171.0 56.2 171.0 55.2L171.0 55.2Q171.0 54.3 170.7 53.6Q170.4 52.9 169.9 52.5Q169.4 52.1 168.7 52.1L168.7 52.1Q167.9 52.1 167.4 52.5Q166.9 52.9 166.6 53.6Q166.4 54.3 166.4 55.2L166.4 55.2Q166.4 56.2 166.6 56.9Q166.9 57.5 167.4 57.9Q167.9 58.3 168.7 58.3ZM177.8 60.9L177.8 60.9Q177.1 60.9 176.6 60.4Q176.1 59.9 176.1 59.2L176.1 59.2Q176.1 58.5 176.6 58.0Q177.1 57.5 177.8 57.5L177.8 57.5Q178.5 57.5 179.0 58.0Q179.5 58.5 179.5 59.2L179.5 59.2Q179.5 59.7 179.3 60.1Q179.0 60.4 178.6 60.7Q178.3 60.9 177.8 60.9ZM186.6 60.9L186.6 60.9Q184.9 60.9 183.7 60.2Q182.5 59.5 181.9 58.3Q181.2 57.0 181.2 55.3L181.2 55.3Q181.2 53.6 181.9 52.4Q182.5 51.1 183.7 50.4Q184.9 49.7 186.6 49.7L186.6 49.7Q188.3 49.7 189.5 50.4Q190.7 51.1 191.3 52.4Q192.0 53.6 192.0 55.3L192.0 55.3Q192.0 57.0 191.3 58.3Q190.7 59.5 189.5 60.2Q188.3 60.9 186.6 60.9ZM186.6 58.6L186.6 58.6Q187.4 58.6 187.9 58.2Q188.4 57.7 188.6 57.0Q188.9 56.2 188.9 55.3L188.9 55.3Q188.9 54.3 188.6 53.6Q188.4 52.8 187.9 52.4Q187.4 52.0 186.6 52.0L186.6 52.0Q185.8 52.0 185.3 52.4Q184.8 52.8 184.6 53.6Q184.3 54.3 184.3 55.3L184.3 55.3Q184.3 56.2 184.6 57.0Q184.8 57.7 185.3 58.2Q185.8 58.6 186.6 58.6ZM196.6 60.7L193.6 60.7L193.6 49.8L196.6 49.8L196.6 51.7L196.7 51.7Q197.0 50.7 197.7 50.2Q198.4 49.7 199.3 49.7L199.3 49.7Q199.5 49.7 199.8 49.7Q200.0 49.7 200.2 49.8L200.2 49.8L200.2 52.4Q200.0 52.4 199.6 52.3Q199.3 52.3 199.0 52.3L199.0 52.3Q198.3 52.3 197.8 52.6Q197.2 52.9 196.9 53.4Q196.6 53.9 196.6 54.5L196.6 54.5L196.6 60.7ZM205.9 65.0L205.9 65.0Q204.4 65.0 203.4 64.6Q202.3 64.2 201.7 63.5Q201.1 62.9 200.9 62.0L200.9 62.0L203.7 61.6Q203.8 61.9 204.1 62.2Q204.4 62.5 204.8 62.7Q205.3 62.9 205.9 62.9L205.9 62.9Q206.9 62.9 207.6 62.4Q208.2 61.9 208.2 60.8L208.2 60.8L208.2 58.8L208.1 58.8Q207.9 59.2 207.5 59.6Q207.1 60.1 206.5 60.3Q205.8 60.6 205.0 60.6L205.0 60.6Q203.8 60.6 202.7 60.0Q201.7 59.4 201.2 58.2Q200.6 57.1 200.6 55.2L200.6 55.2Q200.6 53.4 201.2 52.1Q201.8 50.9 202.8 50.3Q203.8 49.7 205.0 49.7L205.0 49.7Q205.9 49.7 206.5 50.0Q207.1 50.3 207.5 50.7Q207.9 51.2 208.1 51.6L208.1 51.6L208.2 51.6L208.2 49.8L211.2 49.8L211.2 60.8Q211.2 62.2 210.5 63.2Q209.8 64.1 208.6 64.6Q207.4 65.0 205.9 65.0ZM205.9 58.3L205.9 58.3Q206.7 58.3 207.2 57.9Q207.7 57.6 208.0 56.9Q208.2 56.2 208.2 55.2L208.2 55.2Q208.2 54.3 208.0 53.6Q207.7 52.9 207.2 52.5Q206.7 52.1 205.9 52.1L205.9 52.1Q205.2 52.1 204.7 52.5Q204.2 52.9 203.9 53.6Q203.6 54.3 203.6 55.2L203.6 55.2Q203.6 56.2 203.9 56.9Q204.2 57.5 204.7 57.9Q205.2 58.3 205.9 58.3Z "/><rect x="125" y="124" width="550" height="152" fill="black"/><path fill="white" d="M223.8 185.5L217.8 185.5L209.5 156.4L216.2 156.4L221.0 176.6L221.3 176.6L226.6 156.4L232.3 156.4L237.6 176.6L237.9 176.6L242.7 156.4L249.4 156.4L241.1 185.5L235.1 185.5L229.6 166.5L229.3 166.5L223.8 185.5ZM258.3 172.9L258.3 172.9L258.3 185.5L252.3 185.5L252.3 156.4L258.2 156.4L258.2 167.5L258.4 167.5Q259.2 165.6 260.8 164.5Q262.4 163.4 264.9 163.4L264.9 163.4Q267.2 163.4 268.9 164.4Q270.6 165.3 271.5 167.2Q272.5 169.0 272.5 171.6L272.5 171.6L272.5 185.5L266.4 185.5L266.4 172.7Q266.4 170.6 265.4 169.5Q264.4 168.4 262.5 168.4L262.5 168.4Q261.3 168.4 260.4 168.9Q259.4 169.5 258.9 170.5Q258.3 171.5 258.3 172.9ZM286.9 185.9L286.9 185.9Q283.5 185.9 281.1 184.5Q278.7 183.2 277.4 180.6Q276.0 178.1 276.0 174.7L276.0 174.7Q276.0 171.3 277.4 168.8Q278.7 166.2 281.0 164.8Q283.4 163.4 286.6 163.4L286.6 163.4Q288.8 163.4 290.7 164.1Q292.5 164.7 293.9 166.1Q295.3 167.5 296.1 169.6Q296.9 171.7 296.9 174.5L296.9 174.5L296.9 176.1L278.5 176.1L278.5 172.4L291.2 172.4Q291.2 171.1 290.6 170.0Q290.1 169.0 289.1 168.5Q288.0 167.9 286.7 167.9L286.7 167.9Q285.4 167.9 284.3 168.5Q283.2 169.2 282.6 170.2Q282.0 171.3 282.0 172.6L282.0 172.6L282.0 176.1Q282.0 177.7 282.6 178.9Q283.2 180.1 284.3 180.7Q285.5 181.4 287.0 181.4L287.0 181.4Q288.0 181.4 288.8 181.1Q289.7 180.8 290.3 180.2Q290.8 179.7 291.2 178.9L291.2 178.9L296.8 179.2Q296.3 181.2 295.0 182.7Q293.7 184.2 291.6 185.1Q289.6 185.9 286.9 185.9ZM306.6 185.5L300.5 185.5L300.5 163.7L306.4 163.7L306.4 167.5L306.6 167.5Q307.2 165.4 308.6 164.4Q310.0 163.3 311.8 163.3L311.8 163.3Q312.3 163.3 312.8 163.4Q313.4 163.5 313.8 163.6L313.8 163.6L313.8 168.9Q313.3 168.8 312.6 168.7Q311.8 168.6 311.2 168.6L311.2 168.6Q309.9 168.6 308.8 169.2Q307.8 169.7 307.2 170.8Q306.6 171.8 306.6 173.1L306.6 173.1L306.6 185.5ZM325.5 185.9L325.5 185.9Q322.1 185.9 319.7 184.5Q317.3 183.2 315.9 180.6Q314.6 178.1 314.6 174.7L314.6 174.7Q314.6 171.3 315.9 168.8Q317.3 166.2 319.6 164.8Q322.0 163.4 325.2 163.4L325.2 163.4Q327.4 163.4 329.2 164.1Q331.1 164.7 332.5 166.1Q333.9 167.5 334.7 169.6Q335.5 171.7 335.5 174.5L335.5 174.5L335.5 176.1L317.1 176.1L317.1 172.4L329.8 172.4Q329.8 171.1 329.2 170.0Q328.6 169.0 327.6 168.5Q326.6 167.9 325.3 167.9L325.3 167.9Q323.9 167.9 322.9 168.5Q321.8 169.2 321.2 170.2Q320.6 171.3 320.6 172.6L320.6 172.6L320.6 176.1Q320.6 177.7 321.2 178.9Q321.8 180.1 322.9 180.7Q324.0 181.4 325.6 181.4L325.6 181.4Q326.6 181.4 327.4 181.1Q328.2 180.8 328.8 180.2Q329.4 179.7 329.8 178.9L329.8 178.9L335.4 179.2Q334.9 181.2 333.6 182.7Q332.3 184.2 330.2 185.1Q328.2 185.9 325.5 185.9ZM357.6 174.6L353.5 179.2L353.6 171.9L354.4 171.9L361.4 163.7L368.4 163.7L359.0 174.6L357.6 174.6ZM354.1 185.5L348.1 185.5L348.1 156.4L354.1 156.4L354.1 185.5ZM368.8 185.5L361.7 185.5L355.3 176.0L359.3 171.7L368.8 185.5ZM380.0 185.9L380.0 185.9Q376.7 185.9 374.3 184.5Q371.8 183.2 370.5 180.6Q369.2 178.1 369.2 174.7L369.2 174.7Q369.2 171.3 370.5 168.8Q371.8 166.2 374.2 164.8Q376.6 163.4 379.8 163.4L379.8 163.4Q382.0 163.4 383.8 164.1Q385.7 164.7 387.1 166.1Q388.5 167.5 389.3 169.6Q390.1 171.7 390.1 174.5L390.1 174.5L390.1 176.1L371.6 176.1L371.6 172.4L384.4 172.4Q384.4 171.1 383.8 170.0Q383.2 169.0 382.2 168.5Q381.2 167.9 379.9 167.9L379.9 167.9Q378.5 167.9 377.5 168.5Q376.4 169.2 375.8 170.2Q375.2 171.3 375.2 172.6L375.2 172.6L375.2 176.1Q375.2 177.7 375.8 178.9Q376.4 180.1 377.5 180.7Q378.6 181.4 380.1 181.4L380.1 181.4Q381.2 181.4 382.0 181.1Q382.8 180.8 383.4 180.2Q384.0 179.7 384.3 178.9L384.3 178.9L389.9 179.2Q389.5 181.2 388.2 182.7Q386.9 184.2 384.8 185.1Q382.7 185.9 380.0 185.9ZM403.5 194.1L403.5 194.1Q400.6 194.1 398.5 193.3Q396.4 192.5 395.1 191.1Q393.9 189.7 393.5 188.0L393.5 188.0L399.1 187.3Q399.4 187.9 400.0 188.5Q400.5 189.1 401.4 189.4Q402.3 189.8 403.7 189.8L403.7 189.8Q405.6 189.8 406.9 188.8Q408.2 187.8 408.2 185.6L408.2 185.6L408.2 181.6L407.9 181.6Q407.6 182.5 406.8 183.3Q406.0 184.1 404.7 184.7Q403.5 185.2 401.7 185.2L401.7 185.2Q399.3 185.2 397.3 184.0Q395.2 182.9 394.1 180.5Q392.9 178.1 392.9 174.5L392.9 174.5Q392.9 170.8 394.1 168.3Q395.3 165.8 397.3 164.6Q399.3 163.4 401.7 163.4L401.7 163.4Q403.5 163.4 404.8 164.0Q406.0 164.6 406.8 165.5Q407.5 166.4 407.9 167.3L407.9 167.3L408.2 167.3L408.2 163.7L414.2 163.7L414.2 185.7Q414.2 188.5 412.8 190.3Q411.5 192.2 409.0 193.2Q406.6 194.1 403.5 194.1ZM403.6 180.6L403.6 180.6Q405.1 180.6 406.1 179.9Q407.1 179.2 407.7 177.8Q408.2 176.4 408.2 174.5L408.2 174.5Q408.2 172.6 407.7 171.2Q407.2 169.7 406.1 169.0Q405.1 168.2 403.6 168.2L403.6 168.2Q402.2 168.2 401.1 169.0Q400.1 169.8 399.6 171.2Q399.1 172.6 399.1 174.5L399.1 174.5Q399.1 176.4 399.6 177.8Q400.1 179.1 401.1 179.9Q402.2 180.6 403.6 180.6ZM432.7 176.2L432.7 176.2L432.7 163.7L438.7 163.7L438.7 185.5L432.9 185.5L432.9 181.5L432.7 181.5Q432.0 183.4 430.2 184.6Q428.5 185.8 426.1 185.8L426.1 185.8Q423.9 185.8 422.2 184.8Q420.6 183.8 419.6 181.9Q418.7 180.1 418.7 177.5L418.7 177.5L418.7 163.7L424.7 163.7L424.7 176.5Q424.8 178.4 425.8 179.5Q426.8 180.6 428.5 180.6L428.5 180.6Q429.6 180.6 430.6 180.1Q431.5 179.6 432.1 178.6Q432.7 177.6 432.7 176.2ZM449.3 185.5L443.2 185.5L443.2 163.7L449.3 163.7L449.3 185.5ZM446.3 160.8L446.3 160.8Q444.9 160.8 444.0 159.9Q443.0 159.0 443.0 157.8L443.0 157.8Q443.0 156.5 444.0 155.6Q444.9 154.7 446.3 154.7L446.3 154.7Q447.6 154.7 448.6 155.6Q449.6 156.5 449.6 157.8L449.6 157.8Q449.6 159.0 448.6 159.9Q447.6 160.8 446.3 160.8ZM463.6 194.1L463.6 194.1Q460.7 194.1 458.6 193.3Q456.5 192.5 455.3 191.1Q454.0 189.7 453.7 188.0L453.7 188.0L459.3 187.3Q459.5 187.9 460.1 188.5Q460.6 189.1 461.5 189.4Q462.5 189.8 463.8 189.8L463.8 189.8Q465.8 189.8 467.0 188.8Q468.3 187.8 468.3 185.6L468.3 185.6L468.3 181.6L468.1 181.6Q467.7 182.5 466.9 183.3Q466.1 184.1 464.8 184.7Q463.6 185.2 461.8 185.2L461.8 185.2Q459.4 185.2 457.4 184.0Q455.4 182.9 454.2 180.5Q453.0 178.1 453.0 174.5L453.0 174.5Q453.0 170.8 454.2 168.3Q455.4 165.8 457.4 164.6Q459.4 163.4 461.8 163.4L461.8 163.4Q463.7 163.4 464.9 164.0Q466.1 164.6 466.9 165.5Q467.7 166.4 468.1 167.3L468.1 167.3L468.3 167.3L468.3 163.7L474.3 163.7L474.3 185.7Q474.3 188.5 472.9 190.3Q471.6 192.2 469.2 193.2Q466.8 194.1 463.6 194.1ZM463.8 180.6L463.8 180.6Q465.2 180.6 466.2 179.9Q467.3 179.2 467.8 177.8Q468.4 176.4 468.4 174.5L468.4 174.5Q468.4 172.6 467.8 171.2Q467.3 169.7 466.2 169.0Q465.2 168.2 463.8 168.2L463.8 168.2Q462.3 168.2 461.2 169.0Q460.2 169.8 459.7 171.2Q459.2 172.6 459.2 174.5L459.2 174.5Q459.2 176.4 459.7 177.8Q460.2 179.1 461.3 179.9Q462.3 180.6 463.8 180.6ZM488.7 185.9L488.7 185.9Q485.4 185.9 483.0 184.5Q480.5 183.1 479.2 180.5Q477.9 178.0 477.9 174.7L477.9 174.7Q477.9 171.3 479.2 168.7Q480.5 166.2 483.0 164.8Q485.4 163.4 488.7 163.4L488.7 163.4Q492.0 163.4 494.4 164.8Q496.8 166.2 498.1 168.7Q499.4 171.3 499.4 174.7L499.4 174.7Q499.4 178.0 498.1 180.5Q496.8 183.1 494.4 184.5Q492.0 185.9 488.7 185.9ZM488.7 181.2L488.7 181.2Q490.2 181.2 491.2 180.4Q492.2 179.5 492.7 178.0Q493.3 176.5 493.3 174.6L493.3 174.6Q493.3 172.7 492.7 171.2Q492.2 169.7 491.2 168.9Q490.2 168.0 488.7 168.0L488.7 168.0Q487.2 168.0 486.1 168.9Q485.1 169.7 484.6 171.2Q484.1 172.7 484.1 174.6L484.1 174.6Q484.1 176.5 484.6 178.0Q485.1 179.5 486.1 180.4Q487.2 181.2 488.7 181.2ZM509.1 172.9L509.1 172.9L509.1 185.5L503.0 185.5L503.0 163.7L508.8 163.7L508.8 167.5L509.1 167.5Q509.8 165.6 511.5 164.5Q513.2 163.4 515.6 163.4L515.6 163.4Q517.9 163.4 519.6 164.4Q521.3 165.4 522.2 167.2Q523.2 169.0 523.2 171.6L523.2 171.6L523.2 185.5L517.1 185.5L517.1 172.7Q517.1 170.7 516.1 169.5Q515.0 168.4 513.2 168.4L513.2 168.4Q512.0 168.4 511.1 168.9Q510.1 169.5 509.6 170.5Q509.1 171.5 509.1 172.9ZM537.4 194.1L537.4 194.1Q534.5 194.1 532.4 193.3Q530.3 192.5 529.1 191.1Q527.8 189.7 527.4 188.0L527.4 188.0L533.0 187.3Q533.3 187.9 533.9 188.5Q534.4 189.1 535.3 189.4Q536.2 189.8 537.6 189.8L537.6 189.8Q539.5 189.8 540.8 188.8Q542.1 187.8 542.1 185.6L542.1 185.6L542.1 181.6L541.9 181.6Q541.5 182.5 540.7 183.3Q539.9 184.1 538.6 184.7Q537.4 185.2 535.6 185.2L535.6 185.2Q533.2 185.2 531.2 184.0Q529.2 182.9 528.0 180.5Q526.8 178.1 526.8 174.5L526.8 174.5Q526.8 170.8 528.0 168.3Q529.2 165.8 531.2 164.6Q533.2 163.4 535.6 163.4L535.6 163.4Q537.4 163.4 538.7 164.0Q539.9 164.6 540.7 165.5Q541.4 166.4 541.9 167.3L541.9 167.3L542.1 167.3L542.1 163.7L548.1 163.7L548.1 185.7Q548.1 188.5 546.7 190.3Q545.4 192.2 543.0 193.2Q540.5 194.1 537.4 194.1ZM537.5 180.6L537.5 180.6Q539.0 180.6 540.0 179.9Q541.0 179.2 541.6 177.8Q542.1 176.4 542.1 174.5L542.1 174.5Q542.1 172.6 541.6 171.2Q541.1 169.7 540.0 169.0Q539.0 168.2 537.5 168.2L537.5 168.2Q536.1 168.2 535.0 169.0Q534.0 169.8 533.5 171.2Q533.0 172.6 533.0 174.5L533.0 174.5Q533.0 176.4 533.5 177.8Q534.0 179.1 535.0 179.9Q536.1 180.6 537.5 180.6ZM552.2 156.4L556.5 156.4L556.5 167.4L552.2 167.4L552.2 156.4ZM578.8 169.9L578.8 169.9L573.2 170.2Q573.1 169.5 572.6 168.9Q572.2 168.4 571.4 168.0Q570.6 167.7 569.6 167.7L569.6 167.7Q568.2 167.7 567.2 168.3Q566.3 168.8 566.3 169.8L566.3 169.8Q566.3 170.6 566.9 171.1Q567.5 171.7 569.0 172.0L569.0 172.0L573.0 172.8Q576.2 173.5 577.7 174.9Q579.3 176.4 579.3 178.7L579.3 178.7Q579.3 180.9 578.0 182.5Q576.8 184.1 574.6 185.0Q572.4 185.9 569.6 185.9L569.6 185.9Q565.2 185.9 562.7 184.1Q560.1 182.3 559.7 179.2L559.7 179.2L565.6 178.8Q565.9 180.2 566.9 180.9Q568.0 181.5 569.6 181.5L569.6 181.5Q571.2 181.5 572.1 180.9Q573.1 180.3 573.1 179.3L573.1 179.3Q573.1 178.5 572.4 178.0Q571.8 177.4 570.3 177.2L570.3 177.2L566.6 176.4Q563.4 175.8 561.8 174.2Q560.2 172.6 560.2 170.2L560.2 170.2Q560.2 168.1 561.4 166.5Q562.5 165.0 564.6 164.2Q566.7 163.4 569.5 163.4L569.5 163.4Q573.6 163.4 576.0 165.1Q578.4 166.9 578.8 169.9Z M212.6 220.1L225.8 220.1L225.8 224.7L212.6 224.7L212.6 220.1ZM215.6 236.0L215.6 214.9L221.7 214.9L221.7 235.2Q221.7 236.1 221.9 236.5Q222.2 237.0 222.7 237.2Q223.1 237.4 223.7 237.4L223.7 237.4Q224.2 237.4 224.6 237.3Q225.0 237.2 225.2 237.2L225.2 237.2L226.2 241.7Q225.7 241.8 224.9 242.0Q224.1 242.2 222.9 242.2L222.9 242.2Q220.7 242.3 219.1 241.7Q217.4 241.0 216.5 239.6Q215.6 238.2 215.6 236.0L215.6 236.0ZM235.9 229.3L235.9 229.3L235.9 242.0L229.9 242.0L229.9 212.9L235.7 212.9L235.7 224.0L236.0 224.0Q236.7 222.1 238.4 221.0Q240.0 219.8 242.5 219.8L242.5 219.8Q244.8 219.8 246.5 220.8Q248.2 221.8 249.1 223.7Q250.1 225.5 250.1 228.1L250.1 228.1L250.1 242.0L244.0 242.0L244.0 229.1Q244.0 227.1 243.0 226.0Q242.0 224.9 240.1 224.9L240.1 224.9Q238.9 224.9 237.9 225.4Q237.0 225.9 236.5 226.9Q235.9 227.9 235.9 229.3ZM264.4 242.4L264.4 242.4Q261.1 242.4 258.6 241.0Q256.2 239.6 254.9 237.0Q253.6 234.5 253.6 231.1L253.6 231.1Q253.6 227.7 254.9 225.2Q256.2 222.7 258.6 221.3Q261.1 219.8 264.4 219.8L264.4 219.8Q267.7 219.8 270.1 221.3Q272.5 222.7 273.8 225.2Q275.1 227.7 275.1 231.1L275.1 231.1Q275.1 234.5 273.8 237.0Q272.5 239.6 270.1 241.0Q267.7 242.4 264.4 242.4ZM264.4 237.7L264.4 237.7Q265.9 237.7 266.9 236.8Q267.9 236.0 268.4 234.5Q269.0 233.0 269.0 231.1L269.0 231.1Q269.0 229.2 268.4 227.7Q267.9 226.2 266.9 225.3Q265.9 224.5 264.4 224.5L264.4 224.5Q262.9 224.5 261.8 225.3Q260.8 226.2 260.3 227.7Q259.8 229.2 259.8 231.1L259.8 231.1Q259.8 233.0 260.3 234.5Q260.8 236.0 261.8 236.8Q262.9 237.7 264.4 237.7ZM292.7 232.7L292.7 232.7L292.7 220.1L298.8 220.1L298.8 242.0L293.0 242.0L293.0 238.0L292.7 238.0Q292.0 239.9 290.3 241.1Q288.6 242.2 286.1 242.2L286.1 242.2Q283.9 242.2 282.3 241.2Q280.6 240.2 279.7 238.4Q278.7 236.6 278.7 234.0L278.7 234.0L278.7 220.1L284.8 220.1L284.8 232.9Q284.8 234.9 285.8 236.0Q286.8 237.1 288.6 237.1L288.6 237.1Q289.7 237.1 290.6 236.6Q291.6 236.1 292.2 235.1Q292.7 234.1 292.7 232.7ZM313.1 250.6L313.1 250.6Q310.2 250.6 308.1 249.8Q306.0 249.0 304.8 247.6Q303.5 246.2 303.1 244.5L303.1 244.5L308.7 243.8Q309.0 244.4 309.6 245.0Q310.1 245.5 311.0 245.9Q311.9 246.2 313.3 246.2L313.3 246.2Q315.2 246.2 316.5 245.3Q317.8 244.3 317.8 242.1L317.8 242.1L317.8 238.1L317.5 238.1Q317.2 239.0 316.4 239.8Q315.6 240.6 314.3 241.1Q313.1 241.6 311.3 241.6L311.3 241.6Q308.9 241.6 306.9 240.5Q304.8 239.4 303.7 237.0Q302.5 234.6 302.5 231.0L302.5 231.0Q302.5 227.3 303.7 224.8Q304.9 222.3 306.9 221.1Q308.9 219.8 311.3 219.8L311.3 219.8Q313.1 219.8 314.4 220.5Q315.6 221.1 316.4 222.0Q317.1 222.9 317.5 223.8L317.5 223.8L317.8 223.8L317.8 220.1L323.8 220.1L323.8 242.2Q323.8 244.9 322.4 246.8Q321.1 248.7 318.6 249.6Q316.2 250.6 313.1 250.6ZM313.2 237.1L313.2 237.1Q314.7 237.1 315.7 236.4Q316.7 235.6 317.3 234.3Q317.8 232.9 317.8 231.0L317.8 231.0Q317.8 229.1 317.3 227.6Q316.8 226.2 315.7 225.4Q314.7 224.7 313.2 224.7L313.2 224.7Q311.8 224.7 310.7 225.5Q309.7 226.3 309.2 227.7Q308.7 229.1 308.7 231.0L308.7 231.0Q308.7 232.9 309.2 234.2Q309.7 235.6 310.7 236.3Q311.8 237.1 313.2 237.1ZM334.3 229.3L334.3 229.3L334.3 242.0L328.3 242.0L328.3 212.9L334.2 212.9L334.2 224.0L334.4 224.0Q335.2 222.1 336.8 221.0Q338.5 219.8 340.9 219.8L340.9 219.8Q343.2 219.8 344.9 220.8Q346.6 221.8 347.6 223.7Q348.5 225.5 348.5 228.1L348.5 228.1L348.5 242.0L342.4 242.0L342.4 229.1Q342.5 227.1 341.4 226.0Q340.4 224.9 338.5 224.9L338.5 224.9Q337.3 224.9 336.4 225.4Q335.4 225.9 334.9 226.9Q334.4 227.9 334.3 229.3ZM351.4 220.1L364.6 220.1L364.6 224.7L351.4 224.7L351.4 220.1ZM354.4 236.0L354.4 214.9L360.4 214.9L360.4 235.2Q360.4 236.1 360.7 236.5Q361.0 237.0 361.4 237.2Q361.9 237.4 362.5 237.4L362.5 237.4Q362.9 237.4 363.3 237.3Q363.8 237.2 364.0 237.2L364.0 237.2L364.9 241.7Q364.5 241.8 363.7 242.0Q362.8 242.2 361.7 242.2L361.7 242.2Q359.5 242.3 357.8 241.7Q356.2 241.0 355.3 239.6Q354.4 238.2 354.4 236.0L354.4 236.0ZM386.0 226.4L386.0 226.4L380.5 226.7Q380.3 226.0 379.9 225.4Q379.4 224.8 378.6 224.5Q377.9 224.1 376.8 224.1L376.8 224.1Q375.4 224.1 374.5 224.7Q373.5 225.3 373.5 226.3L373.5 226.3Q373.5 227.1 374.1 227.6Q374.7 228.2 376.3 228.5L376.3 228.5L380.2 229.3Q383.4 229.9 385.0 231.4Q386.5 232.8 386.5 235.2L386.5 235.2Q386.5 237.3 385.3 239.0Q384.0 240.6 381.8 241.5Q379.6 242.4 376.8 242.4L376.8 242.4Q372.5 242.4 369.9 240.6Q367.3 238.8 366.9 235.6L366.9 235.6L372.9 235.3Q373.1 236.6 374.2 237.3Q375.2 238.0 376.8 238.0L376.8 238.0Q378.4 238.0 379.4 237.4Q380.4 236.8 380.4 235.8L380.4 235.8Q380.4 235.0 379.7 234.4Q379.0 233.9 377.6 233.6L377.6 233.6L373.8 232.9Q370.6 232.2 369.0 230.7Q367.5 229.1 367.5 226.6L367.5 226.6Q367.5 224.5 368.6 223.0Q369.8 221.5 371.9 220.7Q373.9 219.8 376.7 219.8L376.7 219.8Q380.9 219.8 383.2 221.6Q385.6 223.3 386.0 226.4ZM409.7 242.0L403.3 242.0L397.3 220.1L403.5 220.1L406.8 234.8L407.0 234.8L410.6 220.1L416.6 220.1L420.2 234.7L420.3 234.7L423.7 220.1L429.8 220.1L423.8 242.0L417.4 242.0L413.7 228.2L413.4 228.2L409.7 242.0ZM442.1 242.4L442.1 242.4Q438.7 242.4 436.3 241.0Q433.9 239.6 432.5 237.1Q431.2 234.6 431.2 231.1L431.2 231.1Q431.2 227.8 432.5 225.2Q433.9 222.7 436.2 221.3Q438.6 219.8 441.8 219.8L441.8 219.8Q444.0 219.8 445.8 220.5Q447.7 221.2 449.1 222.6Q450.5 224.0 451.3 226.1Q452.1 228.1 452.1 230.9L452.1 230.9L452.1 232.6L433.7 232.6L433.7 228.8L446.4 228.8Q446.4 227.5 445.8 226.5Q445.2 225.5 444.2 224.9Q443.2 224.4 441.9 224.4L441.9 224.4Q440.5 224.4 439.5 225.0Q438.4 225.6 437.8 226.7Q437.2 227.7 437.2 229.0L437.2 229.0L437.2 232.6Q437.2 234.2 437.8 235.4Q438.4 236.6 439.5 237.2Q440.6 237.9 442.2 237.9L442.2 237.9Q443.2 237.9 444.0 237.6Q444.8 237.3 445.4 236.7Q446.0 236.2 446.4 235.3L446.4 235.3L451.9 235.7Q451.5 237.7 450.2 239.2Q448.9 240.7 446.8 241.5Q444.8 242.4 442.1 242.4ZM461.8 242.0L455.7 242.0L455.7 220.1L461.6 220.1L461.6 223.9L461.8 223.9Q462.4 221.9 463.8 220.9Q465.2 219.8 467.0 219.8L467.0 219.8Q467.5 219.8 468.0 219.9Q468.5 219.9 468.9 220.0L468.9 220.0L468.9 225.4Q468.5 225.3 467.8 225.2Q467.0 225.1 466.4 225.1L466.4 225.1Q465.1 225.1 464.0 225.7Q463.0 226.2 462.4 227.2Q461.8 228.3 461.8 229.6L461.8 229.6L461.8 242.0ZM480.7 242.4L480.7 242.4Q477.3 242.4 474.9 241.0Q472.4 239.6 471.1 237.1Q469.8 234.6 469.8 231.1L469.8 231.1Q469.8 227.8 471.1 225.2Q472.4 222.7 474.8 221.3Q477.2 219.8 480.4 219.8L480.4 219.8Q482.6 219.8 484.4 220.5Q486.3 221.2 487.7 222.6Q489.1 224.0 489.9 226.1Q490.7 228.1 490.7 230.9L490.7 230.9L490.7 232.6L472.2 232.6L472.2 228.8L485.0 228.8Q485.0 227.5 484.4 226.5Q483.8 225.5 482.8 224.9Q481.8 224.4 480.5 224.4L480.5 224.4Q479.1 224.4 478.1 225.0Q477.0 225.6 476.4 226.7Q475.8 227.7 475.8 229.0L475.8 229.0L475.8 232.6Q475.8 234.2 476.4 235.4Q477.0 236.6 478.1 237.2Q479.2 237.9 480.8 237.9L480.8 237.9Q481.8 237.9 482.6 237.6Q483.4 237.3 484.0 236.7Q484.6 236.2 484.9 235.3L484.9 235.3L490.5 235.7Q490.1 237.7 488.8 239.2Q487.5 240.7 485.4 241.5Q483.4 242.4 480.7 242.4ZM509.3 242.0L503.4 242.0L503.4 212.9L509.4 212.9L509.4 223.8L509.6 223.8Q510.0 222.9 510.8 222.0Q511.5 221.1 512.8 220.5Q514.0 219.8 515.8 219.8L515.8 219.8Q518.2 219.8 520.2 221.1Q522.2 222.3 523.4 224.8Q524.6 227.3 524.6 231.1L524.6 231.1Q524.6 234.7 523.5 237.2Q522.3 239.7 520.3 241.0Q518.3 242.3 515.8 242.3L515.8 242.3Q514.0 242.3 512.8 241.7Q511.6 241.1 510.8 240.3Q510.0 239.4 509.6 238.5L509.6 238.5L509.3 238.5L509.3 242.0ZM509.3 231.0L509.3 231.0Q509.3 233.0 509.8 234.4Q510.4 235.9 511.4 236.7Q512.4 237.5 513.9 237.5L513.9 237.5Q515.4 237.5 516.4 236.7Q517.4 235.9 517.9 234.4Q518.5 232.9 518.5 231.0L518.5 231.0Q518.5 229.2 517.9 227.7Q517.4 226.3 516.4 225.5Q515.4 224.7 513.9 224.7L513.9 224.7Q512.4 224.7 511.4 225.4Q510.4 226.2 509.8 227.7Q509.3 229.1 509.3 231.0ZM542.3 232.7L542.3 232.7L542.3 220.1L548.4 220.1L548.4 242.0L542.6 242.0L542.6 238.0L542.4 238.0Q541.6 239.9 539.9 241.1Q538.2 242.2 535.7 242.2L535.7 242.2Q533.5 242.2 531.9 241.2Q530.2 240.2 529.3 238.4Q528.4 236.6 528.3 234.0L528.3 234.0L528.3 220.1L534.4 220.1L534.4 232.9Q534.4 234.9 535.4 236.0Q536.5 237.1 538.2 237.1L538.2 237.1Q539.3 237.1 540.2 236.6Q541.2 236.1 541.8 235.1Q542.4 234.1 542.3 232.7ZM558.9 242.0L552.9 242.0L552.9 220.1L558.9 220.1L558.9 242.0ZM555.9 217.3L555.9 217.3Q554.6 217.3 553.6 216.4Q552.7 215.5 552.7 214.3L552.7 214.3Q552.7 213.0 553.6 212.1Q554.6 211.2 555.9 211.2L555.9 211.2Q557.3 211.2 558.2 212.1Q559.2 213.0 559.2 214.3L559.2 214.3Q559.2 215.5 558.2 216.4Q557.3 217.3 555.9 217.3ZM563.5 212.9L569.5 212.9L569.5 242.0L563.5 242.0L563.5 212.9ZM572.5 220.1L585.6 220.1L585.6 224.7L572.5 224.7L572.5 220.1ZM575.5 236.0L575.5 214.9L581.5 214.9L581.5 235.2Q581.5 236.1 581.8 236.5Q582.0 237.0 582.5 237.2Q583.0 237.4 583.6 237.4L583.6 237.4Q584.0 237.4 584.4 237.3Q584.8 237.2 585.1 237.2L585.1 237.2L586.0 241.7Q585.6 241.8 584.7 242.0Q583.9 242.2 582.7 242.2L582.7 242.2Q580.6 242.3 578.9 241.7Q577.3 241.0 576.4 239.6Q575.5 238.2 575.5 236.0L575.5 236.0Z "/></svg>